<svg width="75" height="75" viewBox="0 0 75 75" fill="none" xmlns="http://www.w3.org/2000/svg">
<path fill-rule="evenodd" clip-rule="evenodd" d="M44.8323 42.7689H35.095V9.4078C35.095 6.7524 37.2633 4.59973 39.9382 4.59973H39.989C42.6638 4.59973 44.8323 6.7524 44.8323 9.4078V42.7689Z" fill="#7CB305"/>
<path fill-rule="evenodd" clip-rule="evenodd" d="M49.6746 50.9349H39.9089V33.5144C39.9089 30.9291 42.0294 28.8334 44.6453 28.8334H44.9383C47.554 28.8334 49.6746 30.9291 49.6746 33.5144V50.9349Z" fill="#5B8C00"/>
<path fill-rule="evenodd" clip-rule="evenodd" d="M36.5234 42.7515H26.6926V23.8111C26.6926 21.2112 28.8187 19.1035 31.4413 19.1035H31.7747C34.3973 19.1035 36.5234 21.2112 36.5234 23.8111V42.7515Z" fill="#7CB305"/>
<path fill-rule="evenodd" clip-rule="evenodd" d="M50.2554 70.4213H24.6818C23.671 70.4213 22.8516 69.6103 22.8516 68.61V43.4529C22.8516 42.4526 23.671 41.6417 24.6818 41.6417H50.2554C51.2662 41.6417 52.0856 42.4526 52.0856 43.4529V68.61C52.0856 69.6103 51.2662 70.4213 50.2554 70.4213Z" fill="#253368"/>
</svg>
