<svg width="100" height="100" viewBox="0 0 100 100" fill="none" xmlns="http://www.w3.org/2000/svg">
<path fill-rule="evenodd" clip-rule="evenodd" d="M26.0004 59.869C26.0004 59.869 25.0238 52.0565 35.5707 48.5409C46.1176 45.0253 48.4613 46.8808 48.4613 46.8808L47.4848 50.0058C47.4848 50.0058 45.8246 57.8183 38.2074 58.8925C30.5902 59.9667 27.6606 58.4042 26.0004 59.869Z" fill="#7CB305"/>
<path d="M47.3306 47.2492L47.6391 47.4888L47.6136 47.5208C47.6024 47.5346 47.5886 47.5513 47.5722 47.571L47.5234 47.6287C47.4892 47.6688 47.4514 47.712 47.41 47.7583L47.3784 47.7936C47.1641 48.0313 46.9054 48.2956 46.6018 48.5799C45.7365 49.3901 44.6832 50.1996 43.4368 50.9547C40.9337 52.471 37.9781 53.5733 34.554 54.0865L34.427 54.1053C32.1223 54.4398 30.2857 55.2054 28.8631 56.2707C28.1806 56.7818 27.639 57.3285 27.2238 57.874C27.0793 58.0639 26.9611 58.2397 26.8674 58.3968L26.8368 58.4489C26.8224 58.4739 26.8094 58.4972 26.7976 58.5188L26.7649 58.5814L26.7629 58.5854L26.4099 58.4182L26.4207 58.3962C26.443 58.3515 26.4798 58.284 26.532 58.1966C26.633 58.0272 26.7594 57.8393 26.913 57.6375C27.3494 57.0639 27.9165 56.4915 28.6289 55.9581C30.0826 54.8695 31.9472 54.0853 34.2696 53.7337L34.3709 53.7187C37.7957 53.2216 40.744 52.1292 43.2344 50.6206C44.4569 49.88 45.4887 49.087 46.3348 48.2948C46.6106 48.0366 46.8475 47.796 47.0463 47.5783L47.0883 47.532C47.15 47.4635 47.2039 47.4017 47.25 47.3473L47.3016 47.2853L47.3306 47.2492Z" fill="#7CB305"/>
<path fill-rule="evenodd" clip-rule="evenodd" d="M47.1919 65.1425H48.4614V46.8807H47.1919L47.534 52.4919C47.6313 54.0885 47.642 55.6892 47.566 57.287L47.1919 65.1425Z" fill="#7CB305"/>
<path fill-rule="evenodd" clip-rule="evenodd" d="M27.6389 33.1307C27.6389 33.1307 31.5261 27.2197 40.7871 30.9651C50.0479 34.7104 50.5121 37.7011 50.5121 37.7011L48.079 38.9127C48.079 38.9127 42.389 43.2866 36.5545 39.58C30.7202 35.8735 29.6281 33.097 27.6389 33.1307Z" fill="#7CB305"/>
<path fill-rule="evenodd" clip-rule="evenodd" d="M49.2427 70.2206H50.2192L50.6019 37.9839C50.6065 37.5863 50.3446 37.2346 49.9623 37.1254L49.2427 36.9198C49.2427 36.9198 49.4879 39.9151 49.438 43.658C49.3902 47.2385 49.0474 51.4991 49.0474 54.6547C49.0474 63.58 49.2427 70.2206 49.2427 70.2206Z" fill="#7CB305"/>
<path fill-rule="evenodd" clip-rule="evenodd" d="M40.8441 32.916C45.0583 36.1867 49.3402 38.2871 49.3402 38.2871L48.079 38.9127C48.079 38.9127 42.389 43.2866 36.5545 39.58C30.7202 35.8735 29.6281 33.097 27.6389 33.1307C27.6389 33.1307 34.3011 27.8378 40.8441 32.916Z" fill="#5B8C00"/>
<path fill-rule="evenodd" clip-rule="evenodd" d="M73.3398 47.1122C73.3398 47.1122 70.7176 43.1448 64.4704 45.6587C58.2233 48.1725 57.9102 50.1799 57.9102 50.1799L59.5515 50.9931C59.5515 50.9931 63.3898 53.9288 67.3256 51.441C71.2613 48.9532 71.998 47.0896 73.3398 47.1122Z" fill="#7CB305"/>
<path fill-rule="evenodd" clip-rule="evenodd" d="M58.7518 72.168H58.0769L57.8125 50.4247C57.8093 50.1566 57.9903 49.9194 58.2545 49.8457L58.7518 49.707C58.7518 49.707 58.5823 51.7273 58.6168 54.2518C58.6498 56.6669 58.8867 59.5406 58.8867 61.669C58.8867 67.689 58.7518 72.168 58.7518 72.168Z" fill="#7CB305"/>
<path fill-rule="evenodd" clip-rule="evenodd" d="M74.0689 25.6112C74.0689 25.6112 70.1817 19.7001 60.9208 23.4455C51.66 27.1909 51.1958 30.1816 51.1958 30.1816L53.6289 31.3932C53.6289 31.3932 59.3188 35.767 65.1533 32.0605C70.9877 28.3539 72.0798 25.5775 74.0689 25.6112Z" fill="#7CB305"/>
<path fill-rule="evenodd" clip-rule="evenodd" d="M52.4652 63.9706H51.4886L51.106 30.4643C51.1013 30.0668 51.3632 29.7151 51.7456 29.6058L52.4652 29.4003C52.4652 29.4003 52.22 32.3956 52.2699 36.1385C52.3176 39.719 52.6605 43.9796 52.6605 47.1351C52.6605 56.0604 52.4652 63.9706 52.4652 63.9706Z" fill="#7CB305"/>
<path fill-rule="evenodd" clip-rule="evenodd" d="M74.0689 25.6112C74.0689 25.6112 67.4067 20.3183 60.8638 25.3964C56.6495 28.6671 52.3677 30.7675 52.3677 30.7675L53.6289 31.3932C53.6289 31.3932 59.3188 35.767 65.1533 32.0605C70.9877 28.354 72.0798 25.5775 74.0689 25.6112Z" fill="#5B8C00"/>
<path fill-rule="evenodd" clip-rule="evenodd" d="M54.2231 63.6776H55.8833L56.5399 42.9237L55.2894 23.3354C55.294 22.9379 55.0321 22.5862 54.6498 22.4769L53.9302 22.2714C53.9302 22.2714 55.4927 37.8272 55.4927 40.9828C55.4927 49.9081 54.2231 63.6776 54.2231 63.6776Z" fill="#7CB305"/>
<path fill-rule="evenodd" clip-rule="evenodd" d="M35.5408 11.3115C35.5408 11.3115 39.0864 6.06044 47.4848 11.3339C55.9449 16.646 55.3575 23.6146 55.3575 23.6146L52.654 23.896C52.654 23.896 45.7914 25.996 41.6278 20.4784C37.4642 14.9608 37.4153 11.9777 35.5408 11.3115Z" fill="#7CB305"/>
<path fill-rule="evenodd" clip-rule="evenodd" d="M35.5408 11.3115C35.5408 11.3115 39.3576 8.49793 42.602 12.5057C44.2622 14.5565 47.1993 16.1027 48.4614 17.2909C51.74 20.3778 54.0545 23.7523 54.0545 23.7523L52.654 23.896C52.654 23.896 45.7914 25.996 41.6278 20.4784C37.4642 14.9608 37.4153 11.9777 35.5408 11.3115Z" fill="#5B8C00"/>
<path fill-rule="evenodd" clip-rule="evenodd" d="M63.4766 91.0214H40.8203C39.5259 91.0214 38.4766 89.972 38.4766 88.6776V66.0214C38.4766 64.7269 39.5259 63.6776 40.8203 63.6776H63.4766C64.771 63.6776 65.8203 64.7269 65.8203 66.0214V88.6776C65.8203 89.972 64.771 91.0214 63.4766 91.0214Z" fill="#253368"/>
</svg>
