<svg width="100" height="100" viewBox="0 0 100 100" fill="none" xmlns="http://www.w3.org/2000/svg">
<path fill-rule="evenodd" clip-rule="evenodd" d="M61.8236 7.38436C73.5133 1.85508 80.4803 16.3564 74.6014 24.4305C67.4271 34.2833 63.7521 45.6205 61.7056 49.0362C59.9792 51.9177 55.2501 58.9426 49.5555 55.7047C44.3147 52.7248 47.1711 41.0295 47.1711 41.0295C47.1711 41.0295 47.4026 14.2055 61.8236 7.38436Z" fill="#5B8C00"/>
<path fill-rule="evenodd" clip-rule="evenodd" d="M26.6628 53.453C22.6887 48.0913 21.2376 40.3969 25.6734 38.4238C29.9263 36.5322 36.9711 41.1899 40.2342 50.1539C43.4972 59.1178 45.3798 65.5627 42.1879 66.6832C36.9511 68.5217 31.9118 60.5346 26.6628 53.453Z" fill="#5B8C00"/>
<path fill-rule="evenodd" clip-rule="evenodd" d="M68.4431 53.8601C63.9482 59.1276 57.4618 69.724 53.3982 66.0127C50.9354 63.7637 54.2278 53.1124 63.2402 47.3171C70.9062 42.3875 72.9381 48.5926 68.4431 53.8601Z" fill="#7CB305"/>
<path fill-rule="evenodd" clip-rule="evenodd" d="M25.4308 17.3061C27.14 16.1561 29.2905 15.8934 31.2525 16.5218C33.9907 17.3989 38.1461 20.0103 42.2588 27.5058C47.6281 37.292 50.4233 48.0204 49.8708 54.8161C49.5096 59.2603 44.0344 61.1763 40.9715 57.9359C39.5648 56.4476 38.0764 54.1537 36.6202 50.6735C30.7597 36.6688 25.2805 27.8927 24.627 27.0115C22.8836 24.66 21.6371 19.8586 25.4308 17.3061Z" fill="#7CB305"/>
<path fill-rule="evenodd" clip-rule="evenodd" d="M29.3613 22.8921C29.4193 23.5836 28.9057 24.1911 28.2143 24.2491C27.5228 24.3072 26.9153 23.7936 26.8572 23.1021C26.7993 22.4107 27.3128 21.8032 28.0043 21.7451C28.6957 21.6871 29.3032 22.2007 29.3613 22.8921Z" fill="white"/>
<path fill-rule="evenodd" clip-rule="evenodd" d="M40.0331 28.2564C40.0912 28.9478 39.5777 29.5554 38.8862 29.6134C38.1946 29.6715 37.5871 29.1579 37.5291 28.4664C37.4711 27.775 37.9846 27.1675 38.6762 27.1094C39.3676 27.0514 39.9752 27.565 40.0331 28.2564Z" fill="white"/>
<path fill-rule="evenodd" clip-rule="evenodd" d="M38.2445 42.5391C38.311 43.331 37.7229 44.0268 36.931 44.0931C36.1391 44.1596 35.4433 43.5715 35.377 42.7796C35.3105 41.9878 35.8986 41.2921 36.6905 41.2256C37.4823 41.1591 38.178 41.7472 38.2445 42.5391Z" fill="white"/>
<path fill-rule="evenodd" clip-rule="evenodd" d="M71.0231 21.1942C71.0231 22.318 70.1121 23.2291 68.9883 23.2291C67.8644 23.2291 66.9535 22.318 66.9535 21.1942C66.9535 20.0704 67.8644 19.1594 68.9883 19.1594C70.1121 19.1594 71.0231 20.0704 71.0231 21.1942Z" fill="white"/>
<path fill-rule="evenodd" clip-rule="evenodd" d="M54.6422 27.408C54.6422 28.5317 53.7312 29.4428 52.6074 29.4428C51.4836 29.4428 50.5726 28.5317 50.5726 27.408C50.5726 26.2842 51.4836 25.3731 52.6074 25.3731C53.7312 25.3731 54.6422 26.2842 54.6422 27.408Z" fill="white"/>
<path fill-rule="evenodd" clip-rule="evenodd" d="M59.9475 41.2205C59.9475 41.6902 59.5667 42.071 59.097 42.071C58.6274 42.071 58.2466 41.6902 58.2466 41.2205C58.2466 40.7507 58.6274 40.3699 59.097 40.3699C59.5667 40.3699 59.9475 40.7507 59.9475 41.2205Z" fill="white"/>
<path fill-rule="evenodd" clip-rule="evenodd" d="M66.0748 52.0973C66.0748 52.7912 65.5122 53.3537 64.8184 53.3537C64.1244 53.3537 63.562 52.7912 63.562 52.0973C63.562 51.4034 64.1244 50.8409 64.8184 50.8409C65.5122 50.8409 66.0748 51.4034 66.0748 52.0973Z" fill="white"/>
<path d="M36.7284 54.884C36.8455 54.7724 37.0309 54.7768 37.1426 54.8939L37.1962 54.9517L37.2368 54.9967C37.3107 55.0791 37.396 55.1775 37.4918 55.2918C37.7641 55.6165 38.0669 56.0045 38.3926 56.4553C39.3205 57.7402 40.2476 59.2732 41.1123 61.0518C43.58 66.1275 45.06 72.1562 45.06 79.116C45.06 79.2778 44.9288 79.4089 44.767 79.4089C44.6052 79.4089 44.4741 79.2778 44.4741 79.116C44.4741 72.2481 43.0154 66.3063 40.5853 61.308C39.7358 59.5607 38.8262 58.0566 37.9175 56.7984C37.619 56.385 37.3409 56.0269 37.0896 55.7243L37.0428 55.6682C36.9715 55.5832 36.9066 55.5077 36.8485 55.4419L36.7751 55.3596C36.7479 55.3295 36.7289 55.309 36.7186 55.2982C36.6069 55.1812 36.6113 54.9957 36.7284 54.884Z" fill="#253368"/>
<path d="M58.8622 56.9346C58.959 56.805 59.1426 56.7783 59.2722 56.8751C59.4019 56.9719 59.4285 57.1555 59.3317 57.2852C58.2646 58.7143 57.2799 60.2509 56.3743 61.8797C54.46 65.323 52.9799 69.0146 51.8814 72.7064C51.4969 73.9986 51.1876 75.1981 50.9469 76.2741L50.8982 76.4946C50.8407 76.7579 50.791 76.9978 50.7488 77.213L50.7215 77.3538L50.6729 77.6195C50.646 77.779 50.4949 77.8866 50.3353 77.8597C50.1758 77.8329 50.0682 77.6818 50.0951 77.5222L50.1117 77.4279C50.1255 77.3517 50.1423 77.2621 50.1623 77.1594L50.2107 76.9155C50.2578 76.6829 50.3125 76.426 50.3751 76.1462L50.4284 75.911C50.6637 74.8837 50.9591 73.7516 51.3198 72.5393C52.4297 68.8092 53.9253 65.0789 55.8622 61.595C56.7801 59.944 57.7789 58.3855 58.8622 56.9346Z" fill="#253368"/>
<path d="M63.9818 20.3831C64.0939 20.4905 64.1021 20.6658 64.0035 20.783L63.9906 20.7973C63.9849 20.8033 63.9725 20.8164 63.9537 20.8367L63.8817 20.9153L63.8398 20.9618C63.7137 21.1024 63.5671 21.2716 63.4016 21.4696C62.9272 22.0371 62.3979 22.72 61.8274 23.5187C60.1948 25.8045 58.5611 28.5575 57.0357 31.7805C54.4959 37.1468 52.5179 43.2673 51.3191 50.1478C49.8634 58.5028 49.6223 67.63 50.8139 77.5359C50.8332 77.6965 50.7186 77.8424 50.558 77.8617C50.3974 77.8811 50.2515 77.7665 50.2321 77.6058C49.0337 67.6432 49.2763 58.4586 50.7418 50.0473C51.9499 43.1137 53.9442 36.9429 56.5061 31.5299C58.0468 28.2745 59.6982 25.4916 61.3506 23.1782L61.4787 22.9999C61.9881 22.2943 62.4645 21.6806 62.8981 21.1585L62.952 21.0938C63.1078 20.9075 63.2477 20.7454 63.3705 20.6076L63.4036 20.5706C63.4419 20.5278 63.4763 20.4901 63.5065 20.4573L63.5676 20.3919C63.6795 20.2751 63.865 20.2711 63.9818 20.3831Z" fill="#253368"/>
<path d="M38.6229 37.7565C38.7613 37.6727 38.9414 37.7169 39.0253 37.8553L39.0547 37.9046C39.0781 37.9443 39.1057 37.9916 39.1372 38.0464L39.1832 38.1268C39.2618 38.265 39.35 38.4237 39.4473 38.6027L39.5279 38.7518C39.8258 39.3066 40.1524 39.9484 40.5011 40.6755L40.5487 40.7751C41.686 43.1578 42.8227 45.9441 43.8833 49.1101C46.8531 57.9752 48.6598 68.0371 48.7274 79.1142C48.7283 79.276 48.598 79.4079 48.4362 79.4089C48.2744 79.4099 48.1424 79.2795 48.1414 79.1177C48.0742 68.1055 46.2785 58.1047 43.3277 49.2963C42.294 46.2105 41.1881 43.4898 40.0814 41.1567L40.0199 41.0275C39.6417 40.2349 39.2895 39.5433 38.9719 38.9554L38.8763 38.7795C38.7846 38.6121 38.702 38.465 38.6292 38.3385L38.5947 38.2787L38.5242 38.1589C38.4403 38.0206 38.4845 37.8404 38.6229 37.7565Z" fill="#253368"/>
<path fill-rule="evenodd" clip-rule="evenodd" d="M61.1708 93.648H35.8468C34.4779 93.648 33.3579 92.528 33.3579 91.1591V72.6843C33.3579 71.3153 34.4779 70.1954 35.8468 70.1954H61.1708C62.5396 70.1954 63.6597 71.3153 63.6597 72.6843V91.1591C63.6597 92.528 62.5396 93.648 61.1708 93.648Z" fill="#253368"/>
</svg>
