<svg width="200" height="200" viewBox="0 0 200 200" fill="none" xmlns="http://www.w3.org/2000/svg">
<path fill-rule="evenodd" clip-rule="evenodd" d="M88.6719 161.953H112.534V143.203H88.6719V161.953Z" fill="#597EF7"/>
<path fill-rule="evenodd" clip-rule="evenodd" d="M126.994 168.373H75.007C72.8888 168.373 71.1719 166.656 71.1719 164.538C71.1719 162.42 72.8888 160.703 75.007 160.703H126.994C129.112 160.703 130.829 162.42 130.829 164.538C130.829 166.656 129.112 168.373 126.994 168.373Z" fill="#597EF7"/>
<path fill-rule="evenodd" clip-rule="evenodd" d="M180.777 144.421H19.2874C15.323 144.421 12.1094 141.207 12.1094 137.243V38.8187C12.1094 34.8543 15.323 31.6406 19.2874 31.6406H180.777C184.742 31.6406 187.955 34.8543 187.955 38.8187V137.243C187.955 141.207 184.742 144.421 180.777 144.421Z" fill="#253368"/>
</svg>
