<svg width="300" height="300" viewBox="0 0 300 300" fill="none" xmlns="http://www.w3.org/2000/svg">
<path fill-rule="evenodd" clip-rule="evenodd" d="M30.6799 223.184C29.0198 223.184 27.7116 221.77 27.8408 220.115L38.6484 81.6433H49.005L33.7486 220.647C33.5899 222.091 32.3704 223.184 30.9177 223.184" fill="#FFC53D"/>
<path fill-rule="evenodd" clip-rule="evenodd" d="M269.285 223.184C270.945 223.184 272.253 221.77 272.124 220.115L261.317 81.6433H250.96L266.216 220.647C266.375 222.091 267.595 223.184 269.047 223.184" fill="#FFC53D"/>
<path fill-rule="evenodd" clip-rule="evenodd" d="M267.442 81.6433H32.5231C31.6703 81.6433 30.8722 81.2233 30.3895 80.521C29.2085 78.8032 30.4383 76.4649 32.5231 76.4649H267.442C269.526 76.4649 270.757 78.8032 269.576 80.521C269.093 81.2233 268.295 81.6433 267.442 81.6433Z" fill="#FFC53D"/>
<path fill-rule="evenodd" clip-rule="evenodd" d="M261.662 85.0955H38.3033L38.6482 81.6434H261.316L261.662 85.0955Z" fill="#D48806"/>
</svg>
