<svg width="160" height="160" viewBox="0 0 160 160" fill="none" xmlns="http://www.w3.org/2000/svg">
<circle cx="80" cy="80" r="80" fill="#483D04"/>
<mask id="mask0_310_4756" style="mask-type:alpha" maskUnits="userSpaceOnUse" x="5" y="5" width="150" height="150">
<circle cx="80" cy="80" r="75" fill="#D9D9D9"/>
</mask>
<g mask="url(#mask0_310_4756)">
<path fill-rule="evenodd" clip-rule="evenodd" d="M161.328 203.692C168.807 200.153 172.22 191.391 169.109 183.725L140.918 114.291C136.772 104.078 124.894 99.4499 114.932 104.165C105.087 108.825 101.09 120.737 106.134 130.39L140.83 196.815C144.707 204.239 153.758 207.275 161.328 203.692Z" fill="#FFC999"/>
<path fill-rule="evenodd" clip-rule="evenodd" d="M127.143 173.04L160.224 157.381L140.057 112.734C135.642 102.96 124.07 98.7082 114.378 103.296C104.686 107.883 100.639 119.528 105.399 129.137L127.143 173.04Z" fill="#E6B800"/>
<path fill-rule="evenodd" clip-rule="evenodd" d="M64.44 90.3237L66.3034 58.6886L94.782 60.1292L96.4578 90.3798C96.9648 99.5167 89.7339 107.223 80.5848 107.301C71.304 107.38 63.894 99.5886 64.44 90.3237Z" fill="#FFC999"/>
<path fill-rule="evenodd" clip-rule="evenodd" d="M100.327 49.1298C101.975 47.3505 104.582 46.8069 106.483 48.7679C109.546 51.9281 107.068 64.0108 99.0292 64.7091C95.9604 64.3593 97.7568 51.9074 100.327 49.1298Z" fill="#FFC999"/>
<path d="M103.934 50.6211C104.17 50.5739 104.4 50.7272 104.448 50.9635C104.49 51.1762 104.37 51.3836 104.173 51.4574L104.105 51.4768C104.05 51.4879 103.927 51.5279 103.758 51.6107C103.464 51.7553 103.167 51.9707 102.886 52.272C102.277 52.9267 101.837 53.8869 101.649 55.2221C101.603 55.542 101.636 55.6178 101.927 55.7726L102.129 55.8766C102.705 56.174 103.009 56.5139 103.081 57.1783C103.198 58.2523 102.774 59.1002 102.013 59.7162C101.619 60.0352 101.227 60.2272 100.95 60.3187C100.721 60.3943 100.474 60.27 100.399 60.0412C100.323 59.8124 100.448 59.5657 100.676 59.4901L100.791 59.4446C100.826 59.4296 100.866 59.4112 100.91 59.3894C101.099 59.2968 101.289 59.1798 101.464 59.038C102.01 58.5959 102.296 58.025 102.214 57.2727C102.182 56.9817 102.091 56.8545 101.824 56.7034L101.66 56.6166C101.649 56.6112 101.636 56.6048 101.617 56.595C100.951 56.2567 100.673 55.887 100.784 55.1001C100.997 53.5925 101.513 52.4665 102.248 51.6776C102.861 51.0184 103.488 50.7104 103.934 50.6211Z" fill="#DD936F"/>
<path fill-rule="evenodd" clip-rule="evenodd" d="M58.707 49.1298C57.0592 47.3505 54.4523 46.8069 52.5511 48.7679C49.4884 51.9281 51.9661 64.0108 60.005 64.7091C63.0738 64.3593 61.2773 51.9074 58.707 49.1298Z" fill="#FFC999"/>
<path d="M55.1 50.3924C55.5466 50.4816 56.1733 50.7896 56.7867 51.4488C57.5208 52.2378 58.037 53.3637 58.2497 54.8713C58.3539 55.6091 58.1163 55.9801 57.5375 56.3024L57.3053 56.4232C56.9641 56.5994 56.8557 56.7206 56.8206 57.0441C56.7386 57.7963 57.0244 58.3672 57.5704 58.8092C57.7455 58.951 57.9348 59.068 58.1239 59.1607L58.2428 59.2158C58.2945 59.2384 58.3339 59.2535 58.3578 59.2614C58.5867 59.3369 58.7109 59.5836 58.6354 59.8125C58.5598 60.0413 58.3131 60.1655 58.0843 60.09C57.8071 59.9985 57.4153 59.8065 57.0213 59.4874C56.2605 58.8714 55.836 58.0236 55.9531 56.9497C56.0197 56.3363 56.2838 55.9994 56.7768 55.7174L57.022 55.5883C57.3911 55.4008 57.4349 55.3424 57.3856 54.9932C57.1973 53.6582 56.757 52.698 56.1478 52.0432C55.8676 51.742 55.5703 51.5266 55.2761 51.382C55.1076 51.2991 54.9844 51.2592 54.929 51.2481C54.6927 51.2009 54.5395 50.9711 54.5867 50.7348C54.6292 50.5221 54.8196 50.3767 55.0295 50.3841L55.1 50.3924Z" fill="#DD936F"/>
<path fill-rule="evenodd" clip-rule="evenodd" d="M100.817 53.5654C100.817 75.3249 92.4675 84.4485 79.656 84.4485C67.817 84.4485 58.4948 73.9258 58.0378 52.8792C57.6892 36.8222 61.6136 25.2294 79.9156 25.2294C99.1316 25.2294 100.817 37.5047 100.817 53.5654Z" fill="#FFC999"/>
<path d="M68.9541 80.8174C69.0947 80.6217 69.3673 80.5771 69.563 80.7177C72.4162 82.7678 76.4828 83.8983 80.5136 83.8983C84.7727 83.8983 87.8753 82.9545 90.9975 80.7289C91.1938 80.5891 91.4662 80.6347 91.6061 80.831C91.7459 81.0272 91.7003 81.2997 91.504 81.4395C88.2302 83.7731 84.9502 84.771 80.5136 84.771C76.3106 84.771 72.0665 83.5911 69.0538 81.4264C68.8581 81.2857 68.8135 81.0131 68.9541 80.8174Z" fill="#DD936F"/>
<path fill-rule="evenodd" clip-rule="evenodd" d="M61.2974 45.4048C59.5704 47.8874 58.9074 51.9239 58.6539 54.5772C58.6174 54.944 58.0909 54.9623 58.0311 54.5979C57.3584 50.4895 56.2713 40.3958 57.5802 34.5775C59.6387 25.4271 70.5977 17.9354 77.118 17.5917C79.7712 17.4516 84.3464 17.649 89.1507 21.7672C94.1707 26.0694 97.1689 25.5904 100.589 31.8328C102.919 36.0863 101.617 48.1336 100.979 53.8727C100.93 54.3115 100.297 54.3249 100.232 53.8886C99.8318 51.2317 99.0299 47.584 97.5004 45.7473C97.0653 42.219 96.7606 35.338 96.7606 35.338C88.868 33.4501 70.7342 34.235 61.6984 35.9498L61.2974 45.4048Z" fill="#253368"/>
<path d="M84.8777 44.9264C87.3977 44.5495 90.0093 44.4364 92.4769 44.7503C93.0775 44.8267 93.6604 44.9281 94.2239 45.0561C94.8803 45.2052 95.2916 45.8581 95.1425 46.5145C94.9934 47.1709 94.3404 47.5821 93.684 47.4331C93.1995 47.323 92.6939 47.235 92.1693 47.1683C89.955 46.8867 87.5551 46.9906 85.2382 47.3371C84.9502 47.3802 84.6782 47.425 84.424 47.4705L83.94 47.562C83.715 47.6069 83.5609 47.641 83.4866 47.6588C82.8321 47.8159 82.1742 47.4126 82.0171 46.7581C81.86 46.1036 82.2633 45.4457 82.9178 45.2886L83.1329 45.24C83.2241 45.2203 83.3344 45.1973 83.4626 45.1717C83.8828 45.0878 84.3573 45.0042 84.8777 44.9264Z" fill="#253368"/>
<path d="M74.9805 46.5515C75.167 46.4461 75.398 46.4928 75.5303 46.6518L75.575 46.7167L77.8053 50.663C77.8306 50.7077 77.8477 50.7564 77.856 50.8067L77.8618 50.8831L77.6949 64.1106L81.3731 64.1218C81.59 64.1224 81.7694 64.2812 81.8026 64.4886L81.8081 64.5594C81.8075 64.7763 81.6487 64.9557 81.4413 64.9889L81.3705 64.9944L77.2524 64.9822C77.034 64.9816 76.8539 64.8207 76.8223 64.6117L76.8174 64.5404L76.9872 50.9904L74.8153 47.146C74.7099 46.9595 74.7567 46.7285 74.9157 46.5962L74.9805 46.5515Z" fill="#DD936F"/>
<path d="M65.9011 43.3848C67.9313 43.0934 70.0492 43.458 72.118 44.2342C73.0575 44.5867 73.7799 44.9424 74.208 45.1921C74.7894 45.5312 74.9857 46.2775 74.6466 46.8589C74.3074 47.4403 73.5611 47.6367 72.9797 47.2975L72.7357 47.1659C72.6779 47.1362 72.6119 47.1029 72.5381 47.0665C72.1586 46.8797 71.7294 46.6918 71.2617 46.5164C69.5432 45.8716 67.8103 45.5733 66.2475 45.7976C65.5568 45.8968 64.915 46.0974 64.325 46.408C63.7294 46.7215 62.9924 46.4928 62.6789 45.8972C62.3653 45.3016 62.594 44.5646 63.1897 44.251C64.0342 43.8065 64.9428 43.5224 65.9011 43.3848Z" fill="#253368"/>
<path d="M82.9162 50.8629C83.3981 50.8629 83.7888 51.2536 83.7888 51.7355C83.7888 52.1853 83.4485 52.5556 83.0113 52.603L82.9162 52.6081H75.3672C74.8853 52.6081 74.4946 52.2175 74.4946 51.7355C74.4946 51.2857 74.835 50.9154 75.2722 50.868L75.3672 50.8629H82.9162Z" fill="#253368"/>
<path d="M76.0056 54.3861C77.9389 53.4199 79.8892 53.4631 81.6506 54.1115C82.1269 54.2868 82.4813 54.4665 82.6925 54.5986C83.1012 54.8541 83.2253 55.3925 82.9698 55.8011C82.7144 56.2098 82.176 56.3339 81.7673 56.0784C81.6521 56.0064 81.403 55.8801 81.0477 55.7493C79.7023 55.254 78.2378 55.2215 76.7859 55.9472C76.3548 56.1627 75.8307 55.9879 75.6152 55.5568C75.3997 55.1257 75.5746 54.6016 76.0056 54.3861Z" fill="#253368"/>
<path fill-rule="evenodd" clip-rule="evenodd" d="M74.7489 50.279L61.5377 50.073C60.6151 50.0584 59.8558 50.7909 59.8473 51.7135C59.8326 53.4356 59.8875 56.196 60.297 58.5653C60.782 61.3599 63.261 63.1039 66.0909 63.2794C69.6277 63.4988 72.8026 63.5512 74.4369 61.7401C76.928 58.9809 76.4003 54.3655 76.3857 51.9255C76.3808 51.0297 75.6447 50.2924 74.7489 50.279Z" fill="white"/>
<path d="M74.7533 49.9884L61.5423 49.7824C60.4574 49.7652 59.5667 50.628 59.5567 51.7108C59.5356 54.1874 59.6622 56.5991 60.0106 58.6148C60.5011 61.4403 62.9831 63.3779 66.073 63.5695L67.0275 63.6224C71.217 63.8237 73.2707 63.4664 74.6528 61.9349C75.7385 60.7322 76.3412 59.1419 76.5911 57.1789L76.6421 56.7335C76.7317 55.8496 76.7484 54.9859 76.7213 53.754L76.6768 51.9829C76.6767 51.9637 76.6766 51.9441 76.6764 51.9238C76.6707 50.8707 75.8081 50.0041 74.7533 49.9884ZM61.5331 50.3637L74.7444 50.5696C75.4836 50.5807 76.0911 51.191 76.0951 51.9271L76.1187 52.9691L76.14 53.7607C76.1711 55.1736 76.1439 56.0878 76.0144 57.1055C75.7782 58.9606 75.2165 60.4429 74.2212 61.5453C72.9078 63.0008 70.7613 63.2778 66.109 62.9893C63.2731 62.8134 61.0248 61.0583 60.5834 58.5156C60.2422 56.5413 60.1172 54.1605 60.138 51.7159C60.145 50.9568 60.7698 50.3516 61.5331 50.3637Z" fill="#253368"/>
<path d="M76.1722 49.5195C76.6541 49.5144 77.0489 49.901 77.054 50.3829C77.0587 50.8327 76.7223 51.2066 76.2856 51.2585L76.1906 51.2647L59.8069 51.4377C59.325 51.4428 58.9302 51.0563 58.9251 50.5744C58.9204 50.1246 59.2568 49.7507 59.6935 49.6987L59.7885 49.6926L76.1722 49.5195Z" fill="#253368"/>
<path fill-rule="evenodd" clip-rule="evenodd" d="M71.0771 55.8532C71.0771 57.1792 70.2581 58.2553 69.2478 58.2553C68.2362 58.2553 67.4172 57.1792 67.4172 55.8532C67.4172 54.526 68.2362 53.451 69.2478 53.451C70.2581 53.451 71.0771 54.526 71.0771 55.8532Z" fill="#253368"/>
<path fill-rule="evenodd" clip-rule="evenodd" d="M97.1684 50.279L83.9559 50.073C83.0333 50.0584 82.2753 50.7909 82.2667 51.7135C82.2521 53.4356 82.3058 56.196 82.7165 58.5653C83.2003 61.3599 85.6792 63.1039 88.5104 63.2794C92.046 63.4988 95.2221 63.5512 96.8564 61.7401C99.3463 58.9809 98.8198 54.3655 98.8052 51.9255C98.8003 51.0297 98.0642 50.2924 97.1684 50.279Z" fill="white"/>
<path d="M97.1728 49.9884L83.9605 49.7824C82.8758 49.7652 81.9861 50.6278 81.9761 51.7108C81.955 54.1961 82.0809 56.6007 82.4301 58.6149C82.9193 61.4403 85.4013 63.3779 88.4925 63.5695L89.4468 63.6224C93.6356 63.8237 95.6902 63.4663 97.0722 61.9349C98.1575 60.7322 98.76 59.1418 99.01 57.1789C99.144 56.1268 99.172 55.1904 99.1406 53.7526L99.0968 52.0392C99.0964 52.0021 99.0961 51.9644 99.0959 51.9238C99.0902 50.8707 98.2276 50.0041 97.1728 49.9884ZM83.9514 50.3637L97.1639 50.5696C97.9031 50.5807 98.5105 51.191 98.5145 51.9271L98.5207 52.3486L98.5593 53.7593C98.5903 55.1728 98.563 56.0873 98.4333 57.1054C98.197 58.9606 97.6355 60.4429 96.6406 61.5454C95.3273 63.0008 93.1798 63.2779 88.5284 62.9893C85.6913 62.8134 83.4431 61.0584 83.0029 58.5157C82.6609 56.5428 82.5366 54.1691 82.5575 51.7159C82.5645 50.9565 83.1884 50.3516 83.9514 50.3637Z" fill="#253368"/>
<path fill-rule="evenodd" clip-rule="evenodd" d="M91.4377 55.8532C91.4377 57.1792 90.6187 58.2553 89.6084 58.2553C88.5968 58.2553 87.7778 57.1792 87.7778 55.8532C87.7778 54.526 88.5968 53.451 89.6084 53.451C90.6187 53.451 91.4377 54.526 91.4377 55.8532Z" fill="#253368"/>
<path d="M98.5916 49.5195C99.0735 49.5144 99.4683 49.901 99.4734 50.3829C99.4781 50.8327 99.1417 51.2066 98.705 51.2585L98.61 51.2647L82.2264 51.4377C81.7445 51.4428 81.3497 51.0563 81.3445 50.5744C81.3398 50.1246 81.6762 49.7507 82.1129 49.6987L82.2079 49.6926L98.5916 49.5195Z" fill="#253368"/>
<path d="M72.8613 68.1977C72.9925 67.8878 73.3501 67.7428 73.66 67.874L73.8209 67.937C73.869 67.9549 73.9253 67.9753 73.9895 67.9979L74.0918 68.0333C74.4593 68.1588 74.8855 68.2848 75.3644 68.4028C78.6615 69.2148 82.3375 69.2148 86.0243 67.8631C86.3402 67.7472 86.6903 67.9094 86.8062 68.2254C86.922 68.5414 86.7598 68.8915 86.4438 69.0073C82.5039 70.4519 78.5879 70.4519 75.073 69.5862C74.5585 69.4594 74.0983 69.3233 73.698 69.1867L73.4776 69.1092C73.3469 69.0619 73.2488 69.0234 73.1851 68.9964C72.8751 68.8652 72.7302 68.5077 72.8613 68.1977Z" fill="#FF7946"/>
<path d="M82.5445 73.2692C82.7808 73.222 83.0106 73.3753 83.0578 73.6116C83.105 73.8479 82.9517 74.0777 82.7154 74.1249C82.3853 74.1909 82.0371 74.2406 81.673 74.2752C80.596 74.3778 79.4512 74.3465 78.3492 74.2326L78.1358 74.2094L77.6145 74.1413C77.5767 74.1356 77.5471 74.1309 77.5261 74.1274C77.2884 74.0878 77.1278 73.8631 77.1674 73.6254C77.207 73.3877 77.4317 73.2271 77.6694 73.2666L77.9197 73.3036C78.0588 73.3223 78.2338 73.3434 78.4389 73.3646C79.4883 73.4731 80.5787 73.5028 81.5903 73.4065C81.9259 73.3746 82.2448 73.329 82.5445 73.2692Z" fill="#DD936F"/>
<path fill-rule="evenodd" clip-rule="evenodd" d="M-2.61263 203.389C-10.0897 199.849 -13.5046 191.088 -10.3919 183.422L17.799 113.986C21.9452 103.774 33.8231 99.1465 43.784 103.862C53.629 108.521 57.6253 120.433 52.5833 130.087L17.8867 196.511C14.0087 203.936 4.95825 206.972 -2.61263 203.389Z" fill="#FFC999"/>
<path fill-rule="evenodd" clip-rule="evenodd" d="M31.5739 173.04L-1.50781 157.381L18.6601 112.734C23.0756 102.96 34.6464 98.7082 44.3391 103.296C54.0306 107.883 58.0781 119.528 53.3177 129.137L31.5739 173.04Z" fill="#E6B800"/>
<path fill-rule="evenodd" clip-rule="evenodd" d="M118.318 199.407L132.959 105.612C130.864 103.587 118.183 97.7153 99.1607 94.4027C93.7348 93.457 85.7093 99.2753 79.9446 99.5495C76.0458 99.736 61.6463 93.6934 58.3813 94.1736C38.7436 97.0608 35.0715 100.599 26.2002 104.581L42.8252 196.662C42.8252 196.662 34.4389 209.274 44.5485 214.11C112.388 214.11 115.992 214.556 116.115 214.631C116.128 214.64 116.139 214.638 116.154 214.636C116.735 214.55 126.553 212.218 118.318 199.407Z" fill="#E6B800"/>
<path fill-rule="evenodd" clip-rule="evenodd" d="M64.039 86.6489L57.2871 94.9096L67.8183 111.236L80.3434 98.7109L64.039 86.6489Z" fill="#E6B800"/>
<path d="M56.9542 94.3991C57.2102 94.2317 57.5456 94.2818 57.7429 94.5039L57.7977 94.5756L67.8741 109.987L79.9235 98.3716C80.1437 98.1593 80.4826 98.1458 80.7179 98.3272L80.7851 98.3874C80.9975 98.6077 81.0109 98.9465 80.8296 99.1818L80.7694 99.249L68.1906 111.376C67.9366 111.62 67.5348 111.596 67.31 111.339L67.2577 111.27L56.7776 95.2426C56.5935 94.9609 56.6725 94.5833 56.9542 94.3991Z" fill="#253368"/>
<path fill-rule="evenodd" clip-rule="evenodd" d="M96.3972 86.6489L101.93 94.9096L92.6179 111.236L80.0928 98.7109L96.3972 86.6489Z" fill="#E6B800"/>
<path d="M101.402 94.6043C101.571 94.3129 101.943 94.2131 102.235 94.3815C102.502 94.5359 102.608 94.8619 102.494 95.1396L102.457 95.214L93.1962 111.242C93.0133 111.558 92.601 111.639 92.3144 111.433L92.2456 111.376L79.6669 99.2491C79.4246 99.0155 79.4176 98.6297 79.6511 98.3874C79.8635 98.1671 80.2016 98.1413 80.4434 98.3139L80.5128 98.3716L92.5304 109.958L101.402 94.6043Z" fill="#253368"/>
<path fill-rule="evenodd" clip-rule="evenodd" d="M83.473 114.204C83.4547 115.289 84.175 116.18 85.0781 116.195C85.9836 116.21 86.7307 115.342 86.7478 114.256C86.7661 113.171 86.0458 112.279 85.1427 112.265C84.2371 112.25 83.4901 113.118 83.473 114.204Z" fill="white"/>
<path fill-rule="evenodd" clip-rule="evenodd" d="M83.473 134.405C83.4547 135.489 84.175 136.381 85.0781 136.396C85.9836 136.411 86.7307 135.543 86.7478 134.457C86.7661 133.372 86.0458 132.48 85.1427 132.466C84.2371 132.451 83.4901 133.319 83.473 134.405Z" fill="white"/>
<path fill-rule="evenodd" clip-rule="evenodd" d="M83.473 156C83.4547 157.086 84.175 157.977 85.0781 157.992C85.9836 158.007 86.7307 157.139 86.7478 156.053C86.7661 154.968 86.0458 154.076 85.1427 154.061C84.2371 154.047 83.4901 154.916 83.473 156Z" fill="white"/>
<path d="M80.4207 102.595C80.7292 102.595 80.9841 102.824 81.0245 103.122L81.03 103.204V213.201C81.03 213.538 80.7572 213.811 80.4207 213.811C80.1122 213.811 79.8572 213.582 79.8168 213.284L79.8113 213.201V103.204C79.8113 102.868 80.0841 102.595 80.4207 102.595Z" fill="#253368"/>
<path d="M67.9829 128.449H45.3263C44.9843 128.449 44.7093 128.731 44.717 129.073L45.1205 146.743C45.1254 146.956 45.2408 147.151 45.425 147.257L57.4675 154.211C57.6748 154.331 57.9331 154.318 58.1276 154.179L68.3383 146.847C68.4977 146.732 68.5923 146.548 68.5923 146.352V129.059C68.5923 128.722 68.3194 128.449 67.9829 128.449ZM67.3729 129.668V146.039L57.7358 152.959L46.3308 146.373L45.9497 129.668H67.3729Z" fill="#253368"/>
<path d="M29.9199 123.311C30.2247 123.264 30.512 123.451 30.5978 123.739L30.6186 123.836L31.5235 129.534C31.8426 131.526 32.1838 133.639 32.5446 135.856L33.1003 139.256C34.8881 150.154 36.7399 161.051 38.5702 171.304L39.357 175.678C39.9458 178.926 40.5232 182.051 41.0872 185.041L41.6637 188.073C42.2693 191.233 42.8559 194.213 43.4215 196.998C43.4589 197.182 43.4092 197.373 43.287 197.515C39.0989 202.402 39.6545 206.955 43.1299 211.035C43.7417 211.753 44.3984 212.392 45.0544 212.943C45.226 213.087 45.3881 213.217 45.5382 213.332L45.7636 213.501H118.874L118.944 213.369L118.999 213.261C119.222 212.814 119.446 212.305 119.656 211.741C120.822 208.605 121.039 205.331 119.725 202.29C119.28 201.259 118.662 200.276 117.858 199.349C117.74 199.212 117.688 199.03 117.717 198.851L118.58 193.534C121.144 177.67 123.477 162.606 125.55 148.699L126.651 141.264C126.848 139.919 127.038 138.617 127.221 137.358L128.216 130.438L128.696 127.033C128.742 126.699 129.05 126.467 129.383 126.513C129.689 126.555 129.909 126.817 129.909 127.117L129.883 127.341L129.223 132.012L128.204 139.065C127.902 141.135 127.581 143.316 127.243 145.603L126.291 151.989C124.178 166.07 121.808 181.283 119.21 197.268L118.964 198.771L119.039 198.859C119.715 199.687 120.264 200.557 120.69 201.465L120.844 201.807C122.302 205.18 122.064 208.762 120.798 212.166C120.573 212.773 120.331 213.322 120.088 213.807C119.941 214.101 119.824 214.311 119.754 214.427C119.659 214.583 119.5 214.687 119.323 214.713L119.233 214.72H45.5701C45.449 214.72 45.3306 214.684 45.2301 214.616L45.0289 214.474L44.9568 214.42C44.749 214.266 44.5184 214.084 44.2708 213.876C43.5655 213.284 42.8608 212.598 42.2021 211.825C38.488 207.465 37.7776 202.434 41.9555 197.212L42.1683 196.951L41.673 194.484C41.2865 192.542 40.891 190.515 40.487 188.408L40.1006 186.382C39.329 182.315 38.5318 177.988 37.7136 173.434L37.0269 169.587C35.4223 160.542 33.8055 151.035 32.2338 141.498L30.944 133.601L29.4119 124.007C29.36 123.675 29.5874 123.363 29.9199 123.311Z" fill="#253368"/>
</g>
<g filter="url(#filter0_f_310_4756)">
<circle cx="130" cy="20" r="10" fill="#05F693"/>
</g>
<g filter="url(#filter1_d_310_4756)">
<circle cx="130" cy="20" r="10" fill="#05F693"/>
</g>
<defs>
<filter id="filter0_f_310_4756" x="116" y="6" width="28" height="28" filterUnits="userSpaceOnUse" color-interpolation-filters="sRGB">
<feFlood flood-opacity="0" result="BackgroundImageFix"/>
<feBlend mode="normal" in="SourceGraphic" in2="BackgroundImageFix" result="shape"/>
<feGaussianBlur stdDeviation="2" result="effect1_foregroundBlur_310_4756"/>
</filter>
<filter id="filter1_d_310_4756" x="116" y="10" width="28" height="28" filterUnits="userSpaceOnUse" color-interpolation-filters="sRGB">
<feFlood flood-opacity="0" result="BackgroundImageFix"/>
<feColorMatrix in="SourceAlpha" type="matrix" values="0 0 0 0 0 0 0 0 0 0 0 0 0 0 0 0 0 0 127 0" result="hardAlpha"/>
<feOffset dy="4"/>
<feGaussianBlur stdDeviation="2"/>
<feComposite in2="hardAlpha" operator="out"/>
<feColorMatrix type="matrix" values="0 0 0 0 0 0 0 0 0 0 0 0 0 0 0 0 0 0 0.25 0"/>
<feBlend mode="normal" in2="BackgroundImageFix" result="effect1_dropShadow_310_4756"/>
<feBlend mode="normal" in="SourceGraphic" in2="effect1_dropShadow_310_4756" result="shape"/>
</filter>
</defs>
</svg>
