<svg width="843" height="1686" viewBox="0 0 843 1686" fill="none" xmlns="http://www.w3.org/2000/svg">
<circle cx="399.5" cy="526.5" r="193.5" fill="#D9D9D9"/>
<circle cx="399" cy="527" r="225.5" stroke="#01BF71" stroke-opacity="0.6"/>
<circle cx="399.5" cy="526.5" r="245.955" stroke="#01BF71" stroke-opacity="0.3" stroke-width="1.09071"/>
<circle cx="399" cy="527" r="200" fill="#01BF71" fill-opacity="0.6"/>
<path fill-rule="evenodd" clip-rule="evenodd" d="M374.06 454.382L379.12 390.364L436.761 394.439L438.93 455.794C439.584 474.327 424.623 489.649 406.08 489.435C387.276 489.217 372.578 473.129 374.06 454.382Z" fill="#FFC999"/>
<path fill-rule="evenodd" clip-rule="evenodd" d="M364.255 383.398C364.255 383.398 355.507 374.195 351.743 380.31C347.979 386.428 354.304 408.451 363.862 409.098C376.625 409.96 364.255 383.398 364.255 383.398Z" fill="#FFC999"/>
<path fill-rule="evenodd" clip-rule="evenodd" d="M419.431 440.13C419.431 440.13 400.548 455.341 375.821 439.903C358.026 428.794 356.152 389.093 359.847 360C361.936 343.537 369.609 334.735 385.719 329.995C401.832 325.256 445.4 325.466 445.26 373.964C445.106 427.984 419.431 440.13 419.431 440.13Z" fill="#FFC999"/>
<path d="M387.662 367.902C388.084 367.799 388.508 368.018 388.679 368.401L388.73 368.552L391.237 378.828C391.258 378.913 391.266 379.001 391.261 379.088L391.244 379.218L385.73 405.765L396.281 405.951C396.721 405.958 397.08 406.285 397.141 406.706L397.15 406.85C397.142 407.289 396.815 407.648 396.394 407.71L396.251 407.719L384.633 407.516C384.129 407.507 383.746 407.084 383.765 406.599L383.783 406.452L389.471 379.054L387.012 368.971C386.91 368.549 387.128 368.124 387.511 367.954L387.662 367.902Z" fill="#DD936F"/>
<path d="M404.29 413.686C404.952 413.521 405.622 413.924 405.786 414.586C405.951 415.248 405.548 415.918 404.886 416.083L404.471 416.176C404.349 416.202 404.206 416.231 404.044 416.263C403.381 416.392 402.607 416.521 401.727 416.64C396.757 417.317 390.829 417.433 384.187 416.636C383.509 416.555 383.026 415.94 383.108 415.263C383.189 414.586 383.803 414.103 384.481 414.184C390.904 414.954 396.623 414.842 401.394 414.193C402.06 414.102 402.659 414.007 403.188 413.911L403.949 413.762C404.108 413.729 404.222 413.703 404.29 413.686Z" fill="#FF7946"/>
<path fill-rule="evenodd" clip-rule="evenodd" d="M439.575 394.707L449.17 376.097C449.17 376.097 455.364 349.205 449.217 337.572C439.676 319.521 417.523 319.837 404.414 314.942C391.302 310.045 391.46 305.621 386.12 306.318C380.783 307.014 360.028 321.257 357.598 336.298C355.459 349.521 358.581 383.272 358.581 383.272C358.581 383.272 362.522 353.435 365.461 345.569C375.911 341.296 413.769 341.363 429.531 346.352C429.531 346.352 430.825 356.53 431.561 363.697C439.978 369.812 439.575 394.707 439.575 394.707Z" fill="#253368"/>
<path d="M374.233 438.15C374.596 437.823 375.155 437.853 375.482 438.216C375.663 438.418 376.053 438.795 376.656 439.291C377.678 440.131 378.917 440.974 380.376 441.763C388.707 446.265 399.851 447.061 414.004 441.746C414.461 441.574 414.971 441.806 415.143 442.263C415.314 442.72 415.083 443.23 414.626 443.401C399.991 448.898 388.314 448.063 379.536 443.319C377.973 442.474 376.64 441.567 375.533 440.657C374.859 440.103 374.405 439.664 374.167 439.398C373.84 439.035 373.87 438.476 374.233 438.15Z" fill="#DD936F"/>
<path d="M388.415 377.325L396.958 377.74C397.934 377.787 398.686 378.616 398.639 379.592C398.594 380.502 397.869 381.218 396.98 381.271L396.787 381.272L388.244 380.857C387.268 380.81 386.516 379.981 386.563 379.005C386.608 378.095 387.333 377.379 388.222 377.326L388.415 377.325Z" fill="#253368"/>
<path d="M390.714 382.089C392.472 381.924 394.263 382.338 396.011 383.114C396.886 383.502 397.564 383.893 397.98 384.176C398.788 384.725 398.997 385.824 398.448 386.632C397.9 387.44 396.8 387.65 395.992 387.101C395.739 386.929 395.238 386.64 394.577 386.347C393.334 385.795 392.104 385.511 391.044 385.61C390.328 385.677 389.708 385.917 389.163 386.367L388.934 386.573C388.235 387.255 387.116 387.241 386.434 386.542C385.752 385.843 385.766 384.723 386.465 384.041C387.663 382.873 389.115 382.239 390.714 382.089Z" fill="#253368"/>
<path d="M389.378 423.005L396.343 423.255C396.831 423.272 397.213 423.682 397.195 424.17C397.179 424.609 396.846 424.962 396.424 425.016L396.28 425.022L389.315 424.773C388.827 424.755 388.446 424.345 388.463 423.857C388.479 423.418 388.812 423.065 389.235 423.012L389.378 423.005Z" fill="#DD936F"/>
<path d="M428.596 378.801L442.615 379.221C443.591 379.25 444.358 380.065 444.329 381.041C444.302 381.952 443.59 382.682 442.702 382.751L442.509 382.756L428.491 382.336C427.514 382.307 426.747 381.492 426.776 380.516C426.803 379.605 427.515 378.875 428.403 378.806L428.596 378.801Z" fill="#253368"/>
<path fill-rule="evenodd" clip-rule="evenodd" d="M427.593 377.762L400.833 376.806C398.966 376.74 397.396 378.197 397.344 380.064C397.242 383.551 397.24 389.148 397.976 393.964C398.843 399.644 403.795 403.282 409.524 403.751C416.679 404.339 423.11 404.574 426.496 400.97C431.653 395.48 430.771 386.107 430.843 381.163C430.868 379.35 429.406 377.826 427.593 377.762Z" fill="white"/>
<path d="M427.614 377.174L400.854 376.218C398.658 376.139 396.816 377.856 396.755 380.048C396.609 385.06 396.767 389.955 397.394 394.053C398.27 399.797 403.222 403.826 409.476 404.338L410.779 404.44C419.681 405.091 423.992 404.495 426.926 401.374C429.202 398.95 430.491 395.702 431.066 391.664L431.177 390.82C431.392 389.011 431.455 387.282 431.447 384.675L431.428 381.616C431.428 381.464 431.43 381.322 431.432 381.172C431.461 379.039 429.748 377.249 427.614 377.174ZM400.812 377.395L427.572 378.351C429.067 378.404 430.274 379.665 430.254 381.155L430.249 381.766L430.269 385.244C430.266 387.868 430.176 389.562 429.9 391.498C429.356 395.316 428.154 398.345 426.067 400.567C423.346 403.463 418.984 403.937 409.573 403.164C403.833 402.694 399.347 399.044 398.558 393.875C397.945 389.861 397.789 385.03 397.932 380.081C397.975 378.544 399.268 377.34 400.812 377.395Z" fill="#253368"/>
<path fill-rule="evenodd" clip-rule="evenodd" d="M385.867 375.976L355.571 374.897C354.292 379.283 354.761 396.443 359.831 400.296C366.667 404.193 380.789 403.114 383.108 399.476C386.628 393.956 388.238 383.242 388.347 378.612C388.379 377.199 387.28 376.028 385.867 375.976Z" fill="white"/>
<path d="M385.889 375.388L355.592 374.308C355.322 374.299 355.081 374.473 355.005 374.732C353.145 381.111 354.947 397.324 359.475 400.765C366.325 404.676 380.966 403.932 383.605 399.792C386.653 395.012 388.781 385.198 388.935 378.625C388.975 376.89 387.622 375.451 385.889 375.388ZM355.951 375.792L356.019 375.502L385.846 376.565C386.935 376.605 387.782 377.506 387.758 378.598C387.608 384.975 385.522 394.595 382.612 399.159C380.374 402.669 366.426 403.378 360.123 399.784C356.298 396.872 354.535 382.216 355.951 375.792Z" fill="#253368"/>
<path d="M397.306 375.967L430.506 376.281C431.483 376.29 432.267 377.089 432.258 378.066C432.249 378.977 431.553 379.721 430.666 379.809L430.473 379.817L397.272 379.504C396.296 379.495 395.512 378.695 395.521 377.719C395.53 376.807 396.226 376.063 397.113 375.976L397.306 375.967Z" fill="#253368"/>
<path d="M355.388 373.79L387.877 375.405C388.852 375.454 389.604 376.284 389.555 377.259C389.51 378.17 388.784 378.885 387.894 378.937L387.701 378.938L355.212 377.322C354.237 377.274 353.485 376.444 353.534 375.468C353.579 374.558 354.305 373.843 355.195 373.791L355.388 373.79Z" fill="#253368"/>
<path fill-rule="evenodd" clip-rule="evenodd" d="M443.939 379.642C447.348 376.103 452.653 375.108 456.426 379.158C462.504 385.686 456.992 410.067 440.674 411.154C434.473 410.321 438.62 385.165 443.939 379.642Z" fill="#FFC999"/>
<path d="M450.821 381.844C451.278 381.67 451.789 381.899 451.963 382.355C452.136 382.812 451.907 383.323 451.451 383.496L451.21 383.598C451.06 383.666 450.868 383.758 450.643 383.877C450.014 384.208 449.384 384.613 448.8 385.091C446.804 386.723 445.839 388.742 446.37 391.249C446.514 391.929 446.767 392.253 447.418 392.659L447.821 392.896C449.16 393.665 449.749 394.333 449.878 395.8C450.074 398.002 449.025 399.666 447.23 400.806C446.282 401.408 445.345 401.746 444.688 401.893C444.212 402 443.739 401.7 443.632 401.223C443.526 400.747 443.825 400.274 444.302 400.167L444.478 400.121C444.59 400.089 444.733 400.043 444.902 399.982C445.374 399.812 445.847 399.589 446.282 399.313C447.567 398.498 448.247 397.418 448.117 395.956C448.055 395.253 447.865 394.985 447.149 394.552L446.765 394.328C445.547 393.625 444.924 392.955 444.64 391.616C443.955 388.379 445.217 385.736 447.68 383.722C448.363 383.164 449.091 382.695 449.819 382.312L450.301 382.07C450.517 381.968 450.694 381.893 450.821 381.844Z" fill="#DD936F"/>
<path d="M401.561 363.138L409.797 364.152L412.338 364.444C418.174 365.086 421.941 365.268 423.783 364.92C425.123 364.666 426.415 365.547 426.669 366.888C426.922 368.228 426.041 369.52 424.701 369.773C422.129 370.26 417.942 370.049 411.217 369.29L408.672 368.992L400.981 368.043C399.627 367.883 398.658 366.656 398.818 365.301C398.969 364.026 400.065 363.093 401.323 363.121L401.561 363.138Z" fill="#253368"/>
<path d="M370.463 360.595C374.374 360.338 378.46 361.176 382.49 362.719C384.592 363.524 386.221 364.334 387.187 364.899C388.365 365.587 388.761 367.099 388.073 368.277C387.385 369.455 385.872 369.851 384.694 369.163L384.377 368.987C384.239 368.912 384.068 368.823 383.867 368.721L383.656 368.616C382.779 368.179 381.792 367.741 380.724 367.332C377.303 366.022 373.882 365.32 370.789 365.524C368.641 365.666 366.738 366.244 365.098 367.306C363.953 368.047 362.423 367.72 361.682 366.575C360.941 365.43 361.268 363.901 362.413 363.16C364.8 361.614 367.514 360.79 370.463 360.595Z" fill="#253368"/>
<path d="M409.049 383.648C409.73 383.672 410.263 384.245 410.238 384.926C410.15 387.359 411.75 389.329 413.718 389.4C415.686 389.47 417.422 387.619 417.508 385.187C417.532 384.505 418.104 383.972 418.786 383.996C419.467 384.02 420 384.592 419.976 385.274C419.845 389.001 417.041 391.99 413.63 391.868C410.219 391.746 407.635 388.564 407.77 384.837C407.795 384.156 408.367 383.623 409.049 383.648Z" fill="#5C4E4A"/>
<path d="M371.233 382.298C371.915 382.322 372.448 382.894 372.424 383.576C372.338 386.012 373.937 387.982 375.904 388.05C377.872 388.121 379.609 386.27 379.696 383.836C379.721 383.155 380.293 382.622 380.975 382.647C381.657 382.671 382.189 383.244 382.165 383.925C382.03 387.652 379.227 390.641 375.817 390.519C372.406 390.4 369.824 387.219 369.956 383.489C369.98 382.807 370.552 382.274 371.233 382.298Z" fill="#5C4E4A"/>
<path fill-rule="evenodd" clip-rule="evenodd" d="M261.991 690.25C279.087 695.639 297.373 686.499 303.327 669.593L353.465 527.219C360.647 506.819 349.506 484.522 328.879 478.019C308.247 471.519 286.335 483.398 280.524 504.23L239.969 649.626C235.155 666.889 244.898 684.861 261.991 690.25Z" fill="#FFC999"/>
<path fill-rule="evenodd" clip-rule="evenodd" d="M256.1 589.245L281.079 503.348C287.276 482.624 309.404 471.155 329.908 478.035C350.414 484.916 361.143 507.413 353.583 527.677L323.055 609.514L256.1 589.245Z" fill="#01BF71"/>
<path fill-rule="evenodd" clip-rule="evenodd" d="M321.326 683.541C321.326 683.541 286.74 559.943 316.626 476.516C331.951 472.441 346.337 470.215 362.721 467.435C369.315 466.316 392.612 480.203 400.516 479.835C412.195 479.289 434.497 467.027 445.556 468.534C490.253 474.614 510.354 485.175 510.354 485.175L479.332 680.841C479.332 680.841 496.746 710.843 455.642 720.826C417.621 730.06 355.688 728.591 332.099 716.865C318.355 710.033 316.461 696.405 321.326 683.541Z" fill="#01BF71"/>
<path fill-rule="evenodd" clip-rule="evenodd" d="M372.849 456.478L362.002 467.186L373.62 500.404L400.587 478.811L372.849 456.478Z" fill="#01BF71"/>
<path fill-rule="evenodd" clip-rule="evenodd" d="M398.501 478.761L439.128 451.532L451.717 469.094L427.716 500.176L398.501 478.761Z" fill="#01BF71"/>
<path d="M361.942 466.371C362.532 466.165 363.173 466.434 363.448 466.976L363.514 467.131L374.847 499.677L399.064 478.56C399.453 478.221 400.005 478.163 400.451 478.398L400.612 478.499L427.483 498.463L449.905 469.559C450.285 469.069 450.96 468.943 451.485 469.238L451.637 469.34C452.127 469.72 452.253 470.395 451.957 470.92L451.856 471.072L428.692 500.934C428.318 501.417 427.655 501.547 427.132 501.265L426.98 501.168L399.938 481.075L375.093 502.74C374.478 503.277 373.539 503.074 373.183 502.373L373.116 502.215L361.182 467.943C360.958 467.299 361.298 466.595 361.942 466.371Z" fill="#253368"/>
<path d="M307.145 529.468C307.823 529.544 308.31 530.155 308.234 530.833C306.882 542.868 306.426 556.064 306.783 570.234C307.383 594.102 310.226 619.671 314.592 645.413C316.326 655.64 318.184 665.189 320.042 673.797L320.676 676.697C321.087 678.554 321.476 680.259 321.837 681.801L322.515 684.632C322.578 684.887 322.559 685.155 322.46 685.398L322.265 685.918C322.222 686.038 322.174 686.174 322.122 686.327C321.86 687.098 321.596 687.975 321.35 688.938C320.211 693.398 319.836 697.997 320.672 702.25C321.85 708.239 325.318 712.865 331.676 715.714C332.298 715.993 332.577 716.723 332.298 717.345C332.019 717.968 331.289 718.246 330.666 717.968C323.551 714.78 319.577 709.478 318.249 702.726C317.332 698.061 317.735 693.112 318.957 688.327C319.167 687.505 319.39 686.74 319.615 686.042L319.867 685.291L320.024 684.852L319.432 682.364L318.67 679.048C318.339 677.578 317.99 676 317.628 674.318C315.762 665.675 313.897 656.091 312.157 645.826C307.773 619.977 304.918 594.295 304.314 570.296C303.955 556.02 304.414 542.713 305.78 530.557C305.85 529.936 306.369 529.474 306.977 529.46L307.145 529.468Z" fill="#253368"/>
<path d="M400.047 478.267C400.723 478.363 401.193 478.988 401.098 479.663L400.711 482.548L400.279 485.935C400.129 487.14 399.972 488.421 399.81 489.775L399.688 490.804C398.629 499.746 397.57 509.841 396.582 520.877C392.475 566.729 390.821 613.698 393.032 657.526C394.236 681.407 396.575 703.504 400.167 723.456C400.287 724.127 399.841 724.769 399.17 724.89C398.499 725.011 397.857 724.565 397.736 723.893C394.124 703.83 391.774 681.63 390.565 657.65C388.348 613.692 390.006 566.614 394.122 520.656L394.474 516.792C395.303 507.869 396.174 499.602 397.048 492.108L397.598 487.499C397.794 485.893 397.981 484.404 398.157 483.035L398.498 480.442L398.652 479.318C398.739 478.699 399.272 478.252 399.88 478.255L400.047 478.267Z" fill="#253368"/>
<path fill-rule="evenodd" clip-rule="evenodd" d="M403.976 511.186C403.68 513.365 404.91 515.333 406.727 515.58C408.545 515.827 410.257 514.261 410.553 512.083C410.852 509.902 409.62 507.936 407.802 507.687C405.987 507.44 404.273 509.006 403.976 511.186Z" fill="white"/>
<path fill-rule="evenodd" clip-rule="evenodd" d="M400.573 553.931C400.277 556.111 401.507 558.077 403.324 558.324C405.142 558.571 406.854 557.008 407.15 554.827C407.449 552.646 406.216 550.68 404.399 550.431C402.583 550.184 400.869 551.752 400.573 553.931Z" fill="white"/>
<path fill-rule="evenodd" clip-rule="evenodd" d="M398.222 595.291C397.926 597.469 399.156 599.438 400.973 599.685C402.791 599.932 404.503 598.368 404.801 596.188C405.098 594.007 403.865 592.041 402.048 591.791C400.232 591.544 398.521 593.113 398.222 595.291Z" fill="white"/>
<path fill-rule="evenodd" clip-rule="evenodd" d="M400.076 685.134C400.323 687.319 402 688.925 403.821 688.72C405.643 688.515 406.92 686.573 406.671 684.388C406.426 682.202 404.749 680.599 402.927 680.804C401.106 681.009 399.829 682.948 400.076 685.134Z" fill="white"/>
<path d="M316.606 673.043L485.421 698.128C486.065 698.223 486.509 698.823 486.414 699.466C486.326 700.056 485.815 700.478 485.235 700.471L485.075 700.458L316.259 675.373C315.616 675.278 315.172 674.678 315.267 674.035C315.355 673.445 315.866 673.022 316.446 673.03L316.606 673.043Z" fill="#597EF7"/>
<path d="M351.398 630.056C351.991 630.117 352.436 630.608 352.454 631.188L352.449 631.349L348.018 674.233C347.951 674.88 347.372 675.351 346.725 675.284C346.132 675.222 345.687 674.731 345.668 674.151L345.674 673.991L350.105 631.106C350.166 630.513 350.658 630.068 351.238 630.05L351.398 630.056Z" fill="#597EF7"/>
<path fill-rule="evenodd" clip-rule="evenodd" d="M335.507 643.359C333.585 643.159 332.205 641.287 332.422 639.175C332.639 637.061 334.375 635.51 336.297 635.708C338.218 635.908 339.599 637.782 339.379 639.894C339.162 642.006 337.428 643.559 335.507 643.359Z" fill="white"/>
<path d="M254.931 588.847C255.133 588.255 255.739 587.915 256.336 588.032L256.498 588.076L307.846 605.556C308.492 605.776 308.837 606.478 308.617 607.123C308.416 607.715 307.809 608.054 307.213 607.938L307.05 607.894L255.702 590.414C255.057 590.194 254.711 589.492 254.931 588.847Z" fill="#253368"/>
<path fill-rule="evenodd" clip-rule="evenodd" d="M322.448 628.148C322.448 628.148 296.847 595.219 286.503 594.54C276.16 593.861 258.18 595.866 255.246 601.349C248.331 614.275 249.21 626.752 249.21 626.752L283.508 627.898L322.448 628.148Z" fill="#FFC999"/>
<path d="M274.334 603.723C275.647 603.713 276.917 603.739 278.14 603.801C278.627 603.826 279.003 604.241 278.978 604.729C278.953 605.216 278.538 605.592 278.05 605.567C276.863 605.507 275.627 605.482 274.346 605.491C270.001 605.522 265.336 605.934 260.659 606.602C259.237 606.804 257.898 607.019 256.666 607.236L255.235 607.498L254.157 607.712C253.679 607.814 253.21 607.509 253.108 607.031C253.007 606.554 253.311 606.084 253.789 605.983L254.903 605.761C255.128 605.718 255.368 605.674 255.622 605.627L257.122 605.363C258.156 605.188 259.256 605.016 260.409 604.851C265.159 604.173 269.899 603.754 274.334 603.723Z" fill="#DD936F"/>
<path d="M266.048 612.532C271.005 612.518 274.866 612.682 277.251 613.076C277.733 613.155 278.059 613.61 277.979 614.092C277.9 614.574 277.445 614.9 276.963 614.82C274.817 614.466 271.291 614.303 266.775 614.3L266.053 614.301C263.66 614.308 261.124 614.357 258.556 614.436L255.663 614.538L252.585 614.675C252.097 614.701 251.681 614.327 251.655 613.839C251.63 613.351 252.004 612.935 252.492 612.909L254.946 612.797C255.581 612.771 256.252 612.745 256.951 612.72C259.54 612.629 262.123 612.565 264.586 612.542L266.048 612.532Z" fill="#DD936F"/>
<path d="M250.205 619.615L277.54 620.506C278.028 620.522 278.411 620.931 278.395 621.419C278.381 621.858 278.049 622.212 277.626 622.267L277.483 622.274L250.148 621.382C249.66 621.366 249.277 620.958 249.293 620.47C249.307 620.03 249.64 619.677 250.062 619.622L250.205 619.615Z" fill="#DD936F"/>
<path fill-rule="evenodd" clip-rule="evenodd" d="M307.283 628.898L294.559 664.593L475.96 701.713C494.399 705.627 512.367 693.34 515.409 674.741C518.455 656.139 505.34 638.767 486.617 636.598L307.283 628.898Z" fill="#FFC999"/>
<path fill-rule="evenodd" clip-rule="evenodd" d="M479.786 703.626C497.643 705.167 513.506 692.268 515.639 674.471L533.607 524.601C536.183 503.127 520.458 483.789 498.91 481.929C477.361 480.069 458.557 496.431 457.416 518.029L449.456 668.764C448.51 686.662 461.93 702.085 479.786 703.626Z" fill="#FFC999"/>
<path fill-rule="evenodd" clip-rule="evenodd" d="M523.461 607.801L533.603 524.601C536.223 503.127 520.232 483.789 498.322 481.929C476.413 480.07 457.293 496.432 456.133 518.029L451.56 603.242L523.461 607.801Z" fill="#01BF71"/>
<path fill-rule="evenodd" clip-rule="evenodd" d="M513.117 649.364C517.125 658.138 506.659 663.194 506.659 663.194C506.659 663.194 508.017 670.556 497.573 670.993C487.128 671.433 442.404 671.105 442.404 671.105L439.408 632.142L457.042 631.527C457.042 631.527 469.84 620.574 476.375 616.365C482.912 612.155 499.237 614.34 507.923 610.596C516.609 606.852 511.633 623.249 491.304 624.997C523.114 626.761 524.784 621.137 525.653 629.45C526.09 633.624 519.118 636.363 519.118 636.363C519.118 636.363 523.238 644.733 513.117 649.364Z" fill="#FFC999"/>
<path d="M495.175 621.419L496.686 621.551C497.885 621.658 499.222 621.782 500.661 621.922C504.774 622.321 508.888 622.766 512.729 623.244L514.515 623.472C518.013 623.929 521.053 624.392 523.522 624.857C524.001 624.947 524.317 625.41 524.227 625.889C524.136 626.369 523.674 626.685 523.194 626.595L521.93 626.365C519.308 625.907 516.129 625.45 512.51 624.999C509.324 624.602 505.947 624.228 502.538 623.884L499.642 623.6L495.028 623.181C494.542 623.141 494.18 622.713 494.221 622.227C494.261 621.74 494.689 621.379 495.175 621.419Z" fill="#DD936F"/>
<path fill-rule="evenodd" clip-rule="evenodd" d="M454.002 669.787L459.341 632.272L272.336 625.495C253.487 625.342 238.335 640.97 239.066 659.804C239.797 678.638 256.117 693.042 274.897 691.427L454.002 669.787Z" fill="#FFC999"/>
<path d="M511.424 608.665C513.04 607.71 514.455 608.207 514.606 609.889C514.709 611.041 514.182 612.709 513.192 614.446C510.773 618.691 506.482 622.161 501.303 623.205C500.825 623.301 500.358 622.991 500.262 622.513C500.165 622.034 500.475 621.568 500.954 621.471C505.593 620.536 509.475 617.398 511.656 613.571C512.42 612.23 512.841 610.978 512.851 610.224L512.836 609.909C512.824 609.844 512.757 609.932 512.325 610.187C509.793 611.686 503.794 612.93 494.862 614.098L492.797 614.36C491.395 614.533 489.936 614.702 488.39 614.874L480.87 615.67C478.65 615.902 475.621 617.457 472.037 620.089C470.352 621.327 468.577 622.779 466.744 624.399C464.539 626.349 462.365 628.439 460.317 630.53L459.102 631.787L457.678 633.311C457.538 633.466 457.348 633.565 457.144 633.594L456.989 633.602L320.26 628.554C319.772 628.536 319.391 628.125 319.408 627.638C319.425 627.198 319.759 626.846 320.182 626.793L320.325 626.787L456.644 631.819L457.822 630.567C458.206 630.164 458.618 629.738 459.054 629.293C461.129 627.174 463.333 625.055 465.572 623.075C467.443 621.421 469.258 619.936 470.99 618.664C474.808 615.86 478.072 614.185 480.686 613.911L485.727 613.385L487.022 613.246C489.796 612.944 492.279 612.652 494.633 612.344L496.857 612.043C504.052 611.031 509.056 609.944 511.218 608.782L511.424 608.665Z" fill="#DD936F"/>
<path d="M273.516 594.724C271.016 595.168 268.378 595.726 265.659 596.373C263.643 596.853 261.671 597.36 259.792 597.873L257.479 598.52L255.456 599.117C255.198 599.197 254.991 599.389 254.893 599.64L253.405 603.508C252.569 605.704 251.733 607.93 250.927 610.112L249.856 613.044L248.686 616.316C246.845 621.545 245.682 625.276 245.399 627.057C245.315 627.592 245.726 628.076 246.267 628.08L277.479 628.28L323.36 629.038C324.083 629.05 324.493 628.251 324.121 627.678L323.985 627.511L321.076 624.344C320.497 623.718 319.889 623.063 319.256 622.384C316.242 619.15 313.174 615.917 310.178 612.832L308.39 611.001C307.656 610.253 306.935 609.523 306.227 608.811L305.1 607.684C298.063 600.674 292.887 596.093 290.143 594.698C287.13 593.168 281.369 593.331 273.516 594.724ZM289.342 596.275C291.988 597.62 297.525 602.578 304.973 610.059L306.401 611.5L307.128 612.239C310.081 615.248 313.131 618.437 316.153 621.656L319.191 624.911L321.336 627.235L276.525 626.505L247.355 626.318L247.393 626.163C247.918 624.041 249.1 620.42 250.777 615.708L251.518 613.646L251.795 612.883C252.574 610.744 253.394 608.537 254.225 606.335L255.934 601.85L256.384 600.682L257.751 600.282C258.107 600.179 258.484 600.072 258.88 599.96C261.144 599.324 263.573 598.687 266.069 598.093C268.756 597.454 271.362 596.902 273.825 596.465C281.287 595.142 286.803 594.985 289.342 596.275Z" fill="#DD936F"/>
<path d="M522.885 624.978C523.298 624.717 523.844 624.839 524.106 625.252C524.263 625.499 524.481 625.919 524.695 626.479C525.519 628.637 525.55 630.959 524.243 633.145C523.446 634.477 522.187 635.66 520.429 636.667L520.228 636.776L520.344 637.18C520.479 637.725 520.542 638.285 520.536 638.859L520.518 639.292C520.352 641.673 519.077 644.136 517.068 646.587C516.329 647.489 515.539 648.328 514.748 649.082L514.197 649.595L513.988 649.778L513.986 649.805C513.956 650.136 513.88 650.521 513.744 650.948L513.63 651.276C513.183 652.471 512.364 653.645 511.101 654.723C509.926 655.725 508.413 656.601 506.53 657.327L505.871 657.566C505.503 659.608 504.618 661.484 503.361 663.187L503.008 663.647C502.35 664.478 501.646 665.21 500.94 665.839L500.543 666.181C500.301 666.384 500.105 666.534 499.969 666.63C499.877 666.695 499.775 666.741 499.667 666.767L499.502 666.791L461.312 668.624L275.008 692.304C274.524 692.366 274.081 692.023 274.02 691.539C273.964 691.103 274.237 690.7 274.645 690.58L274.785 690.55L461.158 666.864L499.146 665.036L499.42 664.816L499.764 664.518C500.397 663.955 501.031 663.295 501.622 662.549C503.003 660.807 503.929 658.873 504.204 656.787C504.248 656.45 504.482 656.168 504.806 656.062C507.035 655.335 508.728 654.423 509.953 653.377C510.987 652.496 511.631 651.571 511.975 650.655C512.152 650.182 512.222 649.796 512.233 649.533L512.234 649.411C512.216 649.137 512.335 648.861 512.556 648.68L512.878 648.403C513.055 648.246 513.275 648.044 513.528 647.803C514.269 647.095 515.01 646.309 515.701 645.466C517.498 643.273 518.619 641.108 518.754 639.169C518.815 638.302 518.675 637.494 518.319 636.74C518.113 636.303 518.295 635.782 518.728 635.569C520.683 634.607 521.981 633.482 522.725 632.237C523.715 630.583 523.691 628.807 523.043 627.11C522.874 626.669 522.71 626.352 522.612 626.198C522.351 625.786 522.473 625.24 522.885 624.978Z" fill="#DD936F"/>
<path d="M453.65 542.928C454.275 542.951 454.775 543.433 454.835 544.039L454.841 544.207L451.774 631.33C451.75 632.012 451.178 632.545 450.496 632.522C449.871 632.499 449.371 632.016 449.311 631.411L449.305 631.243L452.373 544.12C452.397 543.438 452.969 542.905 453.65 542.928Z" fill="#253368"/>
<path d="M425.762 545.398L453.576 545.576C454.258 545.58 454.808 546.137 454.803 546.819C454.799 547.444 454.331 547.957 453.728 548.035L453.561 548.045L426.918 547.874L424.418 591.434L450.167 609.753C450.673 610.112 450.826 610.782 450.553 611.319L450.458 611.475C450.098 611.98 449.428 612.134 448.892 611.86L448.736 611.765L422.431 593.052C422.134 592.841 421.948 592.512 421.916 592.156L421.914 591.975L424.522 546.562C424.556 545.96 425.017 545.48 425.601 545.407L425.762 545.398Z" fill="#253368"/>
<path d="M451.344 601.816L522.089 605.921C522.77 605.96 523.29 606.544 523.251 607.225C523.214 607.849 522.721 608.338 522.114 608.385L521.946 608.386L451.201 604.282C450.52 604.242 450 603.658 450.04 602.977C450.076 602.353 450.57 601.864 451.176 601.818L451.344 601.816Z" fill="#253368"/>
</svg>
