<svg width="220" height="439" viewBox="0 0 220 439" fill="none" xmlns="http://www.w3.org/2000/svg">
<path fill-rule="evenodd" clip-rule="evenodd" d="M64.5515 96.6446C68.3691 93.9476 73.642 94.7559 76.4709 98.4728L100.296 129.772C103.71 134.258 102.721 140.671 98.1149 143.927C93.509 147.182 87.1166 145.983 84.0087 141.281L62.324 108.469C59.7491 104.574 60.7346 99.3416 64.5515 96.6446Z" fill="#FFC999"/>
<path fill-rule="evenodd" clip-rule="evenodd" d="M143.05 98.4728L119.225 129.772C115.812 134.258 116.8 140.671 121.406 143.927C126.012 147.182 132.405 145.983 135.513 141.281L157.198 108.469C159.773 104.574 158.787 99.3416 154.97 96.6446C151.153 93.9476 145.879 94.7559 143.05 98.4728Z" fill="#FFC999"/>
<path fill-rule="evenodd" clip-rule="evenodd" d="M101.71 116.296L102.696 99.6043L117.757 100.364L118.643 116.326C118.911 121.147 115.087 125.214 110.248 125.255C105.34 125.296 101.422 121.185 101.71 116.296Z" fill="#FFC999"/>
<path fill-rule="evenodd" clip-rule="evenodd" d="M120.689 94.5609C121.561 93.622 122.939 93.3345 123.945 94.3692C125.564 96.0367 124.254 102.413 120.003 102.781C118.38 102.597 119.33 96.0258 120.689 94.5609Z" fill="#FFC999"/>
<path d="M122.596 95.3474C122.721 95.3225 122.843 95.4034 122.868 95.5281C122.893 95.6528 122.812 95.774 122.687 95.7989C122.658 95.8048 122.592 95.8259 122.503 95.8696C122.348 95.9459 122.191 96.0595 122.042 96.2185C121.72 96.564 121.487 97.0706 121.388 97.7749C121.364 97.9438 121.382 97.9838 121.535 98.0656L121.642 98.1204C121.946 98.2773 122.107 98.4567 122.145 98.8073C122.207 99.374 121.983 99.8214 121.58 100.147C121.372 100.315 121.165 100.417 121.018 100.465C120.897 100.505 120.767 100.439 120.727 100.319C120.687 100.198 120.752 100.068 120.873 100.028L120.934 100.004C120.953 99.9958 120.974 99.9861 120.997 99.9746C121.097 99.9256 121.197 99.8638 121.29 99.7889C121.579 99.5555 121.73 99.2541 121.687 98.8571C121.67 98.7035 121.622 98.6363 121.481 98.5566L121.371 98.4995C121.019 98.321 120.872 98.126 120.931 97.7107C121.043 96.9153 121.316 96.3211 121.704 95.9048C122.029 95.557 122.36 95.3945 122.596 95.3474Z" fill="#DD936F"/>
<path fill-rule="evenodd" clip-rule="evenodd" d="M98.6783 94.5609C97.8069 93.622 96.4282 93.3345 95.4228 94.3692C93.803 96.0367 95.1134 102.413 99.3647 102.781C100.988 102.597 100.038 96.0258 98.6783 94.5609Z" fill="#FFC999"/>
<path d="M96.7704 95.2269C97.0065 95.2739 97.3378 95.4363 97.6622 95.7838C98.0507 96.2001 98.3238 96.7944 98.4361 97.5901C98.4949 98.0053 98.3481 98.2004 97.9962 98.3789L97.937 98.409C97.7568 98.5019 97.6995 98.5659 97.6809 98.7366C97.6376 99.1335 97.7888 99.4347 98.0775 99.668C98.1701 99.7428 98.2702 99.8045 98.3702 99.8534L98.4331 99.8825C98.4604 99.8944 98.4813 99.9024 98.4939 99.9065C98.6149 99.9464 98.6806 100.077 98.6407 100.197C98.6007 100.318 98.4702 100.384 98.3492 100.344C98.2027 100.295 97.9954 100.194 97.7871 100.026C97.3848 99.7008 97.1603 99.2534 97.2222 98.6868C97.2574 98.3632 97.3969 98.1855 97.6575 98.0366L97.7871 97.9685C97.982 97.8696 98.0052 97.8388 97.9791 97.6544C97.8797 96.9497 97.6468 96.443 97.3244 96.0975C97.1762 95.9387 97.0191 95.8252 96.8635 95.749C96.7922 95.714 96.7363 95.6936 96.7018 95.6838L96.68 95.6784C96.555 95.6535 96.4739 95.5322 96.4989 95.4075C96.5214 95.2953 96.622 95.2186 96.7331 95.2225L96.7704 95.2269Z" fill="#DD936F"/>
<path fill-rule="evenodd" clip-rule="evenodd" d="M120.948 96.9011C120.948 108.382 116.532 113.196 109.758 113.196C103.497 113.196 98.5661 107.644 98.3244 96.5391C98.1401 88.0667 100.216 81.9498 109.895 81.9498C120.057 81.9498 120.948 88.4268 120.948 96.9011Z" fill="#FFC999"/>
<path d="M104.097 111.281C104.171 111.177 104.316 111.154 104.419 111.228C105.928 112.31 108.079 112.906 110.211 112.906C112.463 112.906 114.104 112.408 115.755 111.234C115.859 111.16 116.003 111.184 116.077 111.288C116.151 111.391 116.127 111.535 116.023 111.609C114.292 112.84 112.557 113.367 110.211 113.367C107.988 113.367 105.743 112.744 104.15 111.602C104.046 111.528 104.023 111.384 104.097 111.281Z" fill="#DD936F"/>
<path fill-rule="evenodd" clip-rule="evenodd" d="M100.049 92.5953C99.1354 93.9052 98.7848 96.0351 98.6501 97.435C98.6314 97.6286 98.3523 97.6382 98.3207 97.4459C97.9656 95.2782 97.39 89.9523 98.0822 86.8823C99.1715 82.0541 104.967 78.1006 108.415 77.9199C109.818 77.8459 112.237 77.9501 114.779 80.1224C117.434 82.393 119.019 82.1403 120.827 85.4341C122.059 87.6784 121.371 94.0351 121.034 97.0633C121.008 97.2948 120.673 97.3019 120.638 97.0717C120.427 95.6698 120.003 93.7451 119.194 92.776C118.964 90.9143 118.468 87.4257 118.468 87.4257C114.295 86.4296 105.039 86.7009 100.26 87.607L100.049 92.5953Z" fill="#253368"/>
<path d="M112.307 91.939C114.047 91.0053 115.929 90.8588 117.702 92.0376C117.998 92.2346 118.078 92.6338 117.881 92.9294C117.683 93.2249 117.283 93.3048 116.987 93.1078C115.672 92.2331 114.278 92.3415 112.918 93.0717C112.678 93.2002 112.462 93.3379 112.273 93.4748L112.137 93.5772C112.101 93.6053 112.075 93.627 112.06 93.6409C111.793 93.8762 111.386 93.8512 111.15 93.5852C110.914 93.3191 110.939 92.9127 111.206 92.6775C111.425 92.4835 111.802 92.21 112.307 91.939Z" fill="#5C4E4A"/>
<path d="M107.285 93.2002C107.383 93.1446 107.506 93.1693 107.575 93.2532L107.599 93.2874L108.779 95.3696C108.792 95.3933 108.801 95.4189 108.805 95.4455L108.808 95.4858L108.72 102.465L110.665 102.471C110.779 102.471 110.874 102.555 110.892 102.665L110.895 102.702C110.894 102.816 110.811 102.911 110.701 102.929L110.663 102.932L108.486 102.925C108.371 102.925 108.275 102.84 108.259 102.73L108.256 102.692L108.346 95.5425L107.197 93.5139C107.142 93.4155 107.166 93.2936 107.25 93.2238L107.285 93.2002Z" fill="#DD936F"/>
<path d="M102.483 91.5295C103.557 91.3758 104.677 91.5681 105.771 91.9777C106.268 92.1637 106.65 92.3514 106.876 92.4831C107.184 92.6621 107.287 93.0558 107.108 93.3626C106.929 93.6694 106.534 93.773 106.226 93.5941L106.14 93.5467C106.114 93.533 106.083 93.5172 106.048 93.4997L105.993 93.4722C105.792 93.3736 105.565 93.2745 105.318 93.1819C104.409 92.8417 103.493 92.6843 102.666 92.8026C102.301 92.855 101.961 92.9608 101.649 93.1247C101.334 93.2901 100.945 93.1695 100.779 92.8552C100.613 92.5409 100.734 92.152 101.049 91.9866C101.496 91.752 101.976 91.6021 102.483 91.5295Z" fill="#5C4E4A"/>
<path d="M111.482 95.4751C111.736 95.4751 111.943 95.6813 111.943 95.9356C111.943 96.1729 111.763 96.3683 111.532 96.3933L111.482 96.396H107.489C107.234 96.396 107.028 96.1899 107.028 95.9356C107.028 95.6982 107.208 95.5028 107.439 95.4778L107.489 95.4751H111.482Z" fill="#253368"/>
<path d="M107.827 97.334C108.849 96.8242 109.881 96.847 110.812 97.1891C111.064 97.2816 111.251 97.3765 111.363 97.4461C111.579 97.5809 111.645 97.865 111.51 98.0806C111.384 98.2809 111.13 98.3516 110.921 98.2528L110.815 98.1935C110.743 98.1555 110.634 98.105 110.493 98.0533C109.782 97.792 109.007 97.7748 108.24 98.1577C108.012 98.2714 107.735 98.1792 107.621 97.9518C107.507 97.7243 107.599 97.4478 107.827 97.334Z" fill="#253368"/>
<path fill-rule="evenodd" clip-rule="evenodd" d="M107.162 95.1669L100.175 95.0582C99.687 95.0505 99.2855 95.4376 99.2816 95.9244C99.2739 96.8324 99.3029 98.289 99.5194 99.5391C99.7753 101.014 101.086 101.935 102.584 102.026C104.453 102.143 106.133 102.171 106.997 101.215C108.314 99.7584 108.035 97.3231 108.028 96.0357C108.025 95.563 107.635 95.1746 107.162 95.1669Z" fill="white"/>
<path d="M107.165 95.0136L100.177 94.9049C99.6035 94.8958 99.1324 95.3518 99.1279 95.9232C99.1168 97.2292 99.1837 98.5017 99.368 99.5652C99.6267 101.056 100.94 102.079 102.574 102.18L102.915 102.199C105.24 102.323 106.363 102.146 107.111 101.318C107.685 100.683 108.004 99.8441 108.136 98.8086C108.207 98.254 108.222 97.7606 108.205 97.0022L108.182 96.1254C108.182 96.096 108.182 96.0671 108.182 96.0349C108.179 95.4796 107.722 95.0227 107.165 95.0136ZM100.172 95.2116L107.16 95.3203C107.551 95.3266 107.872 95.6486 107.874 96.0365L107.889 96.6691L107.898 97.0057C107.914 97.7512 107.899 98.2331 107.831 98.7699C107.706 99.7485 107.409 100.53 106.883 101.112C106.188 101.88 105.052 102.026 102.593 101.873C101.093 101.781 99.9038 100.855 99.6709 99.513C99.4904 98.4712 99.4243 97.2149 99.4353 95.9258C99.4385 95.525 99.7689 95.2052 100.172 95.2116Z" fill="#253368"/>
<path d="M107.915 94.7662C108.169 94.7635 108.378 94.9674 108.381 95.2217C108.383 95.459 108.206 95.6563 107.975 95.6837L107.924 95.687L99.2606 95.7789C99.0058 95.7816 98.797 95.5777 98.7942 95.3234C98.7917 95.0861 98.9696 94.8888 99.2005 94.8614L99.2508 94.8581L107.915 94.7662Z" fill="#253368"/>
<path d="M104.253 96.5191C104.987 96.5191 105.543 97.247 105.543 98.1081C105.543 98.2857 105.399 98.4296 105.221 98.4296C105.043 98.4296 104.898 98.2857 104.898 98.1081C104.898 97.5699 104.587 97.1621 104.253 97.1621C103.918 97.1621 103.607 97.5699 103.607 98.1081C103.607 98.2857 103.462 98.4296 103.284 98.4296C103.106 98.4296 102.962 98.2857 102.962 98.1081C102.962 97.247 103.518 96.5191 104.253 96.5191Z" fill="#5C4E4A"/>
<path fill-rule="evenodd" clip-rule="evenodd" d="M119.019 95.1669L112.031 95.0582C111.543 95.0505 111.142 95.4376 111.137 95.9244C111.13 96.8324 111.159 98.289 111.376 99.5391C111.632 101.014 112.943 101.935 114.44 102.026C116.31 102.143 117.989 102.171 118.853 101.215C120.171 99.7584 119.891 97.3231 119.884 96.0357C119.882 95.563 119.492 95.1746 119.019 95.1669Z" fill="white"/>
<path d="M119.021 95.0136L112.034 94.9049C111.46 94.8958 110.989 95.3516 110.984 95.923C110.973 97.2392 111.04 98.5036 111.224 99.5653C111.483 101.056 112.796 102.079 114.431 102.18L114.771 102.199C117.096 102.323 118.218 102.146 118.967 101.318C119.541 100.683 119.86 99.8441 119.992 98.8087C120.058 98.2936 120.076 97.8313 120.065 97.1606L120.038 96.0661C120.038 96.056 120.038 96.0456 120.038 96.0349C120.035 95.4796 119.579 95.0227 119.021 95.0136ZM112.029 95.2116L119.016 95.3203C119.386 95.3263 119.694 95.6155 119.728 95.9759L119.754 97.0055C119.77 97.7511 119.756 98.233 119.687 98.7699C119.562 99.7485 119.265 100.53 118.739 101.112C118.044 101.88 116.908 102.026 114.45 101.873C112.949 101.781 111.76 100.855 111.527 99.513C111.347 98.473 111.281 97.2247 111.291 95.9256C111.295 95.525 111.625 95.2052 112.029 95.2116Z" fill="#253368"/>
<path d="M115.02 96.5191C115.754 96.5191 116.31 97.247 116.31 98.1081C116.31 98.2857 116.166 98.4296 115.988 98.4296C115.81 98.4296 115.666 98.2857 115.666 98.1081C115.666 97.5699 115.354 97.1621 115.02 97.1621C114.686 97.1621 114.374 97.5699 114.374 98.1081C114.374 98.2857 114.23 98.4296 114.052 98.4296C113.874 98.4296 113.73 98.2857 113.73 98.1081C113.73 97.247 114.286 96.5191 115.02 96.5191Z" fill="#5C4E4A"/>
<path d="M119.771 94.7662C120.026 94.7635 120.235 94.9674 120.238 95.2217C120.24 95.459 120.062 95.6563 119.831 95.6837L119.781 95.687L111.117 95.7789C110.862 95.7816 110.653 95.5777 110.65 95.3234C110.648 95.0861 110.826 94.8888 111.056 94.8614L111.107 94.8581L119.771 94.7662Z" fill="#253368"/>
<path fill-rule="evenodd" clip-rule="evenodd" d="M113.236 104.104C109.723 104.423 106.46 104.104 106.46 104.104C106.46 104.104 107.273 106.243 109.904 106.243C112.536 106.243 113.236 104.104 113.236 104.104Z" fill="white"/>
<path d="M113.206 103.784C111.273 103.96 109.281 103.96 107.455 103.854L107.149 103.835L106.492 103.784C106.251 103.761 106.071 104 106.161 104.224L106.169 104.243C106.223 104.372 106.305 104.533 106.42 104.716C106.593 104.988 106.807 105.254 107.067 105.497C107.782 106.167 108.724 106.565 109.904 106.565C111.147 106.565 112.103 106.125 112.792 105.394C113.206 104.954 113.441 104.513 113.542 104.204C113.614 103.984 113.437 103.763 113.206 103.784ZM112.694 104.47L112.667 104.514C112.57 104.664 112.455 104.812 112.322 104.953C111.751 105.559 110.964 105.921 109.904 105.921C108.893 105.921 108.108 105.59 107.508 105.028L107.416 104.939C107.267 104.789 107.142 104.637 107.04 104.49L107.027 104.471L107.106 104.477C107.206 104.483 107.309 104.49 107.418 104.496C108.987 104.587 110.677 104.601 112.353 104.494L112.694 104.47Z" fill="#FF7946"/>
<path d="M111.209 107.327C111.318 107.261 111.46 107.294 111.527 107.402C111.594 107.51 111.56 107.652 111.452 107.719C111.219 107.863 110.964 107.96 110.692 108.015C110.153 108.124 109.586 108.065 109.036 107.902C108.825 107.839 108.664 107.776 108.57 107.731C108.455 107.677 108.405 107.54 108.46 107.425C108.514 107.31 108.652 107.261 108.767 107.315C108.841 107.35 108.981 107.405 109.168 107.461C109.651 107.604 110.147 107.656 110.6 107.564C110.82 107.519 111.024 107.442 111.209 107.327Z" fill="#DD936F"/>
<path fill-rule="evenodd" clip-rule="evenodd" d="M151.547 367.296C159.808 370.77 164.047 365.767 164.047 365.767C164.047 365.767 164.281 364.017 162.836 362.06C161.027 359.611 156.998 358.74 152.223 354.054C148.554 350.454 146.134 344.851 146.134 344.851C143.483 340.949 135.033 345.596 135.033 345.596C135.033 345.596 134.889 353.66 135.06 358.273C135.06 358.273 135.366 360.813 141.704 361.722C146.446 362.401 146.6 365.215 151.547 367.296Z" fill="#253368"/>
<path fill-rule="evenodd" clip-rule="evenodd" d="M71.1334 367.296C62.8731 370.77 58.634 365.767 58.634 365.767C58.634 365.767 58.3994 364.017 59.8444 362.06C61.6536 359.611 65.6826 358.74 70.4579 354.054C74.1272 350.454 76.5468 344.851 76.5468 344.851C79.1977 340.949 87.6475 345.596 87.6475 345.596C87.6475 345.596 87.7919 353.66 87.6211 358.273C87.6211 358.273 87.315 360.813 80.9766 361.722C76.2348 362.401 76.0808 365.215 71.1334 367.296Z" fill="#253368"/>
<path d="M99.9808 223.216C100.082 223.164 100.206 223.204 100.258 223.305L100.318 223.417C100.343 223.464 100.375 223.521 100.413 223.587L100.452 223.656C100.613 223.939 100.805 224.254 101.025 224.594C101.655 225.565 102.388 226.536 103.219 227.441C104.071 228.371 104.979 229.178 105.937 229.828C106.031 229.892 106.056 230.02 105.991 230.114C105.927 230.208 105.799 230.232 105.705 230.168C104.719 229.499 103.788 228.671 102.915 227.719C102.067 226.795 101.32 225.806 100.679 224.817C100.492 224.529 100.325 224.257 100.179 224.007L100.016 223.723C99.958 223.619 99.9164 223.541 99.8914 223.493C99.8394 223.392 99.8795 223.268 99.9808 223.216Z" fill="#4E5C93"/>
<path d="M97.4613 223.919C97.557 223.857 97.6847 223.885 97.7465 223.98C97.8592 224.154 97.9732 224.326 98.0884 224.496C99.3174 226.305 100.633 227.792 101.949 228.977C102.408 229.391 102.834 229.738 103.216 230.019C103.315 230.093 103.407 230.158 103.489 230.215L103.688 230.347C103.785 230.407 103.815 230.534 103.755 230.63C103.695 230.727 103.568 230.757 103.471 230.697L103.337 230.61C103.258 230.556 103.169 230.494 103.071 230.424L102.97 230.35C102.578 230.061 102.142 229.705 101.672 229.282C100.333 228.075 98.9951 226.564 97.7469 224.727C97.63 224.554 97.5144 224.38 97.4 224.203C97.3382 224.108 97.3656 223.981 97.4613 223.919Z" fill="#4E5C93"/>
<path d="M95.0256 223.833C95.1252 223.778 95.2508 223.814 95.3061 223.913L95.3595 224.004C95.3985 224.068 95.4531 224.155 95.5243 224.263C95.7158 224.553 95.9568 224.889 96.251 225.267C97.094 226.348 98.1925 227.541 99.5753 228.81C99.6592 228.887 99.6646 229.018 99.5875 229.101C99.5104 229.185 99.3799 229.19 99.2961 229.113C97.8963 227.829 96.7823 226.619 95.9254 225.519C95.6245 225.133 95.3771 224.788 95.1797 224.489C95.1275 224.41 95.0816 224.338 95.0418 224.274L94.9454 224.113C94.8901 224.013 94.926 223.888 95.0256 223.833Z" fill="#4E5C93"/>
<path fill-rule="evenodd" clip-rule="evenodd" d="M101.389 115.266L98.7878 118.102L103.488 128.817L110.1 121.241L101.389 115.266Z" fill="#01BF71"/>
<path fill-rule="evenodd" clip-rule="evenodd" d="M130.969 173.396L137.986 119.31C136.878 118.241 131.453 113.515 118.422 119.128C115.748 120.28 113.376 121.338 110.328 121.482C108.265 121.58 102.303 119.082 100.723 118.344C89.3509 113.033 86.2997 117.933 81.6082 120.034L88.961 162.839L90.9442 172.758C90.9442 172.758 89.3864 180.36 93.1156 181.811C132.314 181.811 128.99 181.449 128.99 181.449C128.99 181.449 132.277 180.439 130.969 173.396Z" fill="#01BF71"/>
<path d="M98.9001 118.291C99.0495 118.226 99.2217 118.282 99.3044 118.417L99.3247 118.456L103.555 128.072L109.679 121.268C109.787 121.148 109.965 121.128 110.096 121.214L110.134 121.243C110.254 121.351 110.274 121.529 110.187 121.66L110.158 121.697L103.701 128.873C103.555 129.036 103.298 129.007 103.188 128.828L103.166 128.788L98.7345 118.715C98.663 118.552 98.7371 118.362 98.9001 118.291Z" fill="#253368"/>
<path fill-rule="evenodd" clip-rule="evenodd" d="M118.508 114.844L121.532 117.982L117.056 127.88L110.1 121.06L118.508 114.844Z" fill="#01BF71"/>
<path d="M121.239 117.968C121.314 117.807 121.505 117.736 121.667 117.81C121.815 117.878 121.887 118.045 121.84 118.196L121.825 118.237L117.289 128.075C117.202 128.263 116.964 128.318 116.803 128.198L116.77 128.17L110.724 122.248L110.724 180.629C110.724 180.792 110.603 180.926 110.445 180.948L110.402 180.951C110.238 180.951 110.104 180.83 110.082 180.673L110.079 180.629V121.482C110.079 121.212 110.388 121.069 110.594 121.224L110.627 121.253L116.894 127.39L121.239 117.968Z" fill="#253368"/>
<path d="M135.041 138.035H135.085C135.262 138.048 135.396 138.202 135.383 138.38L135.321 139.197C135.046 142.654 134.524 147.569 133.812 153.575L133.576 155.549C133.523 155.994 133.468 156.443 133.413 156.895C133.026 160.071 132.615 163.321 132.201 166.521L131.636 170.839L131.298 173.365L131.351 173.535L131.372 173.606C131.444 173.852 131.515 174.128 131.582 174.428C131.824 175.513 131.942 176.614 131.866 177.65C131.724 179.598 130.912 181.052 129.259 181.745C129.095 181.814 128.906 181.737 128.837 181.573C128.768 181.41 128.845 181.221 129.009 181.152C130.409 180.566 131.097 179.332 131.224 177.603C131.294 176.638 131.183 175.596 130.953 174.568C130.902 174.339 130.848 174.125 130.794 173.929L130.753 173.786C130.712 173.647 130.681 173.55 130.664 173.5C130.648 173.453 130.643 173.402 130.649 173.353L131.128 169.759C131.188 169.305 131.25 168.834 131.313 168.35C131.811 164.543 132.309 160.626 132.773 156.818L133.016 154.808L133.301 152.41C134.002 146.427 134.502 141.604 134.74 138.333C134.752 138.171 134.883 138.045 135.041 138.035Z" fill="#597EF7"/>
<path fill-rule="evenodd" clip-rule="evenodd" d="M111.768 128.669C111.69 129.236 112.012 129.748 112.486 129.813C112.96 129.877 113.407 129.47 113.485 128.902C113.562 128.334 113.241 127.822 112.767 127.757C112.292 127.693 111.846 128.101 111.768 128.669Z" fill="white"/>
<path fill-rule="evenodd" clip-rule="evenodd" d="M111.768 138.844C111.69 139.411 112.012 139.923 112.486 139.988C112.96 140.052 113.407 139.644 113.485 139.077C113.562 138.509 113.241 137.997 112.767 137.932C112.292 137.868 111.846 138.276 111.768 138.844Z" fill="white"/>
<path fill-rule="evenodd" clip-rule="evenodd" d="M111.768 151.697C111.69 152.265 112.012 152.777 112.486 152.841C112.96 152.906 113.407 152.498 113.485 151.93C113.562 151.363 113.241 150.851 112.767 150.786C112.292 150.722 111.846 151.13 111.768 151.697Z" fill="white"/>
<path fill-rule="evenodd" clip-rule="evenodd" d="M111.768 162.48C111.69 163.047 112.012 163.559 112.486 163.624C112.96 163.688 113.407 163.28 113.485 162.713C113.562 162.145 113.241 161.633 112.767 161.569C112.292 161.504 111.846 161.912 111.768 162.48Z" fill="white"/>
<path fill-rule="evenodd" clip-rule="evenodd" d="M111.768 172.831C111.69 173.398 112.012 173.911 112.486 173.975C112.96 174.039 113.407 173.632 113.485 173.064C113.562 172.497 113.241 171.985 112.767 171.92C112.292 171.855 111.846 172.263 111.768 172.831Z" fill="white"/>
<path fill-rule="evenodd" clip-rule="evenodd" d="M89.8677 282.906C84.3292 282.254 80.3125 277.331 80.7972 271.788L87.3495 209.257C88.034 202.721 94.0114 198.053 100.535 198.959C106.939 199.849 111.391 205.777 110.448 212.159L101.268 274.274C100.411 279.741 95.3758 283.553 89.8677 282.906Z" fill="#ADC6FF"/>
<path fill-rule="evenodd" clip-rule="evenodd" d="M88.8177 348.183L101.01 276.561C101.998 270.76 97.8708 265.333 92.0062 264.721C86.344 264.128 81.2896 268.27 80.7721 273.927L74.1411 346.387C74.1411 346.387 79.6106 350.464 88.8177 348.183Z" fill="#ADC6FF"/>
<path fill-rule="evenodd" clip-rule="evenodd" d="M132.728 282.906C138.266 282.254 142.283 277.331 141.798 271.788L135.246 209.257C134.561 202.721 128.584 198.053 122.061 198.959C115.656 199.849 111.204 205.777 112.148 212.159L121.327 274.274C122.184 279.741 127.22 283.553 132.728 282.906Z" fill="#ADC6FF"/>
<path fill-rule="evenodd" clip-rule="evenodd" d="M133.777 348.183L121.585 276.561C120.597 270.76 124.724 265.333 130.589 264.721C136.251 264.128 141.306 268.27 141.823 273.927L148.454 346.387C148.454 346.387 142.985 350.464 133.777 348.183Z" fill="#ADC6FF"/>
<path fill-rule="evenodd" clip-rule="evenodd" d="M130.423 186.036H91.47L92.1145 181.449H129.778L130.423 186.036Z" fill="#ADC6FF"/>
<path fill-rule="evenodd" clip-rule="evenodd" d="M135.325 209.237C133.972 195.114 130.343 185.393 130.343 185.393H91.7704C91.7704 185.393 86.8984 197.113 87.8381 212.106C94.5522 216.271 107.875 218.391 107.875 218.391C108.878 218.876 114.791 218.454 115.78 217.994C115.78 217.994 133.691 212.013 135.325 209.237Z" fill="#ADC6FF"/>
<path fill-rule="evenodd" clip-rule="evenodd" d="M172.203 60.582C172.203 60.582 169.647 57.4741 170.33 53.8035C170.667 51.9881 172.901 49.1567 174.024 48.8596C175.813 48.3869 178.912 51.4614 178.265 52.7713C177.619 54.0813 174.609 52.4517 174.609 52.4517C174.609 52.4517 179.189 58.8824 175.87 61.0817C173.083 62.9292 172.203 60.582 172.203 60.582Z" fill="#FFC999"/>
<path fill-rule="evenodd" clip-rule="evenodd" d="M174.489 49.194C174.489 49.194 177.922 44.2661 180.174 45.3979C181.882 46.5625 180.873 47.8943 180.873 47.8943C180.873 47.8943 182.899 48.3136 182.67 50.5052C184.872 50.8228 184.192 53.0414 184.192 53.0414C184.192 53.0414 186.447 53.997 185.2 57.6053C183.664 62.0546 177.675 71.2891 177.675 71.2891L169.399 64.989C169.399 64.989 171.919 61.8688 172.351 60.0283C172.782 58.1879 169.889 54.1932 174.489 49.194Z" fill="#FFC999"/>
<path d="M174.96 49.0019C175.044 48.9066 175.19 48.8976 175.285 48.9818L175.446 49.1258C175.573 49.2407 175.714 49.3707 175.866 49.5132C176.301 49.9205 176.736 50.3471 177.142 50.7725C177.37 51.0109 177.582 51.2426 177.777 51.4657C178.312 52.0792 178.695 52.6078 178.893 53.0348C179.159 53.6101 179.098 54.0669 178.602 54.242C177.496 54.6319 176.51 54.4498 175.666 53.8766L175.63 53.8512L175.664 53.927C176.301 55.3644 176.633 56.8226 176.499 58.2023L176.478 58.3818C176.405 58.9524 176.25 59.4955 176.005 60.0063C175.95 60.121 175.813 60.1696 175.698 60.1148C175.583 60.06 175.534 59.9226 175.589 59.8079C175.812 59.3425 175.954 58.8466 176.021 58.3235C176.192 56.9876 175.876 55.5432 175.242 54.1133C175.061 53.705 174.867 53.329 174.673 52.9945L174.576 52.8298L174.506 52.7169L174.447 52.6289L174.41 52.5674C174.261 52.3114 174.633 52.0779 174.8 52.3222L174.891 52.4631L174.982 52.5891C175.13 52.7849 175.305 52.9809 175.505 53.1635C176.33 53.9131 177.309 54.2098 178.448 53.8079C178.621 53.7469 178.642 53.5907 178.474 53.2279C178.31 52.8749 177.985 52.4171 177.528 51.8835L177.429 51.7679C177.239 51.5503 177.031 51.3237 176.808 51.0901C176.408 50.6715 175.979 50.2507 175.55 49.8489L175.334 49.6475L174.98 49.3269C174.884 49.2427 174.875 49.0972 174.96 49.0019Z" fill="#DD936F"/>
<path d="M184.067 53.4196C184.12 53.5351 184.069 53.6718 183.954 53.725L183.883 53.759L183.809 53.7964C183.69 53.8573 183.557 53.9298 183.414 54.0134C183.005 54.2527 182.596 54.5333 182.215 54.8522C181.448 55.4936 180.897 56.2047 180.65 56.9714C180.466 57.5404 180.392 58.0785 180.445 58.4204C180.486 58.6919 180.552 58.7418 180.731 58.6624C180.956 58.5618 181.148 58.3438 181.382 57.9505L181.705 57.385C181.72 57.3602 181.732 57.3393 181.741 57.3244C181.874 57.1086 181.991 56.9649 182.127 56.8713C182.293 56.7578 182.519 56.7596 182.575 57.0091C182.596 57.103 182.574 57.2017 182.522 57.3308C182.437 57.5414 182.268 57.826 182.055 58.1076C181.491 58.8556 180.768 59.4273 179.999 59.6043C178.098 60.0414 177.1 61.0597 177.219 62.9946C177.227 63.1215 177.131 63.2307 177.003 63.2385C176.876 63.2463 176.767 63.1498 176.759 63.0229C176.624 60.8336 177.795 59.6386 179.895 59.1556C180.003 59.1308 180.11 59.0961 180.217 59.0524L180.253 59.036L180.224 59.0105C180.117 58.9064 180.04 58.7512 180 58.5563L179.989 58.4899C179.924 58.067 180.007 57.4615 180.211 56.8304C180.488 55.9691 181.091 55.1918 181.918 54.4994C182.321 54.1627 182.751 53.8678 183.181 53.6162C183.332 53.5281 183.472 53.4516 183.598 53.3869L183.761 53.3066C183.877 53.2535 184.014 53.3041 184.067 53.4196Z" fill="#DD936F"/>
<path d="M182.03 50.8907C182.135 50.8187 182.279 50.8453 182.351 50.9501C182.423 51.0549 182.397 51.1982 182.291 51.2702L182.166 51.361L182.003 51.4851C181.946 51.5296 181.886 51.5773 181.824 51.628C181.47 51.9181 181.116 52.2462 180.786 52.6049C180.19 53.252 179.742 53.9243 179.5 54.6003C179.19 55.4657 179.389 56.0311 179.912 56.4047C180.038 56.4948 180.174 56.5659 180.31 56.6196L180.397 56.6513C180.435 56.6641 180.464 56.6724 180.482 56.6767C180.606 56.7056 180.683 56.8294 180.654 56.9533C180.625 57.0771 180.501 57.154 180.377 57.125C180.187 57.0807 179.916 56.974 179.643 56.7791C178.957 56.2893 178.684 55.5106 179.066 54.4453C179.331 53.7038 179.812 52.9822 180.446 52.2935C180.792 51.9177 181.162 51.5752 181.532 51.2721C181.629 51.1925 181.721 51.1198 181.807 51.0545L181.988 50.92C182.006 50.9077 182.02 50.898 182.03 50.8907Z" fill="#DD936F"/>
<path d="M179.97 48.291C180.079 48.2239 180.221 48.2572 180.288 48.3652C180.355 48.4733 180.322 48.6152 180.214 48.6822C179.825 48.9225 179.394 49.4161 178.954 50.0843C178.766 50.3696 178.587 50.6718 178.419 50.9775L178.295 51.2072C178.242 51.3078 178.193 51.403 178.149 51.4914L178.04 51.7154C177.987 51.8309 177.849 51.8813 177.734 51.828C177.618 51.7747 177.568 51.638 177.621 51.5225L177.692 51.375C177.748 51.2595 177.814 51.131 177.887 50.9926C178.095 50.5972 178.325 50.2017 178.568 49.8315C179.042 49.1118 179.511 48.5751 179.97 48.291Z" fill="#DD936F"/>
<path fill-rule="evenodd" clip-rule="evenodd" d="M180.942 65.8572L173.139 59.5197L143.641 97.5546C140.78 101.547 141.844 107.115 145.977 109.778C150.108 112.442 155.632 111.12 158.105 106.878L180.942 65.8572Z" fill="#FFC999"/>
<path fill-rule="evenodd" clip-rule="evenodd" d="M142.388 98.9101L119.044 130.135C115.63 134.62 116.619 141.034 121.225 144.289C125.831 147.544 132.223 146.345 135.331 141.643L155.899 111.665L142.388 98.9101Z" fill="#01BF71"/>
<path d="M142.154 98.6891C142.265 98.5718 142.444 98.5565 142.573 98.6464L142.61 98.6765L156.12 111.432C156.224 111.53 156.249 111.682 156.188 111.807L156.165 111.847L135.597 141.825C135.496 141.971 135.296 142.009 135.149 141.908C135.016 141.817 134.972 141.644 135.041 141.503L135.065 141.461L155.477 111.71L142.167 99.1436C142.049 99.0327 142.034 98.8544 142.124 98.726L142.154 98.6891Z" fill="#253368"/>
<path fill-rule="evenodd" clip-rule="evenodd" d="M47.3184 60.582C47.3184 60.582 49.8746 57.4741 49.1921 53.8035C48.8543 51.9881 46.621 49.1567 45.4976 48.8596C43.7084 48.3869 40.6095 51.4614 41.256 52.7713C41.9024 54.0813 44.9124 52.4517 44.9124 52.4517C44.9124 52.4517 40.3323 58.8824 43.6517 61.0817C46.4386 62.9292 47.3184 60.582 47.3184 60.582Z" fill="#FFC999"/>
<path fill-rule="evenodd" clip-rule="evenodd" d="M45.0318 49.194C45.0318 49.194 41.5996 44.2661 39.3483 45.3979C37.639 46.5625 38.6483 47.8943 38.6483 47.8943C38.6483 47.8943 36.6219 48.3136 36.8507 50.5052C34.649 50.8228 35.3296 53.0414 35.3296 53.0414C35.3296 53.0414 33.0744 53.997 34.3209 57.6053C35.8575 62.0546 41.8458 71.2891 41.8458 71.2891L50.1223 64.989C50.1223 64.989 47.6028 61.8688 47.171 60.0283C46.7391 58.1879 49.6318 54.1932 45.0318 49.194Z" fill="#FFC999"/>
<path d="M44.5614 49.0019C44.6458 49.0972 44.6367 49.2427 44.5413 49.3269L44.3852 49.4668C44.2602 49.58 44.1208 49.7082 43.9706 49.8489C43.5417 50.2507 43.1129 50.6715 42.7131 51.0901C42.49 51.3237 42.2822 51.5503 42.0925 51.7679C41.5839 52.3512 41.2226 52.8496 41.0474 53.2279C40.8794 53.5907 40.9001 53.7469 41.0732 53.8079C42.2125 54.2098 43.1912 53.9131 44.0157 53.1635C44.2164 52.9809 44.3913 52.7849 44.5388 52.5891L44.6269 52.4674L44.6908 52.3679L44.7212 52.3222C44.8884 52.0779 45.2601 52.3114 45.1115 52.5674C45.0933 52.5987 45.0671 52.6404 45.0332 52.6907L45.0149 52.7169L44.9454 52.8298L44.848 52.9945C44.6542 53.329 44.4602 53.705 44.2792 54.1133C43.6453 55.5432 43.3295 56.9876 43.5005 58.3235C43.5675 58.8466 43.7095 59.3425 43.9322 59.8079C43.9871 59.9226 43.9384 60.06 43.8234 60.1148C43.7084 60.1696 43.5706 60.121 43.5157 60.0063C43.2713 59.4955 43.1159 58.9524 43.0428 58.3818C42.867 57.0091 43.1654 55.5536 43.7758 54.1146L43.8572 53.927L43.8912 53.8508L43.8555 53.8766C43.0438 54.4277 42.1004 54.6174 41.0464 54.2845L40.9194 54.242C40.4228 54.0669 40.362 53.6101 40.6285 53.0348C40.8262 52.6078 41.2093 52.0792 41.7443 51.4657C41.9389 51.2426 42.1513 51.0109 42.3789 50.7725C42.7852 50.3471 43.22 49.9205 43.6547 49.5132L43.8744 49.3092L44.2357 48.9818C44.3312 48.8976 44.477 48.9066 44.5614 49.0019Z" fill="#DD936F"/>
<path d="M35.4545 53.4196C35.5077 53.3041 35.6448 53.2535 35.7605 53.3066L35.9235 53.3869L36.1227 53.4928C36.1924 53.531 36.2651 53.5721 36.3404 53.6162C36.7706 53.8678 37.2007 54.1627 37.6031 54.4994C38.4304 55.1918 39.0329 55.9691 39.3107 56.8303C39.5146 57.4612 39.5979 58.0668 39.5332 58.4899C39.4986 58.7161 39.4169 58.8948 39.2977 59.0105L39.2679 59.0365L39.3046 59.0524C39.3757 59.0816 39.4472 59.1067 39.5188 59.1276L39.6264 59.1556C41.7267 59.6387 42.8983 60.8337 42.7626 63.023C42.7547 63.1499 42.6452 63.2464 42.518 63.2385C42.3908 63.2307 42.2941 63.1214 42.302 62.9945C42.4219 61.0598 41.4235 60.0414 39.5227 59.6043C38.7532 59.4273 38.0305 58.8556 37.4662 58.1077C37.2537 57.8261 37.0844 57.5415 36.9996 57.3308C36.9476 57.2017 36.925 57.1031 36.9461 57.0092C37.0023 56.7595 37.2285 56.7577 37.3939 56.8713C37.5133 56.9531 37.6175 57.0733 37.7307 57.2463L37.7798 57.3238C37.8489 57.4358 38.0991 57.8819 38.0845 57.8566C38.3447 58.3095 38.5484 58.554 38.7913 58.6623C38.9698 58.7418 39.0355 58.6919 39.077 58.4204C39.1293 58.0784 39.0553 57.5403 38.8715 56.9714C38.6241 56.2047 38.073 55.4936 37.3066 54.8522C36.9255 54.5333 36.5163 54.2527 36.1071 54.0134C35.9997 53.9507 35.8983 53.8942 35.8042 53.8443L35.6384 53.759C35.6066 53.7432 35.5828 53.7318 35.5678 53.725C35.452 53.6718 35.4013 53.5351 35.4545 53.4196Z" fill="#DD936F"/>
<path d="M37.1702 50.9501C37.2424 50.8453 37.386 50.8187 37.4911 50.8907L37.631 50.9917C37.7395 51.0722 37.8601 51.166 37.9897 51.2723C38.3598 51.5754 38.7298 51.918 39.0757 52.2939C39.7095 52.9825 40.1905 53.7039 40.4562 54.4453C40.8375 55.5105 40.564 56.2892 39.8783 56.779C39.6053 56.974 39.3341 57.0807 39.1441 57.125C39.02 57.154 38.8959 57.0771 38.8669 56.9533C38.8379 56.8294 38.915 56.7056 39.0391 56.6767L39.0895 56.6626C39.1213 56.6528 39.1625 56.6386 39.2108 56.6195C39.3471 56.5659 39.4835 56.4947 39.6097 56.4046C40.1327 56.0309 40.3314 55.4655 40.0216 54.6003C39.7794 53.9245 39.3312 53.2523 38.7358 52.6053C38.4056 52.2466 38.0512 51.9184 37.6969 51.6281L37.5183 51.4851L37.3554 51.361C37.2945 51.3157 37.2515 51.2852 37.2297 51.2702C37.1247 51.1982 37.0981 51.0549 37.1702 50.9501Z" fill="#DD936F"/>
<path d="M39.2337 48.3652C39.3009 48.2572 39.4431 48.2239 39.5514 48.291C40.0103 48.5751 40.4791 49.1119 40.9528 49.8316C41.1965 50.2017 41.4259 50.5972 41.6345 50.9926L41.7381 51.1924L41.9003 51.5225C41.9537 51.638 41.9032 51.7747 41.7874 51.828C41.6717 51.8813 41.5346 51.8309 41.4813 51.7154L41.4149 51.5774C41.3602 51.4658 41.297 51.3413 41.2262 51.2072C41.024 50.824 40.8018 50.4409 40.5671 50.0843C40.1273 49.4161 39.6961 48.9225 39.3081 48.6822C39.1998 48.6152 39.1665 48.4732 39.2337 48.3652Z" fill="#DD936F"/>
<path fill-rule="evenodd" clip-rule="evenodd" d="M38.5796 65.8572L46.3823 59.5197L75.8805 97.5546C78.741 101.547 77.6769 107.115 73.5454 109.778C69.4133 112.442 63.8897 111.12 61.4173 106.878L38.5796 65.8572Z" fill="#FFC999"/>
<path fill-rule="evenodd" clip-rule="evenodd" d="M77.1332 98.9101L100.477 130.135C103.892 134.62 102.903 141.034 98.297 144.289C93.6899 147.544 87.2981 146.345 84.1902 141.643L63.6226 111.665L77.1332 98.9101Z" fill="#01BF71"/>
<path d="M76.9115 98.6765C77.0408 98.5545 77.2447 98.5601 77.3671 98.6891C77.4783 98.8063 77.4837 98.9852 77.3867 99.1084L77.3545 99.1436L64.044 111.71L86.0334 143.631C86.125 143.764 86.1026 143.942 85.9876 144.049L85.9503 144.078C85.817 144.17 85.639 144.148 85.532 144.033L85.5022 143.996L63.3567 111.847C63.2758 111.73 63.2829 111.575 63.3692 111.466L63.4008 111.432L76.9115 98.6765Z" fill="#253368"/>
<path d="M131.12 134.099H119.137C118.956 134.099 118.811 134.248 118.815 134.428L119.028 143.752C119.031 143.864 119.092 143.967 119.189 144.023L125.559 147.692C125.668 147.755 125.805 147.749 125.908 147.675L131.308 143.806C131.392 143.746 131.442 143.649 131.442 143.545V134.421C131.442 134.243 131.298 134.099 131.12 134.099ZM130.797 134.742V143.38L125.7 147.032L119.668 143.556L119.467 134.742H130.797Z" fill="#253368"/>
<path d="M85.3893 140.571C85.5666 140.555 85.7235 140.685 85.7399 140.862C85.8349 141.888 85.9426 142.936 86.0626 144.004C86.5873 148.675 87.3341 153.637 88.2457 158.736C88.8608 162.176 89.517 165.49 90.1758 168.575L90.317 169.232C90.5192 170.168 90.7096 171.027 90.8849 171.799L91.1325 172.876L91.2579 173.407C91.2677 173.448 91.2694 173.49 91.263 173.532L91.2368 173.722L91.2067 173.976C91.1968 174.065 91.187 174.161 91.1776 174.261C91.0601 175.509 91.0493 176.83 91.2139 178.06C91.3938 179.404 91.7697 180.497 92.3675 181.249C92.4781 181.388 92.4547 181.59 92.3152 181.701C92.1758 181.811 91.9731 181.788 91.8625 181.649C91.1807 180.791 90.7689 179.594 90.5751 178.146C90.403 176.86 90.4142 175.493 90.5359 174.201L90.5661 173.905L90.6113 173.536L90.6165 173.496L90.4067 172.599L90.2563 171.941C90.0805 171.167 89.8896 170.306 89.687 169.368C88.9793 166.091 88.2717 162.542 87.6112 158.849C86.6973 153.738 85.9485 148.762 85.4221 144.076C85.3016 143.004 85.1935 141.952 85.0981 140.921C85.0817 140.744 85.2121 140.587 85.3893 140.571Z" fill="#253368"/>
<path d="M135.31 140.571C135.487 140.587 135.618 140.744 135.601 140.921C135.506 141.95 135.404 143.002 135.294 144.073C134.908 147.85 134.441 151.829 133.911 155.933L133.686 157.654C133.232 161.085 132.756 164.442 132.278 167.637L131.955 169.773C131.839 170.528 131.729 171.236 131.625 171.893L131.374 173.459L131.424 173.636L131.487 173.886C131.518 174.018 131.549 174.159 131.579 174.308C131.884 175.853 131.914 177.487 131.485 179.027C131.213 180.003 130.765 180.887 130.121 181.655C130.006 181.791 129.803 181.809 129.667 181.695C129.53 181.581 129.512 181.378 129.627 181.242C130.21 180.548 130.616 179.746 130.864 178.855C131.262 177.425 131.234 175.887 130.947 174.433C130.909 174.245 130.87 174.072 130.831 173.916L130.763 173.665C130.752 173.628 130.744 173.6 130.738 173.582C130.722 173.533 130.718 173.481 130.726 173.43L130.945 172.07L131.318 169.676C131.384 169.245 131.452 168.798 131.521 168.337C132.078 164.646 132.635 160.723 133.16 156.712L133.272 155.851C133.802 151.752 134.268 147.779 134.653 144.008C134.762 142.938 134.865 141.889 134.96 140.862C134.975 140.7 135.108 140.577 135.266 140.57L135.31 140.571Z" fill="#253368"/>
<path d="M127.615 185.715C127.742 185.715 127.846 185.819 127.846 185.946C127.846 186.06 127.762 186.155 127.652 186.173L127.615 186.176H94.5865C94.459 186.176 94.3557 186.073 94.3557 185.946C94.3557 185.831 94.4394 185.736 94.549 185.718L94.5865 185.715H127.615Z" fill="#597EF7"/>
<path d="M111.046 181.042C111.161 181.042 111.256 181.125 111.274 181.235L111.277 181.272V217.812C111.277 217.94 111.174 218.043 111.046 218.043C110.932 218.043 110.837 217.959 110.819 217.85L110.816 217.812V181.272C110.816 181.145 110.919 181.042 111.046 181.042Z" fill="#597EF7"/>
<path d="M130.074 180.917C130.252 180.917 130.396 181.061 130.396 181.238C130.396 181.401 130.275 181.536 130.118 181.557L130.074 181.56H92.2524C92.0745 181.56 91.9302 181.416 91.9302 181.238C91.9302 181.075 92.0514 180.941 92.2087 180.92L92.2524 180.917H130.074Z" fill="black"/>
<path fill-rule="evenodd" clip-rule="evenodd" d="M113.085 183.536C113.008 184.103 113.329 184.616 113.803 184.68C114.278 184.744 114.724 184.336 114.802 183.769C114.88 183.201 114.558 182.69 114.084 182.625C113.61 182.56 113.163 182.968 113.085 183.536Z" fill="white"/>
<path d="M115.879 185.836C115.994 185.836 116.089 185.92 116.107 186.029L116.11 186.067V202.983C116.11 204.212 115.524 205.364 114.536 206.089L114.428 206.165L111.412 208.223C111.307 208.295 111.163 208.268 111.091 208.163C111.027 208.07 111.042 207.946 111.119 207.87L111.152 207.843L114.168 205.785C115.061 205.174 115.608 204.178 115.646 203.103L115.648 202.983V186.067C115.648 185.939 115.752 185.836 115.879 185.836Z" fill="#597EF7"/>
</svg>
