<svg width="209" height="418" viewBox="0 0 209 418" fill="none" xmlns="http://www.w3.org/2000/svg">
<path fill-rule="evenodd" clip-rule="evenodd" d="M32.352 316.302C32.352 316.302 21.2025 315.216 18.1998 315.911C15.1113 318.298 16.3108 320.664 13.1795 323.895C10.0482 327.127 4.75482 334.013 9.35139 340.838C12.6903 341.856 14.36 339.806 16.3396 337.261C24.4992 326.771 25.7128 328.779 30.1563 327.066C36.9743 324.438 37.0025 316.539 32.352 316.302Z" fill="#253368"/>
<path fill-rule="evenodd" clip-rule="evenodd" d="M95.5694 176.148L94.4171 160.269L80.1198 161.188L79.4848 176.396C79.2932 180.989 82.9786 184.811 87.5758 184.788C92.2385 184.764 95.9068 180.799 95.5694 176.148Z" fill="#FFC999"/>
<path fill-rule="evenodd" clip-rule="evenodd" d="M98.1135 158.566C98.1135 158.566 100.297 156.298 101.22 157.82C102.144 159.342 100.541 164.792 98.1698 164.937C95.0042 165.131 98.1135 158.566 98.1135 158.566Z" fill="#CCD7EE"/>
<path fill-rule="evenodd" clip-rule="evenodd" d="M84.3438 172.543C84.3438 172.543 89.0016 176.344 95.1559 172.556C99.5853 169.83 100.113 159.991 99.243 152.772C98.7513 148.687 96.863 146.492 92.8769 145.292C88.8901 144.091 78.0879 144.074 78.045 156.098C77.9979 169.491 84.3438 172.543 84.3438 172.543Z" fill="#FFC999"/>
<path d="M92.3349 154.686C92.4393 154.713 92.5073 154.81 92.5004 154.913L92.4942 154.952L91.8681 157.447L93.2356 164.25C93.2602 164.373 93.178 164.488 93.0596 164.509L93.023 164.513L90.1421 164.544C90.0211 164.545 89.9219 164.448 89.9205 164.327C89.9194 164.218 89.9979 164.127 90.1019 164.109L90.1374 164.106L92.7531 164.077L91.4287 157.486C91.4244 157.464 91.4233 157.443 91.4254 157.421L91.431 157.389L92.069 154.846C92.0952 154.741 92.1922 154.673 92.2959 154.68L92.3349 154.686Z" fill="#DD936F"/>
<path d="M87.7673 166.232C87.8091 166.068 87.9759 165.969 88.1397 166.011L88.2279 166.031C88.2553 166.037 88.2877 166.044 88.3252 166.051C88.4846 166.083 88.6723 166.115 88.8868 166.145C90.0649 166.31 91.4717 166.345 93.0497 166.166C93.2177 166.146 93.3693 166.267 93.3884 166.435C93.4075 166.603 93.2868 166.755 93.1187 166.774C91.4871 166.959 90.029 166.924 88.8019 166.752L88.5431 166.713C88.4612 166.699 88.3838 166.686 88.3109 166.672L88.2049 166.652C88.1005 166.631 88.0278 166.614 87.9881 166.604C87.8243 166.562 87.7254 166.395 87.7673 166.232Z" fill="#FF7946"/>
<path fill-rule="evenodd" clip-rule="evenodd" d="M79.4221 161.25L77.0727 156.621C77.0727 156.621 75.5799 149.944 77.1229 147.069C79.517 142.609 85.0081 142.723 88.2662 141.53C91.5243 140.337 91.4918 139.24 92.815 139.421C94.137 139.602 99.2601 143.166 99.8388 146.899C100.348 150.18 99.521 158.543 99.521 158.543C99.521 158.543 98.5903 151.139 97.8745 149.185C95.2906 148.109 85.9045 148.065 81.9889 149.278C81.9889 149.278 81.6521 151.798 81.458 153.574C79.3621 155.077 79.4221 161.25 79.4221 161.25Z" fill="#253368"/>
<path d="M95.2427 172.138C95.3242 172.049 95.4628 172.042 95.5523 172.124C95.6418 172.205 95.6483 172.344 95.5669 172.433L95.5127 172.49C95.4486 172.553 95.3545 172.639 95.2301 172.74C94.9576 172.962 94.6297 173.183 94.2456 173.388C92.0613 174.558 89.1597 174.752 85.5301 173.362C85.417 173.319 85.3605 173.192 85.4038 173.079C85.4471 172.966 85.5738 172.909 85.6869 172.952C89.1971 174.297 91.966 174.112 94.0386 173.002C94.3973 172.81 94.702 172.604 94.9534 172.4L95.0549 172.315C95.1467 172.236 95.2092 172.175 95.2427 172.138Z" fill="#DD936F"/>
<path d="M92.1331 157.022C92.375 157.011 92.5794 157.199 92.5896 157.441C92.5991 157.667 92.4362 157.86 92.2177 157.893L92.1701 157.898L90.0515 157.987C89.8096 157.997 89.6052 157.809 89.595 157.567C89.5855 157.342 89.7485 157.149 89.9669 157.115L90.0145 157.111L92.1331 157.022Z" fill="#253368"/>
<path d="M90.2366 158.446C90.6671 158.258 91.1077 158.158 91.54 158.197C91.9425 158.234 92.307 158.394 92.6061 158.69C92.7783 158.86 92.7799 159.137 92.6097 159.31C92.4517 159.47 92.2011 159.482 92.0282 159.347L91.9897 159.313C91.8403 159.166 91.6665 159.09 91.4598 159.071C91.198 159.047 90.8945 159.116 90.5878 159.25C90.4248 159.321 90.3013 159.391 90.239 159.433C90.0379 159.568 89.7655 159.514 89.6308 159.313C89.496 159.112 89.5499 158.839 89.751 158.705C89.8535 158.636 90.0209 158.541 90.2366 158.446Z" fill="#253368"/>
<path d="M91.8221 168.345C91.9431 168.342 92.0441 168.437 92.0476 168.558C92.0508 168.667 91.974 168.759 91.8704 168.779L91.835 168.783L90.1077 168.834C89.9867 168.838 89.8857 168.742 89.8821 168.621C89.8789 168.513 89.9557 168.42 90.0593 168.4L90.0948 168.396L91.8221 168.345Z" fill="#DD936F"/>
<path d="M82.1689 157.323C82.411 157.318 82.6118 157.509 82.6175 157.751C82.6229 157.977 82.4563 158.167 82.2373 158.196L82.1896 158.2L78.7135 158.282C78.4715 158.288 78.2706 158.096 78.2649 157.854C78.2596 157.628 78.4261 157.438 78.6451 157.409L78.6928 157.406L82.1689 157.323Z" fill="#253368"/>
<path fill-rule="evenodd" clip-rule="evenodd" d="M82.4196 157.068L89.0552 156.874C89.5187 156.86 89.9051 157.223 89.9155 157.687C89.9344 158.551 89.9265 159.938 89.7361 161.132C89.512 162.539 88.2788 163.432 86.8582 163.539C85.0831 163.674 83.4881 163.722 82.6547 162.824C81.3848 161.454 81.6181 159.132 81.6083 157.906C81.6046 157.456 81.9702 157.081 82.4196 157.068Z" fill="white"/>
<path d="M89.0509 156.728L82.4153 156.922C81.8859 156.937 81.4579 157.378 81.4622 157.907L81.4569 158.474L81.4527 158.805C81.4463 159.535 81.4654 159.994 81.538 160.521C81.6751 161.518 81.9892 162.321 82.5476 162.923C83.3039 163.739 84.4398 163.869 86.8692 163.685C88.42 163.568 89.6536 162.578 89.8802 161.155C90.042 160.141 90.0889 158.934 90.0614 157.684C90.0492 157.14 89.5959 156.712 89.0509 156.728ZM82.4238 157.214L89.0594 157.02C89.4428 157.009 89.7608 157.309 89.7694 157.69C89.7965 158.924 89.7503 160.115 89.5918 161.109C89.3879 162.389 88.2705 163.286 86.8472 163.394L86.5294 163.416C84.4123 163.558 83.4003 163.413 82.7618 162.724C82.2498 162.172 81.957 161.423 81.8273 160.481C81.7621 160.007 81.7414 159.587 81.7438 158.954L81.7545 157.94C81.7545 157.928 81.7544 157.917 81.7543 157.905C81.7513 157.535 82.0528 157.225 82.4238 157.214Z" fill="#253368"/>
<path fill-rule="evenodd" clip-rule="evenodd" d="M92.7672 156.691L100.28 156.472C100.59 157.562 100.446 161.815 99.1836 162.762C97.4826 163.717 93.9826 163.427 93.4138 162.522C92.5505 161.147 92.1678 158.489 92.1482 157.341C92.142 156.991 92.417 156.702 92.7672 156.691Z" fill="white"/>
<path d="M100.275 156.326L92.7629 156.546C92.3328 156.558 91.9946 156.913 92.0021 157.344C92.0299 158.972 92.5424 161.409 93.2901 162.6C93.9374 163.63 97.5665 163.837 99.255 162.889C100.399 162.033 100.871 158.016 100.42 156.432C100.402 156.367 100.342 156.324 100.275 156.326ZM100.167 156.621L100.184 156.693C100.525 158.288 100.064 161.919 99.0959 162.645C97.5435 163.515 94.0862 163.318 93.5374 162.444C92.8234 161.307 92.3211 158.919 92.2941 157.339C92.2894 157.068 92.5014 156.845 92.7715 156.837L100.167 156.621Z" fill="#253368"/>
<path d="M89.9307 156.671C90.1728 156.67 90.3697 156.866 90.3704 157.108C90.3711 157.334 90.2007 157.52 89.9811 157.545L89.9334 157.548L81.7021 157.573C81.46 157.573 81.2631 157.378 81.2624 157.136C81.2617 156.91 81.4321 156.723 81.6517 156.699L81.6995 156.696L89.9307 156.671Z" fill="#253368"/>
<path d="M100.327 156.197C100.569 156.187 100.773 156.375 100.784 156.616C100.794 156.842 100.631 157.036 100.412 157.069L100.365 157.073L92.3075 157.422C92.0656 157.433 91.861 157.245 91.8505 157.003C91.8407 156.778 92.0035 156.584 92.2219 156.551L92.2695 156.546L100.327 156.197Z" fill="#253368"/>
<path fill-rule="evenodd" clip-rule="evenodd" d="M78.3639 157.508C77.5244 156.625 76.2104 156.37 75.2693 157.368C73.752 158.976 75.0795 165.029 79.1232 165.325C80.6619 165.129 79.6742 158.886 78.3639 157.508Z" fill="#FFC999"/>
<path d="M76.3706 158.168C76.4144 158.055 76.5415 157.999 76.6543 158.043L76.7324 158.076C76.7789 158.097 76.8358 158.125 76.9008 158.16C77.0799 158.255 77.2589 158.372 77.4268 158.511C78.0363 159.014 78.3465 159.672 78.171 160.475C78.1041 160.781 77.9664 160.946 77.7076 161.105L77.5966 161.169C77.3752 161.294 77.3201 161.356 77.302 161.546C77.2675 161.909 77.4352 162.178 77.7538 162.382C77.8611 162.451 77.9776 162.506 78.0941 162.549L78.1684 162.575C78.2009 162.585 78.226 162.592 78.2418 162.596C78.3598 162.623 78.4334 162.74 78.4062 162.858C78.3791 162.976 78.2614 163.05 78.1434 163.023C77.9817 162.986 77.7508 162.901 77.5172 162.751C77.0722 162.466 76.8136 162.051 76.8655 161.504C76.898 161.165 77.0284 160.999 77.3167 160.825L77.4234 160.763C77.6285 160.647 77.7018 160.569 77.7427 160.382C77.8787 159.76 77.6415 159.257 77.1475 158.849C77.0039 158.73 76.849 158.629 76.6942 158.546L76.5951 158.496C76.5516 158.475 76.5176 158.46 76.4955 158.451C76.3827 158.407 76.3267 158.28 76.3706 158.168Z" fill="#DD936F"/>
<path d="M89.5735 154.024C89.6111 154.36 89.3691 154.663 89.033 154.701L86.8624 154.953L86.3186 155.012C84.7523 155.174 83.7636 155.212 83.1492 155.092C82.8174 155.027 82.601 154.705 82.666 154.373C82.731 154.041 83.0527 153.825 83.3846 153.89C83.8409 153.979 84.7761 153.94 86.2248 153.79L86.8582 153.722L88.897 153.484C89.2331 153.446 89.536 153.688 89.5735 154.024Z" fill="#253368"/>
<path d="M93.6133 153.414C94.6087 153.039 95.618 152.836 96.5839 152.901C97.325 152.95 98.0059 153.159 98.6025 153.551C98.8852 153.737 98.9638 154.117 98.7782 154.399C98.5925 154.682 98.2129 154.761 97.9303 154.575C97.5201 154.306 97.0423 154.159 96.5019 154.123C95.7367 154.071 94.8907 154.242 94.0453 154.56C93.7824 154.659 93.5397 154.766 93.3238 154.871L93.1151 154.978C93.0959 154.988 93.0804 154.997 93.0686 155.004C92.7755 155.173 92.4012 155.072 92.2324 154.779C92.0636 154.486 92.1643 154.112 92.4574 153.943L92.5785 153.876C92.8211 153.745 93.1755 153.579 93.6133 153.414Z" fill="#253368"/>
<path d="M87.0079 158.556C87.1769 158.551 87.318 158.684 87.323 158.853C87.3504 159.778 86.7049 160.562 85.8589 160.587C85.013 160.612 84.3227 159.866 84.296 158.942C84.2912 158.773 84.4242 158.632 84.5932 158.627C84.7622 158.622 84.9032 158.755 84.9081 158.924C84.9255 159.527 85.3531 159.989 85.8409 159.975C86.329 159.961 86.7289 159.475 86.711 158.871C86.706 158.702 86.8389 158.561 87.0079 158.556Z" fill="#5C4E4A"/>
<path d="M96.3847 158.282C96.5537 158.277 96.6948 158.41 96.6998 158.579C96.7272 159.504 96.0814 160.288 95.236 160.312C94.3896 160.338 93.6995 159.592 93.6728 158.667C93.6679 158.498 93.801 158.357 93.97 158.353C94.139 158.348 94.28 158.481 94.2848 158.65C94.3023 159.254 94.7294 159.715 95.218 159.7C95.7058 159.686 96.1056 159.201 96.0877 158.597C96.0827 158.428 96.2157 158.287 96.3847 158.282Z" fill="#5C4E4A"/>
<path fill-rule="evenodd" clip-rule="evenodd" d="M127.875 327.515C127.875 327.515 126.181 340.842 127.172 343.76C129.852 346.596 132.586 344.879 136.112 347.674C139.639 350.468 147.018 355.051 153.352 349.799C154.033 346.375 151.827 344.917 149.098 343.201C137.848 336.124 140.95 332.88 138.804 328.629C135.511 322.106 127.648 322.864 127.875 327.515Z" fill="#253368"/>
<path fill-rule="evenodd" clip-rule="evenodd" d="M198.676 166.934H159.606C158.221 166.934 157.098 168.057 157.098 169.442V204.529C157.098 205.914 158.221 207.037 159.606 207.037H198.676C200.061 207.037 201.184 205.914 201.184 204.529V169.442C201.184 168.057 200.061 166.934 198.676 166.934Z" fill="#ADC6FF"/>
<path fill-rule="evenodd" clip-rule="evenodd" d="M198.676 166.657H159.606C158.221 166.657 157.098 167.779 157.098 169.164V172.676H201.184V169.164C201.184 167.779 200.061 166.657 198.676 166.657Z" fill="#4E5C93"/>
<path fill-rule="evenodd" clip-rule="evenodd" d="M191.368 169.766C191.368 170.301 190.934 170.736 190.398 170.736C189.863 170.736 189.428 170.301 189.428 169.766C189.428 169.23 189.863 168.796 190.398 168.796C190.934 168.796 191.368 169.23 191.368 169.766Z" fill="white"/>
<path fill-rule="evenodd" clip-rule="evenodd" d="M194.555 169.766C194.555 170.301 194.121 170.736 193.585 170.736C193.049 170.736 192.615 170.301 192.615 169.766C192.615 169.23 193.049 168.796 193.585 168.796C194.121 168.796 194.555 169.23 194.555 169.766Z" fill="white"/>
<path fill-rule="evenodd" clip-rule="evenodd" d="M197.88 169.766C197.88 170.301 197.446 170.736 196.91 170.736C196.375 170.736 195.94 170.301 195.94 169.766C195.94 169.23 196.375 168.796 196.91 168.796C197.446 168.796 197.88 169.23 197.88 169.766Z" fill="#FFC999"/>
<path fill-rule="evenodd" clip-rule="evenodd" d="M162.322 193.601H196.509V176.24H162.322V193.601Z" fill="white"/>
<path fill-rule="evenodd" clip-rule="evenodd" d="M176.877 182.696C176.877 185.445 174.648 187.673 171.899 187.673C169.15 187.673 166.922 185.445 166.922 182.696C166.922 179.947 169.15 177.719 171.899 177.719C174.648 177.719 176.877 179.947 176.877 182.696Z" fill="#FF7A46"/>
<path fill-rule="evenodd" clip-rule="evenodd" d="M196.109 193.673H163.188C163.188 193.673 166.942 186.096 169.761 185.476C175.327 184.252 176.527 190.44 179.39 190.44C182.254 190.44 184.378 180.28 188.397 180.28C192.415 180.28 196.109 193.673 196.109 193.673Z" fill="#01BF71"/>
<path fill-rule="evenodd" clip-rule="evenodd" d="M161.254 198.661H196.862V196.998H161.254V198.661Z" fill="white"/>
<path fill-rule="evenodd" clip-rule="evenodd" d="M174.694 202.125H161.255V200.463H183.146V202.125H174.694Z" fill="white"/>
<path fill-rule="evenodd" clip-rule="evenodd" d="M145.972 193.149C145.972 193.149 151.094 185.273 153.163 183.894C155.232 182.514 157.531 182.859 162.243 181.825C166.008 180.998 162.358 185.043 156.611 186.192V198.432C156.611 198.432 153.975 201.164 149.256 200.789C144.536 200.414 144.543 197.686 145.972 193.149Z" fill="#FFC999"/>
<path fill-rule="evenodd" clip-rule="evenodd" d="M122.63 235.849C118.485 237.452 113.817 235.48 112.076 231.391L97.4228 196.957C95.3226 192.023 97.7271 186.33 102.728 184.396C107.73 182.462 113.339 185.054 115.106 190.117L127.437 225.45C128.901 229.645 126.775 234.246 122.63 235.849Z" fill="#FFC999"/>
<path fill-rule="evenodd" clip-rule="evenodd" d="M123.003 211.844L115.115 189.553C113.348 184.49 107.739 181.897 102.737 183.831C97.7359 185.766 95.3314 191.459 97.4316 196.393L108.177 222.189C108.177 222.189 115.073 217.821 123.003 211.844Z" fill="#01BF71"/>
<path fill-rule="evenodd" clip-rule="evenodd" d="M94.4214 329.157C89.2578 330.301 84.1144 327.156 82.7766 322.039L67.8651 264.995C66.1341 258.373 70.2506 251.637 76.9333 250.158C83.6166 248.679 90.1909 253.047 91.4168 259.781L101.974 317.79C102.921 322.993 99.5855 328.014 94.4214 329.157Z" fill="#4E5C93"/>
<path fill-rule="evenodd" clip-rule="evenodd" d="M29.5401 314.627L91.4362 310.006C97.0112 309.463 101.886 313.742 102.071 319.341C102.25 324.747 97.9743 329.255 92.5665 329.362L29.6399 331.106C29.6399 331.106 26.7505 323.196 29.5401 314.627Z" fill="#4E5C93"/>
<path fill-rule="evenodd" clip-rule="evenodd" d="M75.2184 191.088C75.2184 191.453 74.9226 191.748 74.5571 191.748C74.1922 191.748 73.8964 191.453 73.8964 191.088C73.8964 190.723 74.1922 190.427 74.5571 190.427C74.9226 190.427 75.2184 190.723 75.2184 191.088Z" fill="#ADC6FF"/>
<path fill-rule="evenodd" clip-rule="evenodd" d="M66.4462 240.403C80.2959 241.782 98.3681 242.893 104.029 239.637C106.496 238.217 106.267 236.276 105.064 233.085C105.064 233.085 112.487 201.788 111.452 184.72C106.214 181.809 103.685 181.537 96.6163 178.434C95.0984 177.768 90.8337 180.471 88.8743 180.378C85.9787 180.241 81.1201 177.144 78.4192 177.744C69.8941 179.641 64.7225 182.055 64.7225 182.055C64.7225 182.055 64.3772 217.646 65.412 229.025C60.9293 237.645 66.4462 240.403 66.4462 240.403Z" fill="#01BF71"/>
<path fill-rule="evenodd" clip-rule="evenodd" d="M95.5916 175.41L98.0053 178.858L94.9022 186.444L88.1785 180.41L95.5916 175.41Z" fill="#01BF71"/>
<path fill-rule="evenodd" clip-rule="evenodd" d="M88.351 180.237L79.464 174.65L75.4026 178.71L81.721 186.142L88.351 180.237Z" fill="#01BF71"/>
<path d="M97.5451 178.935C97.6073 178.777 97.7852 178.7 97.9424 178.763C98.0865 178.82 98.1633 178.974 98.1271 179.12L98.1144 179.16L95.187 186.557C95.1138 186.741 94.8897 186.806 94.7311 186.698L94.6982 186.672L88.3445 180.987L81.918 186.377C81.7957 186.479 81.6178 186.469 81.5072 186.361L81.4788 186.329L76.2031 179.483C76.0999 179.349 76.1248 179.157 76.2588 179.054C76.3805 178.96 76.5504 178.972 76.6579 179.076L76.6881 179.11L81.7688 185.702L88.1546 180.348C88.2582 180.261 88.4047 180.253 88.5156 180.324L88.5554 180.354L94.779 185.922L97.5451 178.935Z" fill="#253368"/>
<path d="M109.687 190.736C109.856 190.745 109.985 190.889 109.976 191.058C109.966 191.266 109.952 191.477 109.937 191.691C109.825 193.258 109.603 194.93 109.303 196.631C109.166 197.404 109.021 198.14 108.875 198.822L108.744 199.418L108.598 200.041L108.605 200.525C108.729 210.449 108.067 218.701 106.88 225.359L106.817 225.708C106.443 227.758 106.043 229.509 105.641 230.967L105.574 231.208C105.444 231.67 105.322 232.072 105.21 232.416L105.131 232.654L105.053 232.877L105.136 233.037C105.248 233.262 105.36 233.516 105.464 233.792C105.873 234.873 106.054 235.979 105.877 237.026C105.631 238.469 104.719 239.63 103.033 240.383C102.879 240.452 102.698 240.383 102.629 240.229C102.56 240.074 102.629 239.893 102.784 239.824C104.284 239.154 105.062 238.163 105.273 236.923C105.43 236 105.265 234.997 104.891 234.008C104.794 233.752 104.691 233.518 104.587 233.31L104.531 233.199C104.497 233.135 104.471 233.087 104.454 233.059C104.407 232.978 104.398 232.88 104.432 232.793L104.49 232.635C104.515 232.564 104.546 232.474 104.582 232.366L104.675 232.078C104.772 231.776 104.875 231.431 104.985 231.042C105.404 229.555 105.823 227.743 106.214 225.598C107.434 218.919 108.118 210.592 107.993 200.533L107.986 200.011L107.995 199.932L108.055 199.683L108.115 199.423C108.147 199.286 108.18 199.138 108.214 198.98C108.38 198.227 108.545 197.399 108.7 196.525C108.996 194.843 109.216 193.191 109.326 191.647C109.341 191.437 109.354 191.23 109.365 191.025C109.374 190.857 109.518 190.727 109.687 190.736Z" fill="#253368"/>
<path d="M88.4873 181.542C88.6552 181.523 88.8074 181.643 88.8272 181.811L88.8645 182.158C88.8897 182.405 88.9173 182.696 88.9469 183.031L88.9995 183.651C89.0748 184.572 89.1495 185.634 89.221 186.84L89.2564 187.455C89.9465 199.77 89.895 217.217 88.5993 240.25C88.5898 240.419 88.4452 240.548 88.2764 240.538C88.1076 240.529 87.9784 240.384 87.9879 240.216L88.1011 238.16C89.2848 216.164 89.3132 199.412 88.6451 187.49L88.5919 186.579C88.5202 185.402 88.4455 184.368 88.3705 183.475L88.3083 182.767L88.2417 182.088C88.2314 181.99 88.2238 181.922 88.2192 181.882C88.1993 181.714 88.3194 181.562 88.4873 181.542Z" fill="#253368"/>
<path fill-rule="evenodd" clip-rule="evenodd" d="M90.9805 188.598C91.0368 189.14 91.4489 189.542 91.9008 189.495C92.3533 189.448 92.6741 188.97 92.6172 188.428C92.5608 187.885 92.1488 187.484 91.6969 187.531C91.245 187.577 90.9241 188.055 90.9805 188.598Z" fill="white"/>
<path fill-rule="evenodd" clip-rule="evenodd" d="M90.9556 197.787C91.012 198.33 91.4241 198.731 91.8759 198.684C92.3284 198.637 92.6487 198.16 92.5923 197.617C92.536 197.075 92.1239 196.673 91.6714 196.72C91.2195 196.767 90.8993 197.245 90.9556 197.787Z" fill="white"/>
<path fill-rule="evenodd" clip-rule="evenodd" d="M90.9287 208.509C90.9851 209.052 91.3977 209.453 91.849 209.406C92.3015 209.359 92.6224 208.881 92.5654 208.339C92.5097 207.796 92.097 207.395 91.6451 207.442C91.1932 207.489 90.8724 207.966 90.9287 208.509Z" fill="white"/>
<path fill-rule="evenodd" clip-rule="evenodd" d="M90.808 220.147C90.8643 220.69 91.2764 221.091 91.7283 221.044C92.1808 220.997 92.5016 220.519 92.4447 219.977C92.3883 219.434 91.9763 219.033 91.5244 219.08C91.0725 219.126 90.7517 219.605 90.808 220.147Z" fill="white"/>
<path fill-rule="evenodd" clip-rule="evenodd" d="M90.5066 232.645C90.5629 233.187 90.9756 233.589 91.4275 233.542C91.8794 233.495 92.2002 233.017 92.1439 232.475C92.0876 231.932 91.6749 231.531 91.223 231.578C90.7711 231.625 90.4503 232.102 90.5066 232.645Z" fill="white"/>
<path fill-rule="evenodd" clip-rule="evenodd" d="M146.189 192.716L152.139 199.546L126.091 233.962C122.997 237.464 117.604 237.67 114.251 234.415C110.898 231.16 110.945 225.763 114.354 222.567L146.189 192.716Z" fill="#FFC999"/>
<path fill-rule="evenodd" clip-rule="evenodd" d="M65.9388 244.198C65.9388 244.198 94.6032 244.694 103.005 243.853C104.801 243.674 104.891 248.946 106.77 261.187C103.742 266.784 98.0015 272.948 90.4096 272.737C77.9969 272.392 66.6326 269.323 65.3541 261.014C64.435 255.038 64.6132 249.046 65.9388 244.198Z" fill="#ADC6FF"/>
<path fill-rule="evenodd" clip-rule="evenodd" d="M103.658 239.885L104.092 244.529C104.092 244.529 101.976 244.716 90.4197 244.716C78.6965 244.716 65.9446 244.418 65.9446 244.418L66.5055 240.052C66.5055 240.052 88.8681 239.885 103.658 239.885Z" fill="#ADC6FF"/>
<path fill-rule="evenodd" clip-rule="evenodd" d="M146.992 261.781C146.942 267.07 142.721 271.373 137.434 271.524L78.4959 273.2C71.654 273.395 66.0196 267.867 66.0834 261.023C66.1482 254.178 71.8849 248.757 78.7225 249.08L137.618 251.862C142.901 252.111 147.042 256.493 146.992 261.781Z" fill="#ADC6FF"/>
<path fill-rule="evenodd" clip-rule="evenodd" d="M125.434 329.752L127.475 261.803C127.49 256.202 132.234 251.778 137.824 252.152C143.22 252.512 147.28 257.217 146.847 262.608L141.302 329.217C141.302 329.217 135.071 333.674 125.434 329.752Z" fill="#ADC6FF"/>
<path d="M163.314 182.395C163.36 182.283 163.489 182.23 163.601 182.276C163.712 182.322 163.766 182.45 163.72 182.562C163.219 183.778 161.989 184.715 160.259 185.422C159.467 185.746 158.62 186 157.774 186.193C157.537 186.246 157.314 186.292 157.107 186.331L156.821 186.381L156.807 186.579C156.785 186.877 156.753 187.208 156.71 187.566C156.588 188.586 156.402 189.607 156.137 190.562C155.384 193.273 154.156 194.951 152.311 195.031C152.19 195.036 152.088 194.943 152.083 194.822C152.077 194.701 152.171 194.598 152.292 194.593C153.886 194.524 155.007 192.991 155.714 190.445C155.973 189.514 156.155 188.514 156.275 187.513C156.309 187.233 156.335 186.969 156.356 186.725L156.383 186.351C156.388 186.277 156.391 186.22 156.393 186.183C156.397 186.077 156.477 185.989 156.582 185.975L156.767 185.946L156.88 185.927C157.12 185.884 157.388 185.831 157.677 185.765C158.501 185.577 159.325 185.33 160.093 185.016C161.725 184.349 162.869 183.478 163.314 182.395Z" fill="#DD936F"/>
<path d="M125.723 211.565C125.846 211.448 126.039 211.453 126.156 211.576C126.262 211.687 126.268 211.857 126.176 211.975L126.145 212.008L117.171 220.549C117.048 220.666 116.854 220.661 116.738 220.539C116.632 220.427 116.626 220.257 116.718 220.139L116.749 220.106L125.723 211.565Z" fill="#F4B784"/>
<path d="M74.2183 199.678C74.3732 199.686 74.4957 199.807 74.509 199.957L74.5098 199.998L73.4756 222.066C73.4677 222.235 73.3244 222.365 73.1555 222.357C73.0007 222.35 72.8781 222.229 72.8649 222.079L72.864 222.037L73.8982 199.97C73.9061 199.801 74.0494 199.67 74.2183 199.678Z" fill="#597EF7"/>
<path fill-rule="evenodd" clip-rule="evenodd" d="M107.626 229.583L106.41 238.81L62.7034 237.076C58.0401 236.77 54.5787 232.63 55.1029 227.987C55.627 223.344 59.9248 220.08 64.5385 220.821L107.626 229.583Z" fill="#FFC999"/>
<path fill-rule="evenodd" clip-rule="evenodd" d="M62.2521 236.967C57.8288 236.539 54.5426 232.68 54.823 228.245L57.1853 190.897C57.5233 185.545 62.227 181.538 67.5645 182.054C72.9019 182.571 76.7509 187.406 76.0565 192.723L71.2156 229.831C70.6407 234.237 66.6754 237.395 62.2521 236.967Z" fill="#FFC999"/>
<path fill-rule="evenodd" clip-rule="evenodd" d="M73.5818 218.625L76.0568 192.608C76.7505 187.291 72.9022 182.456 67.5647 181.94C62.2272 181.424 57.5235 185.431 57.1849 190.782L55.585 216.909L73.5818 218.625Z" fill="#01BF71"/>
<path fill-rule="evenodd" clip-rule="evenodd" d="M113.775 226.41C116.758 226.225 117.482 226.398 121.812 225.669C126.143 224.94 122.979 228.946 116.957 229.437C116.326 230.397 123.152 233.02 127.899 231.574C131.319 231.016 127.275 234.576 127.275 234.231C127.276 233.886 127.698 235.735 125.919 236.766C126.073 238.32 123.257 238.962 123.257 238.962C123.257 238.962 122.648 240.238 119.53 240.274C116.773 240.307 105.382 239.598 103.934 238.537C103.934 238.537 102.919 233.303 105.959 230.35C105.959 230.35 110.793 226.595 113.775 226.41Z" fill="#FFC999"/>
<path d="M118.353 234.077C119.737 234.436 121.056 234.632 122.305 234.686L122.968 234.712C125.436 234.798 126.436 234.7 126.895 234.397C126.996 234.33 127.132 234.358 127.199 234.459C127.265 234.56 127.238 234.696 127.137 234.763C126.527 235.166 125.351 235.256 122.286 235.124C121.006 235.068 119.657 234.868 118.243 234.501C118.126 234.47 118.056 234.351 118.086 234.234C118.113 234.129 118.211 234.062 118.314 234.07L118.353 234.077Z" fill="#DD936F"/>
<path d="M117.352 236.288C117.386 236.172 117.508 236.105 117.624 236.139C120.382 236.946 122.845 237.007 124.865 236.628C125.066 236.59 125.248 236.55 125.408 236.51L125.524 236.479C125.635 236.45 125.709 236.427 125.745 236.415C125.859 236.375 125.984 236.436 126.023 236.551C126.062 236.665 126.001 236.79 125.887 236.829L125.829 236.848C125.782 236.863 125.719 236.881 125.638 236.903C125.44 236.956 125.209 237.009 124.946 237.059C122.862 237.45 120.329 237.387 117.501 236.56C117.385 236.526 117.318 236.404 117.352 236.288Z" fill="#DD936F"/>
<path d="M116.135 237.899C116.181 237.787 116.309 237.734 116.421 237.78C117.098 238.056 118.048 238.234 119.197 238.325C120.313 238.412 121.507 238.412 122.626 238.359L123.067 238.334C123.144 238.329 123.197 238.325 123.225 238.323C123.346 238.313 123.451 238.403 123.461 238.524C123.47 238.645 123.38 238.75 123.26 238.76L123.096 238.771L122.769 238.79C122.729 238.793 122.689 238.795 122.647 238.797C121.511 238.851 120.3 238.851 119.163 238.762C117.972 238.668 116.982 238.483 116.255 238.185C116.143 238.139 116.089 238.011 116.135 237.899Z" fill="#DD936F"/>
<path d="M121.853 225.183C124.053 224.812 124.776 225.743 123.497 226.983C122.336 228.109 120.028 229.069 117.434 229.349L117.231 229.37C117.24 229.389 117.253 229.409 117.269 229.432L117.298 229.469C117.412 229.614 117.623 229.785 117.914 229.966C118.537 230.352 119.465 230.748 120.514 231.063C122.975 231.803 125.586 231.989 127.644 231.42L127.836 231.364L127.899 231.355C128.708 231.355 129.201 231.522 129.39 231.883C129.559 232.206 129.449 232.596 129.144 233.043C128.775 233.582 128.136 234.182 127.536 234.652L127.408 234.75C127.332 234.808 127.312 234.842 127.313 234.964L127.317 235.06C127.348 235.647 127.141 236.047 126.303 236.569L126.222 236.618L126.222 236.646C126.213 237.347 125.702 237.908 124.869 238.349L124.767 238.401C124.464 238.554 124.141 238.68 123.818 238.784C123.743 238.808 123.671 238.829 123.604 238.848L123.479 238.882L123.456 238.917C123.338 239.086 123.133 239.287 122.816 239.485L122.727 239.538C122.014 239.955 120.993 240.208 119.61 240.224L119.239 240.227C114.865 240.239 107.002 239.619 104.546 238.8C104.431 238.762 104.369 238.638 104.407 238.523C104.445 238.408 104.569 238.346 104.684 238.384C107.151 239.207 115.368 239.836 119.605 239.786C120.915 239.77 121.862 239.536 122.505 239.16C122.731 239.028 122.901 238.889 123.022 238.752C123.079 238.688 123.113 238.64 123.13 238.612L123.137 238.598C123.166 238.538 123.221 238.494 123.286 238.479L123.419 238.445C123.491 238.425 123.581 238.399 123.685 238.366C123.987 238.269 124.29 238.151 124.57 238.01C125.387 237.599 125.836 237.098 125.778 236.519C125.77 236.433 125.812 236.351 125.887 236.307C126.719 235.825 126.891 235.564 126.881 235.134L126.879 235.083C126.861 234.748 126.903 234.583 127.142 234.401C127.743 233.945 128.421 233.323 128.782 232.795C129.005 232.469 129.074 232.224 129.001 232.086C128.915 231.921 128.599 231.807 128.007 231.794L127.93 231.793L127.769 231.84C125.685 232.419 123.087 232.257 120.618 231.551L120.387 231.483C119.305 231.157 118.342 230.747 117.683 230.338C116.947 229.881 116.595 229.437 116.852 229.047C116.889 228.99 116.95 228.954 117.017 228.949C119.669 228.733 122.052 227.773 123.192 226.668L123.289 226.571C124.07 225.756 123.699 225.335 122.026 225.599L121.451 225.694C119.529 226.009 118.305 226.145 116.963 226.217L116.558 226.237L114.856 226.306C114.509 226.321 114.239 226.336 113.866 226.359C113.129 226.405 112.221 226.684 111.182 227.159C110.509 227.468 109.796 227.852 109.06 228.295C108.348 228.724 107.653 229.183 107.004 229.643L106.742 229.83C106.658 229.89 106.578 229.949 106.503 230.005L106.171 230.254C106.076 230.328 105.938 230.311 105.864 230.215C105.789 230.12 105.807 229.982 105.902 229.908L106.13 229.735L106.361 229.565C106.482 229.476 106.612 229.383 106.75 229.285C107.408 228.819 108.112 228.354 108.834 227.919C109.583 227.469 110.31 227.077 111 226.761C112.083 226.265 113.039 225.971 113.839 225.922L114.267 225.896C114.454 225.886 114.631 225.877 114.835 225.868L116.618 225.795L116.939 225.779C118.266 225.708 119.474 225.573 121.382 225.261L121.853 225.183Z" fill="#DD936F"/>
<path d="M75.6725 199.464L75.7141 199.465C75.8684 199.481 75.9846 199.608 75.9902 199.758L75.9889 199.8L74.1165 218.885C74.1013 219.04 73.9736 219.156 73.8226 219.161L73.7808 219.16L55.574 217.307C55.4057 217.29 55.2832 217.14 55.3004 216.972C55.316 216.818 55.4436 216.702 55.5943 216.697L55.6359 216.698L73.537 218.519L75.3796 199.74C75.3933 199.6 75.4996 199.491 75.6321 199.468L75.6725 199.464Z" fill="#253368"/>
<path d="M107.081 197.876L95.5307 197.263C95.3555 197.254 95.2083 197.394 95.2083 197.569V209.106C95.2083 209.21 95.2613 209.307 95.349 209.363L100.866 212.907C100.95 212.961 101.055 212.97 101.148 212.932L101.916 212.613C103.178 212.083 103.827 211.775 104.352 211.463C104.473 211.391 104.588 211.318 104.704 211.241L104.878 211.121C105.004 211.033 105.129 210.94 105.283 210.822L106.278 210.047C106.316 210.018 106.353 209.989 106.39 209.961C106.437 209.924 106.472 209.876 106.492 209.82C106.875 208.735 107.12 206.877 107.257 204.449C107.361 202.608 107.392 200.683 107.38 198.976L107.371 198.175C107.368 198.015 107.241 197.884 107.081 197.876ZM95.8204 197.892L106.763 198.472L106.764 198.561C106.784 200.356 106.757 202.437 106.646 204.414L106.633 204.635C106.505 206.751 106.292 208.405 105.982 209.413L105.943 209.531L104.991 210.275C104.804 210.419 104.664 210.523 104.525 210.621C104.362 210.736 104.206 210.837 104.039 210.937L103.984 210.969C103.476 211.266 102.817 211.573 101.53 212.111L101.062 212.305L95.8204 208.938V197.892Z" fill="#253368"/>
<path d="M122.828 211.593C122.967 211.496 123.158 211.53 123.254 211.669C123.342 211.795 123.322 211.965 123.213 212.067L123.178 212.095L108.467 222.325C108.328 222.421 108.137 222.387 108.04 222.248C107.953 222.122 107.973 221.953 108.082 221.85L108.117 221.822L122.828 211.593Z" fill="#253368"/>
<path d="M66.5019 184.309C66.5385 184.144 66.7021 184.04 66.8671 184.076L66.9891 184.107C67.0563 184.125 67.1406 184.149 67.2405 184.181C67.5276 184.27 67.8465 184.388 68.1892 184.537C69.1658 184.96 70.1418 185.549 71.0531 186.33C72.9076 187.92 74.2498 190.093 74.858 192.931C74.8934 193.096 74.7881 193.259 74.6228 193.295C74.4574 193.33 74.2947 193.225 74.2593 193.059C73.68 190.356 72.4099 188.299 70.6546 186.795C69.7926 186.056 68.8687 185.499 67.9455 185.098C67.6232 184.959 67.3246 184.848 67.0576 184.765L66.8815 184.712C66.8154 184.694 66.7658 184.681 66.7343 184.674C66.5693 184.637 66.4652 184.474 66.5019 184.309Z" fill="#253368"/>
<path d="M91.052 240.014C91.1609 240.014 91.2513 240.093 91.2683 240.197L91.2712 240.233L91.2709 244.704L91.5005 248.956C91.507 249.077 91.4143 249.18 91.2934 249.187C91.1846 249.193 91.0901 249.118 91.0675 249.015L91.0627 248.98L90.8328 244.715V240.233C90.8328 240.112 90.9309 240.014 91.052 240.014Z" fill="#597EF7"/>
<path d="M81.1785 248.749L136.806 251.565C136.927 251.571 137.02 251.674 137.014 251.795C137.009 251.904 136.925 251.99 136.82 252.002L136.784 252.003L81.1563 249.187C81.0354 249.181 80.9424 249.078 80.9482 248.957C80.954 248.848 81.038 248.762 81.1428 248.75L81.1785 248.749Z" fill="#597EF7"/>
<path d="M95.5191 244.203C95.6278 244.195 95.7234 244.268 95.7475 244.371L95.7528 244.406L96.0976 249.412C96.1059 249.533 96.0147 249.638 95.8939 249.646C95.7852 249.654 95.6896 249.581 95.6655 249.478L95.6602 249.443L95.3155 244.436C95.3072 244.316 95.3983 244.211 95.5191 244.203Z" fill="#597EF7"/>
<path fill-rule="evenodd" clip-rule="evenodd" d="M92.6635 242.511C92.7198 243.054 93.1325 243.456 93.5844 243.408C94.0362 243.361 94.3571 242.884 94.3001 242.341C94.2444 241.799 93.8317 241.397 93.3799 241.444C92.928 241.491 92.6071 241.969 92.6635 242.511Z" fill="white"/>
<path d="M103.695 244.199C103.816 244.199 103.914 244.297 103.914 244.418C103.914 244.527 103.834 244.618 103.73 244.635L103.695 244.637H66.557C66.436 244.637 66.3378 244.539 66.3378 244.418C66.3378 244.309 66.4173 244.219 66.5215 244.202L66.557 244.199H103.695Z" fill="#597EF7"/>
<path d="M103.658 239.833C103.779 239.833 103.877 239.931 103.877 240.052C103.877 240.161 103.797 240.252 103.693 240.269L103.658 240.272H66.5056C66.3845 240.272 66.2864 240.174 66.2864 240.052C66.2864 239.944 66.3659 239.853 66.47 239.836L66.5056 239.833H103.658Z" fill="#597EF7"/>
</svg>
