<svg width="214" height="427" viewBox="0 0 214 427" fill="none" xmlns="http://www.w3.org/2000/svg">
<path fill-rule="evenodd" clip-rule="evenodd" d="M77.635 267.56C78.3573 269.511 80.2996 270.737 82.3754 270.552L124.448 266.821C129.114 266.408 132.435 262.114 131.651 257.506C130.868 252.891 126.3 249.927 121.754 251.084L80.825 261.499C78.1698 262.175 76.6846 264.996 77.635 267.56Z" fill="#FFC999"/>
<path fill-rule="evenodd" clip-rule="evenodd" d="M58.6089 345.869C58.6089 345.869 51.8146 351.668 41.7859 348.036C38.0135 346.67 34.5063 349.218 36.5458 352.699C38.0568 355.277 41.6053 357.651 46.5012 359.44C53.0598 361.836 53.6008 358.076 56.8635 360.039C58.755 361.177 63.1449 362.5 64.1957 361.186C66.0314 358.889 66.3562 357.378 68.1392 354.467C76.8219 340.289 73.6828 334.167 58.6089 345.869Z" fill="#253368"/>
<path fill-rule="evenodd" clip-rule="evenodd" d="M93.6188 345.755C93.6188 345.755 91.9097 351.661 84.0157 357.907C78.8377 362.004 84.3424 366.345 95.2796 361.538C101.515 358.797 99.1322 356.213 102.799 355.309C104.923 354.785 108.891 352.783 108.647 351.333C108.22 348.797 107.336 347.69 106.423 344.821C101.976 330.854 95.3517 329.2 93.6188 345.755Z" fill="#253368"/>
<path fill-rule="evenodd" clip-rule="evenodd" d="M106.652 342.331L99.7942 280.977C99.2394 276.009 93.9786 272.481 88.3166 273.28C82.8502 274.052 79.1643 278.565 80.1236 283.313L92.4156 344.117C92.4156 344.117 98.5924 346.241 106.652 342.331Z" fill="#4E5C93"/>
<path fill-rule="evenodd" clip-rule="evenodd" d="M170.918 266.989C170.918 266.989 135.821 269.635 133.437 266.188C132.387 264.671 131.634 272.249 129.711 284.753C132.811 290.471 138.748 295.063 146.521 294.847C159.231 294.495 170.808 293.065 172.117 284.577C173.059 278.472 172.275 271.941 170.918 266.989Z" fill="#ADC6FF"/>
<path fill-rule="evenodd" clip-rule="evenodd" d="M132.898 262.994L132.552 267.206C132.552 267.206 135.933 267.79 147.75 268.393C159.739 269.005 170.886 267.624 170.886 267.624L170.939 263.79C170.939 263.79 146.816 264.5 132.898 262.994Z" fill="#ADC6FF"/>
<path fill-rule="evenodd" clip-rule="evenodd" d="M89.9335 285.528C90.1536 290.926 94.6112 295.185 100.027 295.17L160.399 295.004C167.407 294.985 172.997 289.162 172.713 282.175C172.428 275.189 166.384 269.836 159.397 270.384L99.2099 275.101C93.8118 275.524 89.7134 280.13 89.9335 285.528Z" fill="#ADC6FF"/>
<path fill-rule="evenodd" clip-rule="evenodd" d="M71.0711 350.73L108.27 290.598C111.283 285.728 109.547 279.333 104.485 276.644C99.5956 274.048 93.5229 275.941 90.9862 280.853L58.4944 343.765C58.4944 343.765 61.9351 349.433 71.0711 350.73Z" fill="#ADC6FF"/>
<path fill-rule="evenodd" clip-rule="evenodd" d="M122.682 264.904C126.898 265.487 130.837 262.685 131.657 258.52L139.098 220.781C140.192 215.231 136.385 209.905 130.768 209.127C125.219 208.36 120.142 212.35 119.59 217.913L115.799 256.187C115.375 260.465 118.414 264.313 122.682 264.904Z" fill="#FFC999"/>
<path fill-rule="evenodd" clip-rule="evenodd" d="M115.809 242.215L134.47 244.718L138.272 219.862C139.104 214.422 135.303 209.358 129.835 208.625C124.368 207.891 119.36 211.773 118.723 217.24L115.809 242.215Z" fill="#01BF71"/>
<path fill-rule="evenodd" clip-rule="evenodd" d="M140.023 202.027L139.304 185.779L153.954 185.012L156.41 200.367C157.152 205.005 153.859 209.321 149.181 209.843C144.437 210.373 140.234 206.786 140.023 202.027Z" fill="#FFC999"/>
<path fill-rule="evenodd" clip-rule="evenodd" d="M135.331 184.986C135.331 184.986 132.868 182.911 132.088 184.554C131.307 186.198 133.513 191.567 135.943 191.467C139.187 191.332 135.331 184.986 135.331 184.986Z" fill="#FFC999"/>
<path fill-rule="evenodd" clip-rule="evenodd" d="M150.825 197.745C150.825 197.745 146.479 202.096 139.814 198.892C135.015 196.586 133.444 186.644 133.571 179.217C133.643 175.014 135.336 172.587 139.269 170.949C143.204 169.311 154.204 168.161 155.512 180.375C156.967 193.979 150.825 197.745 150.825 197.745Z" fill="#FFC999"/>
<path d="M140.808 180.438C140.912 180.401 141.025 180.444 141.079 180.536L141.096 180.572L142.013 183.09C142.021 183.111 142.025 183.133 142.027 183.155L142.026 183.188L141.369 190.025L144.037 189.779C144.148 189.769 144.248 189.841 144.275 189.945L144.281 189.981C144.291 190.092 144.219 190.192 144.114 190.219L144.078 190.225L141.14 190.496C141.013 190.507 140.904 190.411 140.896 190.289L140.896 190.251L141.574 183.195L140.674 180.725C140.637 180.622 140.68 180.509 140.772 180.456L140.808 180.438Z" fill="#DD936F"/>
<path d="M149.841 178.691C150.172 178.59 150.522 178.776 150.623 179.107C150.724 179.437 150.538 179.787 150.207 179.887C149.546 180.088 148.424 180.148 146.583 180.137L145.855 180.13L144.174 180.107C143.828 180.104 143.549 179.821 143.552 179.476C143.555 179.13 143.838 178.853 144.185 178.856L146.401 178.885L146.921 178.887C148.422 178.888 149.384 178.83 149.841 178.691Z" fill="#253368"/>
<path d="M146.271 191.506C146.434 191.446 146.614 191.529 146.674 191.691C146.734 191.853 146.65 192.033 146.488 192.093L146.373 192.132C146.308 192.153 146.225 192.179 146.125 192.208C145.838 192.291 145.502 192.374 145.123 192.452C143.987 192.684 142.697 192.818 141.281 192.804C141.107 192.802 140.969 192.66 140.97 192.488C140.972 192.315 141.114 192.176 141.287 192.178C142.657 192.192 143.903 192.063 144.997 191.839C145.299 191.777 145.571 191.712 145.811 191.646L145.95 191.607C146.111 191.56 146.219 191.525 146.271 191.506Z" fill="#FF7946"/>
<path fill-rule="evenodd" clip-rule="evenodd" d="M154.65 185.754L156.556 180.804C156.556 180.804 157.376 173.863 155.502 171.104C152.595 166.822 147.014 167.514 143.57 166.643C140.126 165.772 140.044 164.655 138.716 164.977C137.388 165.3 132.545 169.458 132.348 173.312C132.174 176.7 133.895 185.111 133.895 185.111C133.895 185.111 134.064 177.49 134.588 175.429C137.107 174.065 146.662 173.036 150.778 173.858C150.778 173.858 151.386 176.384 151.77 178.168C154.063 179.475 154.65 185.754 154.65 185.754Z" fill="#253368"/>
<path d="M154.415 192.06C154.459 191.945 154.589 191.887 154.705 191.93C154.821 191.974 154.879 192.104 154.835 192.219C154.305 193.613 153.647 194.821 152.889 195.854C152.151 196.86 151.36 197.649 150.567 198.247C150.288 198.457 150.029 198.629 149.795 198.764C149.652 198.847 149.548 198.9 149.501 198.921C146.259 200.599 143.275 200.581 140.749 199.54C140.373 199.385 140.041 199.219 139.756 199.052L139.62 198.971C139.518 198.908 139.444 198.858 139.398 198.824C139.298 198.75 139.277 198.61 139.351 198.51C139.425 198.411 139.565 198.39 139.665 198.464L139.723 198.504C139.782 198.545 139.869 198.6 139.983 198.666C140.25 198.823 140.564 198.98 140.92 199.126C143.283 200.1 146.066 200.135 149.122 198.611L149.388 198.477C149.435 198.453 149.496 198.42 149.569 198.377C149.788 198.25 150.033 198.089 150.297 197.89C151.055 197.318 151.816 196.559 152.526 195.59C153.261 194.589 153.9 193.417 154.415 192.06Z" fill="#DD936F"/>
<path d="M143.427 182.659C143.674 182.644 143.887 182.832 143.902 183.078C143.916 183.309 143.753 183.509 143.53 183.547L143.481 183.553L141.314 183.684C141.066 183.699 140.854 183.511 140.838 183.264C140.824 183.034 140.988 182.833 141.211 182.795L141.259 182.79L143.427 182.659Z" fill="#253368"/>
<path d="M142.186 183.894C142.593 183.854 143.011 183.925 143.419 184.065C143.616 184.132 143.769 184.201 143.863 184.251C144.082 184.366 144.165 184.637 144.049 184.856C143.941 185.059 143.699 185.145 143.49 185.064L143.382 185.012C143.32 184.984 143.233 184.948 143.128 184.912C142.83 184.81 142.533 184.76 142.273 184.785C142.041 184.808 141.852 184.889 141.701 185.043L141.646 185.104C141.489 185.295 141.206 185.322 141.014 185.165C140.823 185.008 140.795 184.726 140.953 184.535C141.273 184.147 141.699 183.941 142.186 183.894Z" fill="#253368"/>
<path d="M136.676 179.018C137.623 178.925 138.616 179.06 139.591 179.34C140.047 179.471 140.398 179.603 140.606 179.696C140.922 179.836 141.064 180.206 140.923 180.522C140.782 180.837 140.411 180.979 140.095 180.838L140.013 180.804C139.976 180.789 139.93 180.771 139.875 180.75C139.687 180.679 139.475 180.608 139.244 180.542C138.409 180.302 137.566 180.187 136.799 180.263C136.128 180.329 135.556 180.539 135.098 180.912C134.829 181.13 134.434 181.09 134.216 180.822C133.997 180.554 134.037 180.16 134.306 179.942C134.969 179.402 135.773 179.107 136.676 179.018Z" fill="#253368"/>
<path d="M144.531 194.134C144.655 194.125 144.762 194.218 144.771 194.341C144.78 194.452 144.705 194.55 144.6 194.575L144.564 194.581L142.8 194.711C142.676 194.72 142.569 194.627 142.559 194.504C142.551 194.393 142.626 194.295 142.731 194.27L142.767 194.264L144.531 194.134Z" fill="#DD936F"/>
<path d="M154.989 181.771C155.236 181.752 155.452 181.936 155.472 182.182C155.49 182.413 155.331 182.616 155.109 182.658L155.06 182.664L151.511 182.945C151.264 182.965 151.047 182.781 151.028 182.534C151.01 182.304 151.169 182.101 151.391 182.059L151.44 182.052L154.989 181.771Z" fill="#253368"/>
<path fill-rule="evenodd" clip-rule="evenodd" d="M151.157 181.819L144.378 182.317C143.905 182.352 143.55 182.761 143.588 183.233C143.66 184.114 143.814 185.523 144.132 186.715C144.509 188.122 145.859 188.9 147.317 188.86C149.139 188.81 150.769 188.693 151.523 187.692C152.673 186.167 152.191 183.832 152.072 182.585C152.028 182.128 151.617 181.785 151.157 181.819Z" fill="white"/>
<path d="M151.147 181.67L144.367 182.168C143.811 182.21 143.394 182.691 143.439 183.245C143.542 184.515 143.717 185.74 143.988 186.753C144.368 188.176 145.729 189.053 147.322 189.009L147.654 188.999C149.92 188.917 150.989 188.648 151.643 187.782C152.111 187.16 152.348 186.383 152.408 185.454C152.446 184.87 152.417 184.308 152.331 183.53L152.234 182.699C152.229 182.654 152.225 182.612 152.221 182.571C152.17 182.033 151.688 181.63 151.147 181.67ZM151.169 181.967C151.548 181.939 151.887 182.223 151.923 182.6L151.945 182.803L152.013 183.381C152.113 184.239 152.149 184.828 152.109 185.435C152.053 186.311 151.833 187.033 151.404 187.602C150.798 188.406 149.713 188.645 147.313 188.711C145.852 188.751 144.619 187.956 144.277 186.676C144.012 185.683 143.839 184.475 143.737 183.221C143.706 182.833 143.998 182.495 144.389 182.466L151.169 181.967Z" fill="#253368"/>
<path fill-rule="evenodd" clip-rule="evenodd" d="M140.579 182.521L132.904 183.085C132.703 184.225 133.296 188.532 134.682 189.363C136.515 190.154 140.049 189.493 140.534 188.513C141.269 187.026 141.378 184.285 141.277 183.116C141.247 182.759 140.936 182.495 140.579 182.521Z" fill="white"/>
<path d="M140.568 182.372L132.893 182.936C132.825 182.941 132.769 182.992 132.757 183.059C132.464 184.716 133.367 188.749 134.605 189.491C136.442 190.286 140.116 189.694 140.668 188.579C141.304 187.292 141.569 184.762 141.426 183.103C141.389 182.665 141.007 182.34 140.568 182.372ZM140.59 182.67C140.865 182.65 141.105 182.853 141.128 183.129C141.267 184.738 141.007 187.218 140.4 188.447C139.931 189.393 136.432 189.956 134.742 189.226L134.682 189.186C133.662 188.457 132.846 184.914 133.026 183.293L133.034 183.225L140.59 182.67Z" fill="#253368"/>
<path d="M151.852 181.365C152.099 181.341 152.319 181.52 152.344 181.766C152.367 181.996 152.212 182.203 151.99 182.249L151.942 182.257L143.555 183.094C143.308 183.119 143.088 182.939 143.064 182.693C143.041 182.463 143.196 182.257 143.417 182.21L143.466 182.203L151.852 181.365Z" fill="#253368"/>
<path d="M141.07 182.322C141.318 182.307 141.53 182.495 141.545 182.742C141.559 182.973 141.395 183.173 141.172 183.21L141.124 183.216L132.881 183.706C132.634 183.72 132.421 183.532 132.406 183.285C132.393 183.055 132.556 182.855 132.779 182.817L132.828 182.811L141.07 182.322Z" fill="#253368"/>
<path fill-rule="evenodd" clip-rule="evenodd" d="M155.334 181.841C156.097 180.856 157.408 180.458 158.472 181.374C160.186 182.85 159.471 189.14 155.383 189.864C153.795 189.826 154.145 183.378 155.334 181.841Z" fill="#FFC999"/>
<path d="M157.132 182.205C157.243 182.148 157.378 182.192 157.434 182.302C157.491 182.412 157.447 182.547 157.337 182.603L157.284 182.633C157.252 182.652 157.21 182.678 157.16 182.71C157.022 182.802 156.884 182.911 156.756 183.035C156.266 183.509 156.059 184.059 156.269 184.696C156.324 184.861 156.397 184.936 156.566 185.018L156.678 185.069C157.04 185.226 157.207 185.377 157.281 185.744C157.395 186.312 157.158 186.77 156.711 187.108C156.498 187.269 156.287 187.371 156.139 187.421C156.022 187.461 155.894 187.399 155.854 187.282C155.814 187.165 155.877 187.037 155.994 186.997L156.034 186.982C156.058 186.972 156.091 186.958 156.128 186.94C156.235 186.889 156.341 186.826 156.44 186.751C156.762 186.507 156.916 186.209 156.841 185.832C156.806 185.656 156.75 185.595 156.555 185.504L156.444 185.456C156.127 185.315 155.95 185.161 155.843 184.836C155.571 184.013 155.842 183.296 156.443 182.714C156.593 182.569 156.752 182.443 156.912 182.337C157.009 182.273 157.085 182.229 157.132 182.205Z" fill="#DD936F"/>
<path d="M138.295 184.426C139.159 184.362 139.899 185.092 139.969 186.034C139.982 186.206 139.852 186.356 139.679 186.369C139.507 186.382 139.356 186.252 139.344 186.08C139.298 185.465 138.84 185.013 138.341 185.05C137.843 185.086 137.456 185.6 137.501 186.216C137.514 186.388 137.384 186.538 137.211 186.55C137.039 186.563 136.888 186.433 136.876 186.261C136.807 185.319 137.431 184.489 138.295 184.426Z" fill="#253368"/>
<path d="M147.874 183.721C148.738 183.658 149.478 184.387 149.548 185.329C149.561 185.502 149.431 185.652 149.258 185.664C149.086 185.677 148.935 185.548 148.922 185.376C148.877 184.76 148.419 184.309 147.92 184.345C147.422 184.382 147.036 184.896 147.081 185.511C147.093 185.683 146.964 185.833 146.791 185.846C146.618 185.858 146.468 185.729 146.455 185.557C146.386 184.614 147.011 183.785 147.874 183.721Z" fill="#253368"/>
<path fill-rule="evenodd" clip-rule="evenodd" d="M170.675 256.705C170.675 256.705 170.829 241.172 171.764 234.177C172.824 226.253 176.109 211.858 173.69 209.927C170.16 207.109 159.34 203.599 159.34 203.599C159.34 203.599 153.917 204.22 147.82 205.515C142.993 206.541 143.66 203.515 137.808 204.48C135.33 204.888 126.572 207.923 124.97 209.692C120.642 214.471 123.889 223.221 125.676 231.765C128.345 244.532 132.501 256.186 132.501 256.186C132.501 256.186 129.575 261.827 132.047 264.645C133.438 266.086 133.246 265.436 140.956 265.454C149.733 265.476 168.056 265.027 169.382 264.557C173.646 263.044 170.675 256.705 170.675 256.705Z" fill="#01BF71"/>
<path fill-rule="evenodd" clip-rule="evenodd" d="M139.973 202.128L146.2 205.626L139.9 212.114L137.46 204.649L139.973 202.128Z" fill="#01BF71"/>
<path fill-rule="evenodd" clip-rule="evenodd" d="M146.054 205.779L151.59 213.516L159.727 203.977L156.121 199.634L146.054 205.779Z" fill="#01BF71"/>
<path d="M145.677 206.393C145.849 206.414 145.971 206.571 145.95 206.742L145.927 206.946L145.878 207.423L145.829 207.948C145.777 208.546 145.725 209.229 145.676 209.997L145.634 210.667C145.331 215.86 145.291 222.291 145.671 229.86C146.216 240.732 147.573 252.61 149.919 265.381C149.951 265.551 149.838 265.714 149.668 265.745C149.497 265.776 149.334 265.663 149.303 265.494C146.952 252.696 145.592 240.79 145.045 229.891L144.997 228.908C144.66 221.578 144.72 215.341 145.029 210.292L145.05 209.957C145.099 209.184 145.152 208.495 145.205 207.893L145.254 207.363L145.324 206.692C145.326 206.682 145.327 206.673 145.328 206.666C145.347 206.509 145.48 206.393 145.634 206.391L145.677 206.393Z" fill="#253368"/>
<path d="M164.163 221.361L157.9 221.567C155.977 221.628 153.953 221.692 151.856 221.755C151.681 221.761 151.545 221.908 151.553 222.082L151.584 222.739C151.697 224.897 151.874 226.739 152.098 228.285C152.23 229.19 152.37 229.943 152.512 230.555L152.547 230.705C152.59 230.885 152.631 231.042 152.669 231.176L152.697 231.273C152.725 231.368 152.746 231.431 152.758 231.465C152.779 231.523 152.817 231.574 152.867 231.611L158.692 235.897C158.803 235.978 158.955 235.978 159.065 235.896L164.596 231.786C164.678 231.726 164.725 231.629 164.723 231.528L164.487 221.666C164.483 221.492 164.338 221.355 164.163 221.361ZM163.868 221.997L164.092 231.381L158.877 235.255L153.32 231.168L153.298 231.096C153.256 230.952 153.208 230.774 153.157 230.559C153.019 229.988 152.881 229.277 152.751 228.414L152.686 227.964C152.481 226.494 152.318 224.759 152.212 222.741L152.194 222.371L159.062 222.155L163.868 221.997Z" fill="#253368"/>
<path fill-rule="evenodd" clip-rule="evenodd" d="M146.126 213.101C146.184 213.655 146.606 214.065 147.068 214.017C147.531 213.969 147.86 213.481 147.802 212.927C147.744 212.373 147.322 211.963 146.859 212.011C146.397 212.059 146.068 212.547 146.126 213.101Z" fill="white"/>
<path fill-rule="evenodd" clip-rule="evenodd" d="M146.301 224.402C146.359 224.956 146.781 225.366 147.244 225.318C147.707 225.27 148.035 224.782 147.977 224.228C147.92 223.674 147.497 223.264 147.035 223.312C146.572 223.36 146.243 223.848 146.301 224.402Z" fill="white"/>
<path fill-rule="evenodd" clip-rule="evenodd" d="M146.654 234.881C146.712 235.435 147.135 235.845 147.597 235.797C148.06 235.749 148.388 235.261 148.331 234.707C148.272 234.153 147.851 233.742 147.388 233.791C146.925 233.839 146.597 234.327 146.654 234.881Z" fill="white"/>
<path fill-rule="evenodd" clip-rule="evenodd" d="M147.537 246.24C147.595 246.794 148.017 247.204 148.48 247.156C148.942 247.108 149.271 246.62 149.213 246.066C149.155 245.512 148.733 245.101 148.271 245.15C147.808 245.198 147.479 245.686 147.537 246.24Z" fill="white"/>
<path fill-rule="evenodd" clip-rule="evenodd" d="M149.253 258.872C149.311 259.426 149.734 259.836 150.196 259.788C150.658 259.74 150.988 259.252 150.929 258.698C150.872 258.144 150.45 257.734 149.987 257.782C149.524 257.83 149.196 258.318 149.253 258.872Z" fill="white"/>
<path d="M158.605 203.408C158.704 203.267 158.899 203.232 159.041 203.33C159.171 203.42 159.211 203.589 159.143 203.726L159.119 203.766L153.133 212.342C153.033 212.485 152.838 212.517 152.698 212.421L152.662 212.391L145.928 206.096C145.802 205.978 145.795 205.78 145.914 205.654C146.021 205.539 146.195 205.523 146.321 205.61L146.357 205.639L152.826 211.687L158.605 203.408Z" fill="#253368"/>
<path d="M137.11 205.218C137.258 205.161 137.423 205.223 137.498 205.358L137.516 205.396L140.372 212.7L145.682 205.636C145.777 205.51 145.948 205.475 146.082 205.548L146.121 205.573C146.247 205.667 146.282 205.838 146.209 205.972L146.184 206.011L140.535 213.525C140.397 213.709 140.119 213.684 140.012 213.491L139.992 213.451L136.932 205.624C136.869 205.463 136.949 205.281 137.11 205.218Z" fill="#253368"/>
<path d="M124.915 222.819C125.087 222.801 125.241 222.926 125.259 223.098C125.722 227.591 126.4 231.615 127.384 235.886L127.527 236.498C128.096 238.908 128.747 241.367 129.662 244.596L133.038 256.336C133.058 256.406 133.053 256.482 133.023 256.549C131.639 259.631 131.79 262.068 132.861 263.904C133.041 264.212 133.232 264.473 133.423 264.69L133.512 264.788L133.59 264.868L133.931 264.892C135.893 265.023 138.015 265.11 140.275 265.155L140.798 265.165C145.549 265.247 150.621 265.151 155.639 264.937L156.579 264.896C157.89 264.836 159.104 264.772 160.196 264.708L161.95 264.598C162.123 264.586 162.273 264.715 162.285 264.888C162.297 265.06 162.167 265.21 161.994 265.222L160.868 265.295L159.624 265.368C158.796 265.414 157.906 265.46 156.964 265.504L156.608 265.521C151.273 265.764 145.85 265.878 140.788 265.791C138.145 265.745 135.684 265.645 133.437 265.485C133.37 265.48 133.307 265.455 133.256 265.412C133.013 265.206 132.664 264.81 132.319 264.219C131.169 262.248 130.99 259.661 132.369 256.477L132.404 256.398L129.352 245.795L129.058 244.765C128.141 241.528 127.488 239.062 126.917 236.641C125.849 232.115 125.124 227.897 124.635 223.162C124.617 222.99 124.742 222.836 124.915 222.819Z" fill="#253368"/>
<path fill-rule="evenodd" clip-rule="evenodd" d="M165.399 265.531C169.648 265.762 173.34 262.643 173.81 258.424L178.077 220.199C178.704 214.577 174.466 209.585 168.805 209.277C163.21 208.973 158.483 213.37 158.398 218.96L157.812 257.416C157.747 261.714 161.096 265.297 165.399 265.531Z" fill="#FFC999"/>
<path fill-rule="evenodd" clip-rule="evenodd" d="M158.065 242.761L176.88 243.443L178.244 218.336C178.542 212.84 174.265 208.169 168.753 207.969C163.24 207.769 158.634 212.119 158.532 217.621L158.065 242.761Z" fill="#01BF71"/>
<path d="M158.514 217.716C158.673 217.719 158.802 217.839 158.82 217.992L158.822 218.034L158.383 242.459L176.892 243.13C177.05 243.136 177.177 243.258 177.192 243.412L177.194 243.454C177.188 243.612 177.065 243.739 176.912 243.754L176.869 243.755L158.054 243.073C157.897 243.067 157.771 242.948 157.754 242.797L157.751 242.755L158.195 218.023C158.198 217.85 158.341 217.713 158.514 217.716Z" fill="#253368"/>
<path fill-rule="evenodd" clip-rule="evenodd" d="M98.6238 279.79L135.518 276.903L100.268 263.158L69.6404 268.554L98.6238 279.79Z" fill="#CCD7EE"/>
<path fill-rule="evenodd" clip-rule="evenodd" d="M97.4502 277.148L124.246 275.05L99.2721 265.068L76.4009 268.988L97.4502 277.148Z" fill="#4E5C93"/>
<path fill-rule="evenodd" clip-rule="evenodd" d="M135.348 278.777L135.524 276.915L97.8948 279.565L98.3669 281.604L135.348 278.777Z" fill="#4E5C93"/>
<path d="M94.089 266.331C94.1206 266.262 94.1958 266.227 94.2668 266.243L94.2968 266.254L114.522 275.51C114.601 275.546 114.636 275.639 114.599 275.717C114.568 275.786 114.493 275.821 114.422 275.804L114.392 275.794L94.1661 266.538C94.0875 266.502 94.0529 266.409 94.089 266.331Z" fill="#CCD7EE"/>
<path d="M96.9388 265.444C96.9692 265.374 97.0438 265.338 97.1151 265.353L97.1453 265.363L119.795 275.274C119.874 275.309 119.91 275.401 119.875 275.48C119.845 275.549 119.77 275.586 119.699 275.57L119.669 275.56L97.0194 265.65C96.9401 265.615 96.904 265.523 96.9388 265.444Z" fill="#CCD7EE"/>
<path d="M93.6256 268.195C93.6581 268.126 93.7338 268.092 93.8046 268.11L93.8344 268.121L110.797 276.17C110.875 276.207 110.909 276.3 110.872 276.378C110.839 276.447 110.763 276.481 110.693 276.463L110.663 276.452L93.6998 268.403C93.6216 268.366 93.5884 268.273 93.6256 268.195Z" fill="#CCD7EE"/>
<path d="M88.7955 268.295C88.828 268.226 88.9037 268.193 88.9745 268.21L89.0044 268.221L105.967 276.27C106.045 276.307 106.079 276.4 106.041 276.478C106.009 276.547 105.933 276.581 105.862 276.563L105.833 276.552L88.8697 268.503C88.7916 268.466 88.7583 268.373 88.7955 268.295Z" fill="#CCD7EE"/>
<path d="M84.3106 268.698C84.3432 268.63 84.4188 268.596 84.4896 268.613L84.5195 268.624L101.482 276.674C101.561 276.711 101.594 276.804 101.557 276.882C101.524 276.95 101.448 276.984 101.378 276.967L101.348 276.956L84.3849 268.907C84.3067 268.869 84.2735 268.776 84.3106 268.698Z" fill="#CCD7EE"/>
<path d="M120.008 273.566C120.095 273.562 120.168 273.629 120.172 273.715C120.175 273.791 120.124 273.856 120.053 273.874L120.022 273.878L97.1538 274.884C97.0673 274.888 96.9941 274.821 96.9901 274.735C96.987 274.659 97.0378 274.594 97.1086 274.576L97.14 274.572L120.008 273.566Z" fill="#CCD7EE"/>
<path d="M115.124 271.404C115.211 271.4 115.284 271.467 115.288 271.553C115.291 271.628 115.24 271.694 115.169 271.711L115.138 271.716L92.2697 272.722C92.1833 272.726 92.1101 272.659 92.1061 272.572C92.1029 272.497 92.1538 272.432 92.2245 272.414L92.2559 272.409L115.124 271.404Z" fill="#CCD7EE"/>
<path d="M108.99 269.735C109.076 269.731 109.149 269.798 109.153 269.884C109.157 269.96 109.106 270.025 109.035 270.043L109.004 270.047L86.1355 271.053C86.049 271.057 85.9758 270.99 85.9718 270.904C85.9686 270.828 86.0195 270.763 86.0902 270.745L86.1217 270.741L108.99 269.735Z" fill="#CCD7EE"/>
<path d="M105.025 266.277C105.112 266.273 105.185 266.34 105.189 266.426C105.192 266.501 105.141 266.567 105.071 266.584L105.039 266.589L82.1711 267.595C82.0846 267.599 82.0114 267.532 82.0075 267.445C82.0043 267.37 82.0552 267.305 82.1259 267.287L82.1573 267.282L105.025 266.277Z" fill="#CCD7EE"/>
<path fill-rule="evenodd" clip-rule="evenodd" d="M98.3374 281.603L96.6891 281.616L69.2894 270.6L61.6794 222.323L91.4647 230.73L98.3374 281.603Z" fill="#4E5C93"/>
<path fill-rule="evenodd" clip-rule="evenodd" d="M96.6304 281.614L67.7348 270.011C67.4708 269.905 67.2815 269.668 67.2376 269.388L59.8728 222.988C59.7806 222.404 60.3255 221.923 60.8947 222.084L89.1446 230.1C89.4543 230.187 89.6819 230.45 89.7252 230.768L96.6304 281.614Z" fill="#253368"/>
<path fill-rule="evenodd" clip-rule="evenodd" d="M119.332 266.678C120.055 268.628 121.997 269.854 124.073 269.669L166.146 265.938C170.811 265.525 174.132 261.231 173.349 256.623C172.565 252.008 167.998 249.044 163.451 250.202L122.523 260.617C119.867 261.292 118.382 264.113 119.332 266.678Z" fill="#FFC999"/>
<path fill-rule="evenodd" clip-rule="evenodd" d="M121.674 269.805C118.695 271.892 109.475 270.524 109.475 270.524L103.328 273.559C102.377 273.938 102.15 273.306 101.68 273.306C100.413 273.306 100.413 271.978 100.413 271.978C99.9759 271.771 99.2724 272.105 99.0818 270.903C99.0818 270.903 98.1947 270.84 98.1312 269.765C98.0982 269.197 103.874 261 103.874 261L112.494 261.235C112.494 261.235 125.087 261.469 126.499 264.287C127.911 267.105 121.674 269.805 121.674 269.805Z" fill="#FFC999"/>
<path d="M108.825 265.307C108.948 265.263 109.083 265.327 109.127 265.45C109.166 265.56 109.118 265.681 109.019 265.735L108.984 265.751L105.49 266.996L101.211 271.641C101.184 271.668 101.141 271.716 101.095 271.78L101.06 271.83C100.941 272.011 100.89 272.184 100.929 272.326C100.994 272.565 101.321 272.78 102.023 272.92C102.151 272.946 102.234 273.07 102.208 273.198C102.183 273.325 102.058 273.408 101.93 273.383C101.072 273.211 100.596 272.897 100.473 272.451C100.391 272.152 100.479 271.853 100.666 271.57C100.732 271.47 100.798 271.39 100.846 271.339L100.873 271.312L105.182 266.634C105.199 266.616 105.219 266.6 105.241 266.588L105.276 266.572L108.825 265.307Z" fill="#DD936F"/>
<path d="M106.712 263.293C106.83 263.237 106.971 263.287 107.027 263.405C107.077 263.51 107.042 263.635 106.949 263.7L106.915 263.719L104.176 265.023L100.078 270.116L100.025 270.177L99.9991 270.208C99.9368 270.285 99.8744 270.369 99.8165 270.459C99.6861 270.661 99.599 270.858 99.5737 271.03C99.5208 271.39 99.7411 271.631 100.451 271.745C100.579 271.766 100.667 271.887 100.646 272.015C100.626 272.144 100.504 272.231 100.375 272.211C99.4299 272.059 99.0119 271.601 99.106 270.961C99.1426 270.712 99.2553 270.457 99.4191 270.203C99.4872 270.098 99.5598 270 99.6325 269.91L99.6802 269.853C99.6939 269.837 99.7051 269.825 99.7128 269.816L99.7215 269.807L103.841 264.687C103.856 264.668 103.873 264.652 103.893 264.639L103.924 264.621L106.712 263.293Z" fill="#DD936F"/>
<path d="M111.017 267.447C111.146 267.424 111.269 267.509 111.292 267.637C111.313 267.752 111.246 267.863 111.139 267.901L111.102 267.911L106.989 268.656L102.532 272.981L102.531 272.988C102.529 273.015 102.532 273.043 102.539 273.069L102.553 273.106C102.62 273.24 102.842 273.335 103.322 273.323C103.72 273.312 104.506 272.958 105.529 272.351C105.739 272.227 105.956 272.094 106.179 271.952C106.663 271.647 107.152 271.319 107.623 270.991L107.859 270.825L108.236 270.555C108.269 270.53 108.309 270.515 108.35 270.51L108.585 270.487L108.825 270.467C108.952 270.457 109.088 270.447 109.234 270.437C110.343 270.365 111.574 270.341 112.858 270.392L113.744 270.432C117.488 270.611 119.676 270.4 122.224 269.205L122.395 269.124L122.482 269.101L143.665 267.691C143.795 267.683 143.908 267.781 143.916 267.911C143.924 268.028 143.845 268.131 143.734 268.156L143.696 268.162L122.559 269.568L122.424 269.632C119.848 270.84 117.637 271.076 113.973 270.915L112.839 270.863C111.573 270.813 110.358 270.837 109.265 270.908L108.991 270.927C108.903 270.934 108.82 270.94 108.742 270.947L108.464 270.972L108.132 271.21C108.056 271.263 107.977 271.319 107.894 271.377C107.418 271.709 106.922 272.041 106.432 272.351C106.205 272.494 105.984 272.63 105.771 272.757C104.674 273.407 103.845 273.781 103.334 273.794C102.688 273.811 102.292 273.641 102.13 273.316C102.052 273.161 102.043 273.002 102.072 272.856C102.078 272.827 102.085 272.804 102.09 272.787C102.098 272.763 102.11 272.741 102.125 272.722L102.149 272.694L106.712 268.269C106.737 268.244 106.767 268.226 106.8 268.214L106.834 268.206L111.017 267.447Z" fill="#DD936F"/>
<path d="M159.508 250.792C159.634 250.759 159.763 250.834 159.797 250.96C159.827 251.073 159.769 251.189 159.665 251.235L159.629 251.248L119.969 261.697L119.902 261.705L104 261.239L98.3397 269.876L98.3202 269.916C98.3126 269.933 98.304 269.954 98.2951 269.977L98.2814 270.014C98.2417 270.127 98.2194 270.238 98.2225 270.333C98.2307 270.596 98.4287 270.729 99.059 270.669C99.1889 270.656 99.3044 270.751 99.317 270.881C99.3295 271.01 99.2343 271.125 99.1044 271.138C98.2255 271.223 97.7678 270.913 97.7494 270.348C97.7448 270.186 97.778 270.02 97.8356 269.857C97.8593 269.79 97.8833 269.734 97.9082 269.684L97.9334 269.636L103.677 260.871C103.714 260.814 103.775 260.776 103.841 260.766L103.882 260.764L119.883 261.232L159.508 250.792Z" fill="#DD936F"/>
<path d="M115.847 241.905L128.537 243.43C128.709 243.451 128.831 243.607 128.811 243.778C128.792 243.935 128.659 244.051 128.505 244.054L128.462 244.051L115.772 242.526C115.6 242.505 115.477 242.349 115.498 242.178C115.517 242.021 115.65 241.905 115.804 241.902L115.847 241.905Z" fill="#253368"/>
</svg>
