<svg width="416" height="832" viewBox="0 0 416 832" fill="none" xmlns="http://www.w3.org/2000/svg">
<path fill-rule="evenodd" clip-rule="evenodd" d="M252.595 693.277C268.215 699.862 276.23 690.38 276.23 690.38C276.23 690.38 276.673 687.064 273.94 683.354C270.521 678.713 262.903 677.061 253.871 668.18C246.934 661.358 242.358 650.741 242.358 650.741C237.346 643.345 221.367 649.129 221.367 649.129C221.367 649.129 221.095 667.433 221.418 676.177C221.418 676.177 221.997 680.991 233.981 682.713C242.949 684.001 243.24 689.333 252.595 693.277Z" fill="#4E5C93"/>
<path fill-rule="evenodd" clip-rule="evenodd" d="M176.749 693.277C161.13 699.862 153.114 690.38 153.114 690.38C153.114 690.38 152.672 687.064 155.404 683.354C158.824 678.713 166.441 677.061 175.473 668.18C182.41 661.358 186.987 650.741 186.987 650.741C191.998 643.345 207.977 649.129 207.977 649.129C207.977 649.129 208.249 667.433 207.926 676.177C207.926 676.177 207.347 680.991 195.363 682.713C186.396 684.001 186.104 689.333 176.749 693.277Z" fill="#4E5C93"/>
<path fill-rule="evenodd" clip-rule="evenodd" d="M193.887 534.367C183.355 534.867 174.333 526.906 173.514 516.394L166.305 397.456C165.551 385.025 175.25 374.444 187.7 374.116C199.925 373.794 210.069 383.496 210.292 395.721L212.472 514.694C212.572 525.181 204.364 533.871 193.887 534.367Z" fill="#ADC6FF"/>
<path fill-rule="evenodd" clip-rule="evenodd" d="M213.699 655.236L212.577 517.556C212.487 506.407 202.999 497.65 191.878 498.452C181.141 499.227 173.109 508.632 174.027 519.358L180.903 655.537C180.903 655.537 197.318 662.547 213.699 655.236Z" fill="#ADC6FF"/>
<path fill-rule="evenodd" clip-rule="evenodd" d="M232.389 533.842C242.951 533.99 251.666 525.618 251.943 515.058L255.054 396.162C255.413 383.907 245.686 373.722 233.428 373.516C220.99 373.308 210.853 383.441 211.054 395.877L213.373 514.929C213.576 525.33 221.989 533.696 232.389 533.842Z" fill="#ADC6FF"/>
<path fill-rule="evenodd" clip-rule="evenodd" d="M217.681 655.075L213.25 517.462C212.891 506.318 222.019 497.186 233.163 497.539C243.923 497.88 252.326 506.954 251.843 517.709L249.295 655.467C249.295 655.467 234.344 661.719 217.681 655.075Z" fill="#ADC6FF"/>
<path fill-rule="evenodd" clip-rule="evenodd" d="M289.328 339.692C296.807 336.153 300.22 327.391 297.109 319.725L268.918 250.291C264.772 240.078 252.894 235.45 242.932 240.165C233.087 244.825 229.09 256.737 234.134 266.39L268.83 332.815C272.707 340.239 281.758 343.275 289.328 339.692Z" fill="#FFC999"/>
<path fill-rule="evenodd" clip-rule="evenodd" d="M255.143 309.04L288.224 293.381L268.057 248.734C263.642 238.96 252.07 234.708 242.378 239.296C232.686 243.883 228.639 255.528 233.399 265.137L255.143 309.04Z" fill="#01BF71"/>
<path d="M287.963 292.831C288.267 292.687 288.631 292.817 288.775 293.121C288.907 293.4 288.809 293.728 288.557 293.892L288.485 293.932L255.403 309.591C255.131 309.719 254.812 309.63 254.644 309.391L254.598 309.315L250.35 300.909C250.198 300.609 250.318 300.242 250.619 300.09C250.894 299.951 251.225 300.041 251.395 300.288L251.437 300.359L255.418 308.235L287.963 292.831Z" fill="#253368"/>
<path fill-rule="evenodd" clip-rule="evenodd" d="M243.468 358.568L245.171 374.868C245.171 374.868 290.611 350.264 296.966 335.711C308.085 310.243 272.398 317.105 272.398 317.105L243.468 358.568Z" fill="#FFC999"/>
<path fill-rule="evenodd" clip-rule="evenodd" d="M192.44 226.324L194.304 194.689L222.782 196.129L224.458 226.38C224.965 235.517 217.734 243.223 208.585 243.301C199.304 243.38 191.894 235.589 192.44 226.324Z" fill="#FFC999"/>
<path fill-rule="evenodd" clip-rule="evenodd" d="M228.327 185.13C229.975 183.35 232.582 182.807 234.483 184.768C237.546 187.928 235.068 200.011 227.029 200.709C223.96 200.359 225.757 187.907 228.327 185.13Z" fill="#FFC999"/>
<path d="M231.934 186.621C232.171 186.574 232.4 186.727 232.448 186.964C232.49 187.176 232.37 187.384 232.173 187.457L232.105 187.477C232.05 187.488 231.927 187.528 231.758 187.611C231.464 187.755 231.167 187.971 230.886 188.272C230.277 188.927 229.837 189.887 229.649 191.222C229.603 191.542 229.637 191.618 229.927 191.773L230.129 191.877C230.705 192.174 231.009 192.514 231.081 193.178C231.198 194.252 230.774 195.1 230.013 195.716C229.619 196.035 229.227 196.227 228.95 196.319C228.721 196.394 228.474 196.27 228.399 196.041C228.323 195.812 228.448 195.566 228.676 195.49L228.791 195.445C228.826 195.43 228.866 195.411 228.91 195.389C229.099 195.297 229.289 195.18 229.464 195.038C230.01 194.596 230.296 194.025 230.214 193.273C230.182 192.982 230.091 192.854 229.825 192.703L229.66 192.617C229.649 192.611 229.636 192.605 229.617 192.595C228.951 192.257 228.673 191.887 228.785 191.1C228.997 189.592 229.513 188.467 230.248 187.678C230.861 187.018 231.488 186.71 231.934 186.621Z" fill="#DD936F"/>
<path fill-rule="evenodd" clip-rule="evenodd" d="M186.707 185.13C185.059 183.35 182.452 182.807 180.551 184.768C177.488 187.928 179.966 200.011 188.005 200.709C191.074 200.359 189.277 187.907 186.707 185.13Z" fill="#FFC999"/>
<path d="M183.1 186.392C183.547 186.482 184.173 186.79 184.787 187.449C185.521 188.238 186.037 189.364 186.25 190.871C186.354 191.609 186.116 191.98 185.538 192.302L185.305 192.423C184.964 192.599 184.856 192.721 184.821 193.044C184.739 193.796 185.024 194.367 185.57 194.809C185.745 194.951 185.935 195.068 186.124 195.161L186.243 195.216C186.294 195.238 186.334 195.253 186.358 195.261C186.587 195.337 186.711 195.584 186.635 195.812C186.56 196.041 186.313 196.166 186.084 196.09C185.807 195.998 185.415 195.806 185.021 195.487C184.261 194.871 183.836 194.024 183.953 192.95C184.02 192.336 184.284 191.999 184.777 191.717L185.022 191.588C185.391 191.401 185.435 191.342 185.386 190.993C185.197 189.658 184.757 188.698 184.148 188.043C183.868 187.742 183.57 187.527 183.276 187.382C183.108 187.299 182.984 187.259 182.929 187.248C182.693 187.201 182.539 186.971 182.587 186.735C182.629 186.522 182.82 186.377 183.029 186.384L183.1 186.392Z" fill="#DD936F"/>
<path fill-rule="evenodd" clip-rule="evenodd" d="M228.817 189.565C228.817 211.325 220.467 220.448 207.656 220.448C195.817 220.448 186.495 209.926 186.038 188.879C185.689 172.822 189.613 161.229 207.915 161.229C227.131 161.229 228.817 173.505 228.817 189.565Z" fill="#FFC999"/>
<path d="M196.954 216.817C197.095 216.622 197.367 216.577 197.563 216.718C200.416 218.768 204.483 219.898 208.514 219.898C212.773 219.898 215.875 218.954 218.998 216.729C219.194 216.589 219.466 216.635 219.606 216.831C219.746 217.027 219.7 217.3 219.504 217.44C216.23 219.773 212.95 220.771 208.514 220.771C204.311 220.771 200.067 219.591 197.054 217.426C196.858 217.286 196.814 217.013 196.954 216.817Z" fill="#DD936F"/>
<path fill-rule="evenodd" clip-rule="evenodd" d="M189.297 181.405C187.57 183.887 186.907 187.924 186.654 190.577C186.617 190.944 186.091 190.962 186.031 190.598C185.358 186.489 184.271 176.396 185.58 170.577C187.639 161.427 198.598 153.935 205.118 153.592C207.771 153.452 212.346 153.649 217.151 157.767C222.171 162.069 225.169 161.59 228.589 167.833C230.919 172.086 229.617 184.134 228.979 189.873C228.93 190.311 228.297 190.325 228.232 189.889C227.832 187.232 227.03 183.584 225.5 181.747C225.065 178.219 224.761 171.338 224.761 171.338C216.868 169.45 198.734 170.235 189.698 171.95L189.297 181.405Z" fill="#253368"/>
<path d="M212.878 180.926C215.398 180.55 218.009 180.436 220.477 180.75C221.078 180.827 221.661 180.928 222.224 181.056C222.88 181.205 223.292 181.858 223.143 182.515C222.993 183.171 222.341 183.582 221.684 183.433C221.2 183.323 220.694 183.235 220.169 183.168C217.955 182.887 215.555 182.991 213.238 183.337C212.95 183.38 212.678 183.425 212.424 183.47L211.94 183.562C211.715 183.607 211.561 183.641 211.487 183.659C210.832 183.816 210.174 183.413 210.017 182.758C209.86 182.104 210.263 181.446 210.918 181.289L211.133 181.24C211.224 181.22 211.334 181.197 211.463 181.172C211.883 181.088 212.357 181.004 212.878 180.926Z" fill="#253368"/>
<path d="M202.981 182.551C203.167 182.446 203.398 182.493 203.53 182.652L203.575 182.717L205.805 186.663C205.831 186.708 205.848 186.756 205.856 186.807L205.862 186.883L205.695 200.111L209.373 200.122C209.59 200.122 209.769 200.281 209.803 200.489L209.808 200.559C209.807 200.776 209.649 200.956 209.441 200.989L209.371 200.994L205.252 200.982C205.034 200.982 204.854 200.821 204.822 200.612L204.817 200.54L204.987 186.99L202.815 183.146C202.71 182.96 202.757 182.728 202.916 182.596L202.981 182.551Z" fill="#DD936F"/>
<path d="M193.901 179.385C195.931 179.093 198.049 179.458 200.118 180.234C201.058 180.587 201.78 180.942 202.208 181.192C202.789 181.531 202.986 182.278 202.647 182.859C202.307 183.44 201.561 183.637 200.98 183.298L200.736 183.166C200.678 183.136 200.612 183.103 200.538 183.066C200.159 182.88 199.729 182.692 199.262 182.516C197.543 181.872 195.81 181.573 194.248 181.798C193.557 181.897 192.915 182.097 192.325 182.408C191.729 182.722 190.992 182.493 190.679 181.897C190.365 181.302 190.594 180.565 191.19 180.251C192.034 179.806 192.943 179.522 193.901 179.385Z" fill="#253368"/>
<path d="M210.916 186.863C211.398 186.863 211.789 187.254 211.789 187.736C211.789 188.185 211.448 188.556 211.011 188.603L210.916 188.608H203.367C202.885 188.608 202.495 188.217 202.495 187.736C202.495 187.286 202.835 186.915 203.272 186.868L203.367 186.863H210.916Z" fill="#253368"/>
<path d="M204.006 190.386C205.939 189.42 207.889 189.463 209.651 190.111C210.127 190.287 210.481 190.467 210.692 190.599C211.101 190.854 211.225 191.392 210.97 191.801C210.714 192.21 210.176 192.334 209.767 192.078C209.652 192.006 209.403 191.88 209.048 191.749C207.702 191.254 206.238 191.222 204.786 191.947C204.355 192.163 203.831 191.988 203.615 191.557C203.4 191.126 203.575 190.602 204.006 190.386Z" fill="#253368"/>
<path fill-rule="evenodd" clip-rule="evenodd" d="M202.749 186.279L189.538 186.073C188.615 186.058 187.856 186.791 187.847 187.713C187.833 189.436 187.887 192.196 188.297 194.565C188.782 197.36 191.261 199.104 194.091 199.279C197.628 199.499 200.803 199.551 202.437 197.74C204.928 194.981 204.4 190.365 204.386 187.926C204.381 187.03 203.645 186.292 202.749 186.279Z" fill="white"/>
<path d="M202.753 185.988L189.542 185.782C188.457 185.765 187.567 186.628 187.557 187.711C187.536 190.187 187.662 192.599 188.011 194.615C188.501 197.44 190.983 199.378 194.073 199.57L195.027 199.622C199.217 199.824 201.271 199.466 202.653 197.935C203.738 196.732 204.341 195.142 204.591 193.179L204.642 192.733C204.732 191.85 204.748 190.986 204.721 189.754L204.677 187.983C204.677 187.964 204.677 187.944 204.676 187.924C204.671 186.871 203.808 186.004 202.753 185.988ZM189.533 186.364L202.744 186.57C203.484 186.581 204.091 187.191 204.095 187.927L204.119 188.969L204.14 189.761C204.171 191.174 204.144 192.088 204.014 193.105C203.778 194.961 203.216 196.443 202.221 197.545C200.908 199.001 198.761 199.278 194.109 198.989C191.273 198.813 189.025 197.058 188.583 194.516C188.242 192.541 188.117 190.16 188.138 187.716C188.145 186.957 188.77 186.352 189.533 186.364Z" fill="#253368"/>
<path d="M204.172 185.52C204.654 185.514 205.049 185.901 205.054 186.383C205.059 186.833 204.722 187.207 204.286 187.259L204.191 187.265L187.807 187.438C187.325 187.443 186.93 187.056 186.925 186.574C186.92 186.125 187.257 185.751 187.693 185.699L187.788 185.693L204.172 185.52Z" fill="#253368"/>
<path fill-rule="evenodd" clip-rule="evenodd" d="M199.077 191.853C199.077 193.179 198.258 194.255 197.248 194.255C196.236 194.255 195.417 193.179 195.417 191.853C195.417 190.526 196.236 189.451 197.248 189.451C198.258 189.451 199.077 190.526 199.077 191.853Z" fill="#253368"/>
<path fill-rule="evenodd" clip-rule="evenodd" d="M225.168 186.279L211.956 186.073C211.033 186.058 210.275 186.791 210.267 187.713C210.252 189.436 210.306 192.196 210.717 194.565C211.2 197.36 213.679 199.104 216.51 199.279C220.046 199.499 223.222 199.551 224.856 197.74C227.346 194.981 226.82 190.365 226.805 187.926C226.8 187.03 226.064 186.292 225.168 186.279Z" fill="white"/>
<path d="M225.173 185.988L211.961 185.782C210.876 185.765 209.986 186.628 209.976 187.711C209.955 190.196 210.081 192.601 210.43 194.615C210.919 197.44 213.401 199.378 216.493 199.57L217.447 199.622C221.636 199.824 223.69 199.466 225.072 197.935C226.158 196.732 226.76 195.142 227.01 193.179C227.144 192.127 227.172 191.19 227.141 189.753L227.097 188.039C227.096 188.002 227.096 187.964 227.096 187.924C227.09 186.871 226.228 186.004 225.173 185.988ZM211.951 186.364L225.164 186.57C225.903 186.581 226.511 187.191 226.515 187.927L226.521 188.349L226.559 189.759C226.59 191.173 226.563 192.087 226.433 193.105C226.197 194.961 225.636 196.443 224.641 197.545C223.327 199.001 221.18 199.278 216.528 198.989C213.691 198.813 211.443 197.058 211.003 194.516C210.661 192.543 210.537 190.169 210.557 187.716C210.565 186.957 211.188 186.352 211.951 186.364Z" fill="#253368"/>
<path fill-rule="evenodd" clip-rule="evenodd" d="M219.438 191.853C219.438 193.179 218.619 194.255 217.608 194.255C216.597 194.255 215.778 193.179 215.778 191.853C215.778 190.526 216.597 189.451 217.608 189.451C218.619 189.451 219.438 190.526 219.438 191.853Z" fill="#253368"/>
<path d="M226.592 185.52C227.074 185.514 227.468 185.901 227.473 186.383C227.478 186.833 227.142 187.207 226.705 187.259L226.61 187.265L210.226 187.438C209.745 187.443 209.35 187.056 209.345 186.574C209.34 186.125 209.676 185.751 210.113 185.699L210.208 185.693L226.592 185.52Z" fill="#253368"/>
<path d="M200.861 204.198C200.993 203.888 201.35 203.743 201.66 203.874L201.821 203.937C201.869 203.955 201.925 203.975 201.99 203.998L202.092 204.033C202.459 204.159 202.886 204.285 203.365 204.403C206.662 205.215 210.338 205.215 214.024 203.863C214.34 203.747 214.69 203.909 214.806 204.225C214.922 204.541 214.76 204.891 214.444 205.007C210.504 206.452 206.588 206.452 203.073 205.586C202.559 205.459 202.098 205.323 201.698 205.187L201.478 205.109C201.347 205.062 201.249 205.023 201.185 204.996C200.875 204.865 200.73 204.508 200.861 204.198Z" fill="#FF7946"/>
<path d="M210.544 209.269C210.781 209.222 211.011 209.375 211.058 209.612C211.105 209.848 210.952 210.078 210.715 210.125C210.385 210.191 210.037 210.241 209.673 210.275C208.596 210.378 207.451 210.347 206.349 210.233L206.136 210.209L205.614 210.141C205.577 210.136 205.547 210.131 205.526 210.127C205.288 210.088 205.128 209.863 205.167 209.625C205.207 209.388 205.432 209.227 205.669 209.267L205.92 209.304C206.059 209.322 206.234 209.343 206.439 209.365C207.488 209.473 208.579 209.503 209.59 209.407C209.926 209.375 210.245 209.329 210.544 209.269Z" fill="#DD936F"/>
<path fill-rule="evenodd" clip-rule="evenodd" d="M225.042 412.966C225.042 412.966 202.996 414.566 196.904 412.309C187.12 408.685 172.919 407.325 166.364 397.174C164.991 374.869 174.306 359.086 174.306 359.086L175.359 350.314C175.359 350.314 205.483 351 245.189 351C245.419 355.346 246.383 360.659 246.383 360.659C246.383 360.659 254.553 376.584 254.553 391.683C254.553 391.683 239.798 412.34 225.042 412.966Z" fill="#ADC6FF"/>
<path d="M175.446 359.158L179.264 359.161C181.849 359.164 184.51 359.17 187.242 359.179L193.01 359.203C200.136 359.236 207.531 359.287 215.044 359.352L232.162 359.521L243.422 359.657C243.663 359.66 243.856 359.858 243.853 360.099C243.85 360.316 243.689 360.494 243.481 360.525L243.391 360.529L232.153 360.393C228.681 360.355 225.016 360.316 221.205 360.28L215.037 360.224C206.842 360.153 198.788 360.099 191.069 360.066L184.531 360.044C181.401 360.035 178.369 360.031 175.446 360.031C175.205 360.031 175.009 359.836 175.009 359.595C175.009 359.354 175.205 359.158 175.446 359.158Z" fill="#597EF7"/>
<path d="M175.359 350.049L181.03 350.059C186.091 350.077 191.659 350.117 197.657 350.178L204.032 350.248C208.888 350.306 213.902 350.374 219.013 350.452L232.12 350.665L245.027 350.907C245.268 350.912 245.459 351.111 245.455 351.352C245.45 351.569 245.288 351.745 245.08 351.775L244.986 351.779L238.072 351.645L225.861 351.432L220.706 351.35C215.005 351.262 209.416 351.185 204.022 351.121L195.665 351.031C188.127 350.96 181.306 350.921 175.359 350.921C175.118 350.921 174.923 350.726 174.923 350.485C174.923 350.244 175.118 350.049 175.359 350.049Z" fill="#597EF7"/>
<path d="M210.283 350.982C210.5 350.98 210.681 351.137 210.717 351.344L210.725 351.566L210.88 371.839L210.964 384.777L211.037 399.607C211.047 402.364 211.054 404.894 211.058 407.176L211.06 410.096C211.06 410.337 210.864 410.533 210.623 410.533C210.382 410.533 210.187 410.337 210.187 410.096L210.169 400.748C210.155 396.633 210.133 391.981 210.104 386.872L210.029 374.906L209.851 351.422C209.849 351.181 210.042 350.984 210.283 350.982Z" fill="#597EF7"/>
<path fill-rule="evenodd" clip-rule="evenodd" d="M213.677 355.283C213.66 356.369 214.33 357.259 215.174 357.273C216.018 357.286 216.717 356.417 216.734 355.331C216.751 354.247 216.082 353.356 215.237 353.342C214.393 353.329 213.694 354.198 213.677 355.283Z" fill="white"/>
<path d="M220.944 359.22C221.184 359.195 221.398 359.37 221.422 359.61L221.471 360.148L221.54 361.008C221.579 361.517 221.616 362.076 221.652 362.681C221.996 368.491 221.996 374.965 221.423 381.47C220.877 387.651 218.393 390.587 213.154 391.301C212.916 391.333 212.696 391.166 212.663 390.927C212.63 390.689 212.798 390.469 213.036 390.436C217.848 389.78 220.042 387.188 220.553 381.393C221.123 374.935 221.123 368.503 220.781 362.733L220.738 362.035C220.715 361.697 220.693 361.376 220.67 361.074L220.554 359.698C220.53 359.458 220.704 359.244 220.944 359.22Z" fill="#597EF7"/>
<path fill-rule="evenodd" clip-rule="evenodd" d="M125.387 339.389C117.91 335.849 114.495 327.088 117.608 319.422L145.799 249.986C149.945 239.774 161.823 235.146 171.784 239.862C181.629 244.521 185.625 256.433 180.583 266.087L145.887 332.511C142.009 339.936 132.958 342.972 125.387 339.389Z" fill="#FFC999"/>
<path fill-rule="evenodd" clip-rule="evenodd" d="M159.574 309.04L126.492 293.381L146.66 248.734C151.076 238.96 162.646 234.708 172.339 239.296C182.031 243.883 186.078 255.528 181.318 265.137L159.574 309.04Z" fill="#01BF71"/>
<path d="M125.941 292.817C126.073 292.538 126.389 292.406 126.676 292.496L126.753 292.527L159.313 307.937L163.427 300.344C163.574 300.072 163.897 299.957 164.177 300.064L164.253 300.098C164.524 300.245 164.639 300.568 164.533 300.849L164.498 300.924L160.11 309.026C159.969 309.285 159.668 309.403 159.394 309.318L159.313 309.287L126.231 293.628C125.927 293.484 125.797 293.121 125.941 292.817Z" fill="#253368"/>
<path fill-rule="evenodd" clip-rule="evenodd" d="M246.318 335.407L260.959 241.612C258.864 239.587 246.183 233.715 227.161 230.403C221.735 229.457 213.709 235.275 207.945 235.55C204.046 235.736 189.646 229.693 186.381 230.174C166.744 233.061 163.071 236.599 154.2 240.581L170.825 332.662C170.825 332.662 162.439 345.274 172.548 350.11C240.388 350.11 243.992 350.556 244.115 350.631C244.128 350.64 244.139 350.638 244.154 350.636C244.735 350.55 254.553 348.218 246.318 335.407Z" fill="#01BF71"/>
<path fill-rule="evenodd" clip-rule="evenodd" d="M192.039 222.649L185.287 230.91L195.818 247.236L208.344 234.711L192.039 222.649Z" fill="#01BF71"/>
<path d="M184.954 230.399C185.21 230.232 185.546 230.282 185.743 230.504L185.798 230.576L195.874 245.987L207.924 234.372C208.144 234.159 208.483 234.146 208.718 234.327L208.785 234.387C208.998 234.608 209.011 234.947 208.83 235.182L208.769 235.249L196.191 247.376C195.937 247.62 195.535 247.596 195.31 247.339L195.258 247.27L184.778 231.243C184.594 230.961 184.673 230.583 184.954 230.399Z" fill="#253368"/>
<path fill-rule="evenodd" clip-rule="evenodd" d="M224.397 222.649L229.93 230.91L220.618 247.236L208.093 234.711L224.397 222.649Z" fill="#01BF71"/>
<path d="M229.402 230.604C229.571 230.313 229.943 230.213 230.235 230.382C230.502 230.536 230.608 230.862 230.494 231.14L230.457 231.214L221.196 247.242C221.013 247.558 220.601 247.639 220.314 247.433L220.246 247.376L207.667 235.249C207.425 235.015 207.418 234.63 207.651 234.387C207.864 234.167 208.202 234.141 208.443 234.314L208.513 234.372L220.53 245.958L229.402 230.604Z" fill="#253368"/>
<path fill-rule="evenodd" clip-rule="evenodd" d="M211.473 250.204C211.455 251.289 212.175 252.18 213.078 252.195C213.984 252.21 214.731 251.342 214.748 250.256C214.766 249.171 214.046 248.279 213.143 248.265C212.237 248.25 211.49 249.118 211.473 250.204Z" fill="white"/>
<path fill-rule="evenodd" clip-rule="evenodd" d="M211.473 270.405C211.455 271.489 212.175 272.381 213.078 272.396C213.984 272.411 214.731 271.543 214.748 270.457C214.766 269.372 214.046 268.48 213.143 268.466C212.237 268.451 211.49 269.319 211.473 270.405Z" fill="white"/>
<path fill-rule="evenodd" clip-rule="evenodd" d="M211.473 292C211.455 293.086 212.175 293.977 213.078 293.992C213.984 294.007 214.731 293.139 214.748 292.053C214.766 290.968 214.046 290.076 213.143 290.061C212.237 290.047 211.49 290.916 211.473 292Z" fill="white"/>
<path fill-rule="evenodd" clip-rule="evenodd" d="M211.473 313.892C211.455 314.977 212.175 315.869 213.078 315.884C213.984 315.898 214.731 315.03 214.748 313.945C214.766 312.86 214.046 311.968 213.143 311.953C212.237 311.938 211.49 312.806 211.473 313.892Z" fill="white"/>
<path fill-rule="evenodd" clip-rule="evenodd" d="M211.473 339.165C211.455 340.251 212.175 341.142 213.078 341.157C213.984 341.171 214.731 340.304 214.748 339.218C214.766 338.133 214.046 337.241 213.143 337.226C212.237 337.212 211.49 338.081 211.473 339.165Z" fill="white"/>
<path d="M208.421 238.595C208.729 238.595 208.984 238.824 209.025 239.122L209.03 239.204V349.201C209.03 349.538 208.757 349.811 208.421 349.811C208.112 349.811 207.857 349.582 207.817 349.284L207.811 349.201V239.204C207.811 238.868 208.084 238.595 208.421 238.595Z" fill="#253368"/>
<path d="M195.983 264.449H173.326C172.984 264.449 172.709 264.731 172.717 265.073L173.121 282.743C173.125 282.956 173.241 283.151 173.425 283.257L185.468 290.211C185.675 290.331 185.933 290.318 186.128 290.179L196.338 282.847C196.498 282.732 196.592 282.548 196.592 282.352V265.059C196.592 264.722 196.319 264.449 195.983 264.449ZM195.373 265.668V282.039L185.736 288.959L174.331 282.373L173.95 265.668H195.373Z" fill="#253368"/>
<path d="M157.92 259.311C158.225 259.264 158.512 259.451 158.598 259.739L158.619 259.836L159.524 265.534C159.843 267.526 160.184 269.639 160.545 271.856L161.1 275.256C162.888 286.154 164.74 297.051 166.57 307.304L167.357 311.678C167.946 314.926 168.523 318.051 169.087 321.041L169.664 324.073C170.269 327.233 170.856 330.213 171.422 332.998C171.459 333.182 171.409 333.373 171.287 333.515C167.099 338.402 167.655 342.955 171.13 347.035C171.742 347.753 172.398 348.392 173.054 348.943C173.226 349.087 173.388 349.217 173.538 349.332L173.764 349.501H246.874L246.944 349.369L246.999 349.261C247.222 348.814 247.446 348.305 247.656 347.741C248.822 344.605 249.039 341.331 247.726 338.29C247.28 337.259 246.662 336.276 245.858 335.349C245.74 335.212 245.688 335.03 245.717 334.851L246.58 329.534C249.144 313.67 251.477 298.606 253.551 284.699L254.651 277.264C254.848 275.919 255.038 274.617 255.221 273.358L256.216 266.438L256.696 263.033C256.742 262.699 257.05 262.467 257.383 262.513C257.689 262.555 257.909 262.817 257.909 263.117L257.884 263.341L257.223 268.012L256.204 275.065C255.902 277.135 255.582 279.316 255.243 281.603L254.291 287.989C252.178 302.07 249.808 317.283 247.21 333.268L246.964 334.771L247.039 334.859C247.715 335.687 248.264 336.557 248.69 337.465L248.844 337.807C250.302 341.18 250.064 344.762 248.798 348.166C248.573 348.773 248.331 349.322 248.088 349.807C247.941 350.101 247.824 350.311 247.754 350.427C247.659 350.583 247.5 350.687 247.323 350.713L247.233 350.72H173.57C173.449 350.72 173.331 350.684 173.23 350.616L173.029 350.474L172.957 350.42C172.749 350.266 172.518 350.084 172.271 349.876C171.566 349.284 170.861 348.598 170.202 347.825C166.488 343.465 165.778 338.434 169.956 333.212L170.168 332.951L169.673 330.484C169.287 328.542 168.891 326.515 168.487 324.408L168.101 322.382C167.329 318.315 166.532 313.988 165.714 309.434L165.027 305.587C163.422 296.542 161.806 287.035 160.234 277.498L158.944 269.601L157.412 260.007C157.36 259.675 157.588 259.363 157.92 259.311Z" fill="#253368"/>
<mask id="mask0_298_3838" style="mask-type:alpha" maskUnits="userSpaceOnUse" x="115" y="316" width="57" height="59">
<path d="M115.781 316.005H171.249V374.868H115.781V316.005Z" fill="white"/>
</mask>
<g mask="url(#mask0_298_3838)">
<path fill-rule="evenodd" clip-rule="evenodd" d="M171.249 358.568L169.545 374.868C169.545 374.868 123.456 350.531 117.751 335.711C107.132 308.126 142.915 317.562 142.915 317.562L171.249 358.568Z" fill="#FFC999"/>
<path fill-rule="evenodd" clip-rule="evenodd" d="M179.843 350.317C179.843 350.317 170.191 341.138 166.986 341.51C162.018 342.085 165.507 351.689 165.507 351.689C165.507 351.689 161.292 354.54 164.152 359.409C162.426 364.186 165.081 366.438 165.081 366.438C165.081 366.438 162.354 370.085 166.33 372.971C170.307 375.858 179.254 374.898 177.844 368.695C181.393 365.2 178.389 361.807 178.389 361.807C178.389 361.807 180.955 358.491 177.956 355.261C180.553 353.746 180.84 351.284 179.843 350.317Z" fill="#FFC999"/>
<path d="M167.989 349.631C168.094 349.444 168.316 349.365 168.511 349.433L168.583 349.465L178.171 354.881C178.381 355 178.455 355.266 178.336 355.476C178.231 355.662 178.009 355.742 177.813 355.674L177.742 355.641L168.154 350.225C167.944 350.106 167.87 349.84 167.989 349.631Z" fill="#DD936F"/>
<path d="M165.211 351.368C165.388 351.205 165.664 351.216 165.827 351.393C165.991 351.57 165.98 351.846 165.803 352.009L165.67 352.141C165.614 352.199 165.546 352.271 165.469 352.357C165.211 352.646 164.951 352.976 164.71 353.34C163.422 355.279 163.156 357.272 164.507 359.154C164.596 359.278 164.614 359.439 164.554 359.579C163.498 362.068 163.682 363.938 164.606 365.293C164.771 365.535 164.946 365.737 165.12 365.901L165.227 365.998C165.273 366.037 165.308 366.064 165.328 366.078C165.426 366.146 165.492 366.25 165.512 366.365L165.518 366.436L165.539 370.864C165.54 371.105 165.345 371.301 165.104 371.302C164.887 371.303 164.707 371.146 164.672 370.939L164.666 370.868L164.646 366.652L164.554 366.572C164.384 366.416 164.193 366.209 164.001 365.948L163.885 365.785C162.83 364.237 162.594 362.145 163.639 359.512L163.659 359.461L163.536 359.268C162.281 357.223 162.581 355.076 163.856 353.053L163.983 352.857C164.249 352.456 164.534 352.094 164.819 351.775C164.992 351.582 165.129 351.444 165.211 351.368Z" fill="#DD936F"/>
<path d="M169.289 358.912L178.503 361.385C178.735 361.448 178.873 361.687 178.811 361.92C178.755 362.126 178.56 362.259 178.354 362.241L178.276 362.228L169.063 359.755C168.83 359.693 168.692 359.453 168.754 359.221C168.81 359.014 169.005 358.882 169.211 358.899L169.289 358.912Z" fill="#DD936F"/>
<path d="M169.047 366.769L177.917 368.265C178.155 368.305 178.315 368.53 178.275 368.768C178.239 368.981 178.053 369.133 177.843 369.131L177.772 369.125L168.902 367.63C168.664 367.59 168.504 367.365 168.544 367.127C168.58 366.913 168.766 366.762 168.976 366.763L169.047 366.769Z" fill="#DD936F"/>
<path d="M143.136 317.196C143.316 317.08 143.549 317.113 143.691 317.264L143.739 317.326L153.805 332.882C153.936 333.084 153.878 333.354 153.676 333.485C153.496 333.602 153.262 333.569 153.121 333.418L153.072 333.356L143.007 317.8C142.876 317.597 142.934 317.327 143.136 317.196Z" fill="#DD936F"/>
</g>
</svg>
