<svg width="100" height="100" viewBox="0 0 100 100" fill="none" xmlns="http://www.w3.org/2000/svg">
<path fill-rule="evenodd" clip-rule="evenodd" d="M8.67832 87.8162C6.94846 87.8162 5.54602 86.4139 5.54602 84.684C5.54602 82.9541 6.94846 81.5518 8.67832 81.5518H91.3023C93.0321 81.5518 94.4346 82.9541 94.4346 84.684C94.4346 86.4139 93.0321 87.8162 91.3023 87.8162H8.67832Z" fill="#E4EBF7"/>
<path fill-rule="evenodd" clip-rule="evenodd" d="M8.00033 87.8163C6.64491 87.8163 5.54614 86.4139 5.54614 84.684H94.4346C94.4346 86.4139 93.3359 87.8163 91.9805 87.8163H8.00033Z" fill="#A3B5D6"/>
<path fill-rule="evenodd" clip-rule="evenodd" d="M61.9728 81.5518L59.5392 82.8164C58.9023 83.1474 58.2211 83.3177 57.5335 83.3177H41.493C40.6838 83.3177 39.8852 83.0819 39.1581 82.6286L37.4314 81.5518H61.9728Z" fill="#CCD7EE"/>
<path fill-rule="evenodd" clip-rule="evenodd" d="M92.1456 75.7272H7.85435C6.5368 75.7272 5.46875 74.6591 5.46875 73.3416V14.4967C5.46875 13.1791 6.5368 12.1111 7.85435 12.1111H92.1456C93.4632 12.1111 94.5312 13.1791 94.5312 14.4967V73.3416C94.5312 74.6591 93.4632 75.7272 92.1456 75.7272Z" fill="#E4EBF7"/>
<path fill-rule="evenodd" clip-rule="evenodd" d="M9.44083 71.9122C9.00168 71.9122 8.64563 71.5561 8.64563 71.117V16.8273C8.64563 16.3882 9.00168 16.0321 9.44083 16.0321H90.5456C90.9847 16.0321 91.3408 16.3882 91.3408 16.8273V71.117C91.3408 71.5561 90.9847 71.9122 90.5456 71.9122H9.44083Z" fill="#253368"/>
<path fill-rule="evenodd" clip-rule="evenodd" d="M30.8739 71.9373H9.40169C8.96353 71.9373 8.60828 71.5822 8.60828 71.1439V20.2493H30.8739V71.9373Z" fill="#E44F4F"/>
<path fill-rule="evenodd" clip-rule="evenodd" d="M25.085 45.035H13.7825C13.3847 45.035 13.0621 44.7125 13.0621 44.3147V42.538C13.0621 42.1402 13.3847 41.8177 13.7825 41.8177H25.085C25.4828 41.8177 25.8053 42.1402 25.8053 42.538V44.3147C25.8053 44.7125 25.4828 45.035 25.085 45.035Z" fill="white"/>
<path fill-rule="evenodd" clip-rule="evenodd" d="M25.096 51.2372H13.7716C13.3798 51.2372 13.0621 50.9196 13.0621 50.5279V48.8266C13.0621 48.4349 13.3798 48.1173 13.7716 48.1173H25.096C25.4877 48.1173 25.8053 48.4349 25.8053 48.8266V50.5279C25.8053 50.9196 25.4877 51.2372 25.096 51.2372Z" fill="white"/>
<path fill-rule="evenodd" clip-rule="evenodd" d="M25.096 57.488H13.7716C13.3798 57.488 13.0621 57.1705 13.0621 56.7787V55.0775C13.0621 54.6857 13.3798 54.3682 13.7716 54.3682H25.096C25.4877 54.3682 25.8053 54.6857 25.8053 55.0775V56.7787C25.8053 57.1705 25.4877 57.488 25.096 57.488Z" fill="white"/>
<path fill-rule="evenodd" clip-rule="evenodd" d="M25.7954 31.2378C25.7954 34.7512 22.9471 37.5994 19.4338 37.5994C15.9204 37.5994 13.0721 34.7512 13.0721 31.2378C13.0721 27.7244 15.9204 24.8762 19.4338 24.8762C22.9471 24.8762 25.7954 27.7244 25.7954 31.2378Z" fill="white"/>
<path fill-rule="evenodd" clip-rule="evenodd" d="M19.4338 37.5994C21.3415 37.5994 23.0476 36.7394 24.188 35.3867C23.2875 33.6808 21.4969 32.5175 19.4338 32.5175C17.3706 32.5175 15.58 33.6808 14.6796 35.3867C15.82 36.7394 17.5261 37.5994 19.4338 37.5994Z" fill="#253368"/>
<path fill-rule="evenodd" clip-rule="evenodd" d="M21.859 30.3787C21.859 31.6999 20.788 32.7709 19.4668 32.7709C18.1456 32.7709 17.0746 31.6999 17.0746 30.3787C17.0746 29.0575 18.1456 27.9865 19.4668 27.9865C20.788 27.9865 21.859 29.0575 21.859 30.3787Z" fill="#253368"/>
<path fill-rule="evenodd" clip-rule="evenodd" d="M61.9625 69.1926H32.275C31.6189 69.1926 31.0822 68.6558 31.0822 67.9998V21.352C31.0822 20.696 31.6189 20.1592 32.275 20.1592H61.9625C62.6185 20.1592 63.1553 20.696 63.1553 21.352V67.9998C63.1553 68.6558 62.6185 69.1926 61.9625 69.1926Z" fill="#253368"/>
<path fill-rule="evenodd" clip-rule="evenodd" d="M30.8425 71.9373V20.2493H91.4833V71.1421C91.4833 71.5813 91.1272 71.9373 90.6881 71.9373H30.8425Z" fill="white"/>
<path fill-rule="evenodd" clip-rule="evenodd" d="M36.8241 59.3904C36.3849 59.3904 36.0289 59.0344 36.0289 58.5952V26.2972C36.0289 25.8579 36.3849 25.502 36.8241 25.502H85.7798C86.2189 25.502 86.575 25.8579 86.575 26.2972V58.5952C86.575 59.0344 86.2189 59.3904 85.7798 59.3904H36.8241Z" fill="#E44F4F"/>
<path fill-rule="evenodd" clip-rule="evenodd" d="M39.4715 30.174C39.2029 30.174 38.9852 29.9563 38.9852 29.6877C38.9852 29.4192 39.2029 29.2015 39.4715 29.2015H42.9423C43.2108 29.2015 43.4285 29.4192 43.4285 29.6877C43.4285 29.9563 43.2108 30.174 42.9423 30.174H39.4715Z" fill="#253368"/>
<path fill-rule="evenodd" clip-rule="evenodd" d="M39.5275 32.5073C39.2591 32.5073 39.0414 32.2897 39.0414 32.0211C39.0414 31.7526 39.2591 31.5349 39.5275 31.5349H42.9984C43.267 31.5349 43.4847 31.7526 43.4847 32.0211C43.4847 32.2897 43.267 32.5073 42.9984 32.5073H39.5275Z" fill="#253368"/>
<path fill-rule="evenodd" clip-rule="evenodd" d="M36.0291 50.4409C41.2895 50.4409 39.8927 43.7752 47.8598 43.7752C55.8269 43.7752 55.412 49.7341 61.6257 49.7341C67.9362 49.7341 67.5188 32.619 73.5645 32.619C79.9461 32.619 78.5056 48.1277 86.4546 48.1277V58.6379C86.4546 59.0774 86.0982 59.4335 85.6587 59.4331L36.8236 59.3911C36.3847 59.3907 36.0291 59.0348 36.0291 58.5959V50.4409Z" fill="#253368"/>
<path d="M68.0781 49.1066L68.856 48.3035C69.1231 48.0285 69.3291 47.8199 69.5313 47.6215C71.1453 46.0371 72.3744 45.3075 73.8719 45.3075C75.4259 45.3075 76.7865 46.0899 78.6388 47.7825L78.6975 47.8362C78.8587 47.9844 79.0252 48.1403 79.2154 48.3209L80.1497 49.2153C81.3993 50.4075 82.1636 51.0595 83.0371 51.6212C84.1625 52.3449 85.2488 52.7238 86.3899 52.7376L86.4546 52.738V53.2946C85.1732 53.2946 83.9665 52.8806 82.736 52.0894L82.6496 52.0333C81.8032 51.4792 81.0507 50.8391 79.8867 49.7335L78.9786 48.864L78.7403 48.6375C78.5895 48.495 78.4532 48.3678 78.3208 48.2461L78.2086 48.1436C76.4801 46.5729 75.2335 45.8641 73.8719 45.8641C72.5579 45.8641 71.4403 46.5276 69.9212 48.0187L69.7872 48.1512C69.6398 48.2979 69.4834 48.4568 69.2964 48.649L68.4764 49.4955L68.3489 49.6256C67.2134 50.7796 66.3855 51.4988 65.4271 52.092C64.1524 52.8809 62.8151 53.2946 61.3144 53.2946C58.8676 53.2946 56.9415 52.2696 55.407 50.3415C54.1985 48.8228 53.2865 46.8618 52.3642 44.0913L52.2928 43.8746C51.9696 42.8809 51.1448 40.1836 51.122 40.1113L51.0711 39.951C50.5408 38.2868 50.1236 37.2299 49.6509 36.4438C49.0924 35.5149 48.4984 35.0664 47.7946 35.0664C46.9354 35.0664 46.2181 35.6638 45.5552 36.8852L45.5156 36.959C45.0027 37.9245 44.5652 39.1475 43.9666 41.1702L43.1684 43.9151L43.0913 44.1741C42.2425 47.0099 41.5277 48.8409 40.5836 50.318C39.3543 52.2415 37.8379 53.2739 35.9082 53.2943L35.8496 53.2946V52.738C37.5952 52.738 38.9668 51.8141 40.1146 50.0183C41.0336 48.5804 41.7391 46.7628 42.5865 43.9193L42.7187 43.4705C42.9308 42.7442 43.2983 41.4704 43.3389 41.3315L43.4339 41.0087C44.0503 38.926 44.5007 37.6722 45.0453 36.6581L45.066 36.6197C45.816 35.2377 46.6901 34.5098 47.7946 34.5098C48.7271 34.5098 49.4788 35.0773 50.128 36.157L50.1755 36.2371C50.664 37.073 51.0893 38.1668 51.6267 39.8613L52.3813 42.3052C52.5731 42.9216 52.7552 43.5008 52.859 43.8148C53.7739 46.5819 54.6695 48.5208 55.8426 49.9948C57.2761 51.7961 59.046 52.738 61.3144 52.738C62.7068 52.738 63.944 52.3552 65.1342 51.6186C66.0804 51.033 66.9055 50.3074 68.0781 49.1066Z" fill="white"/>
<path d="M85.5942 63.7778C85.7786 63.7778 85.9282 63.9274 85.9282 64.1118C85.9282 64.2901 85.7884 64.4358 85.6125 64.4453L85.5942 64.4458H36.5608C36.3763 64.4458 36.2268 64.2963 36.2268 64.1118C36.2268 63.9335 36.3665 63.7878 36.5425 63.7783L36.5608 63.7778H85.5942Z" fill="#597EF7"/>
<path d="M77.7578 67.1364C77.9422 67.1364 78.0918 67.2859 78.0918 67.4703C78.0918 67.6486 77.952 67.7943 77.7761 67.8038L77.7578 67.8043H36.5608C36.3763 67.8043 36.2268 67.6548 36.2268 67.4703C36.2268 67.292 36.3665 67.1464 36.5425 67.1368L36.5608 67.1364H77.7578Z" fill="#597EF7"/>
</svg>
